{"glyphs":{"0":{"ha":1413,"x_min":0,"x_max":0,"o":"m 339 -6 l 1074 -6 b 1329 243 1246 -6 1329 79 l 1329 729 b 1074 978 1329 893 1246 978 l 339 978 b 83 729 167 978 83 893 l 83 243 b 339 -6 83 79 167 -6 z m 360 101 b 201 256 250 101 201 146 l 201 717 b 360 871 201 826 250 871 l 1053 871 b 1211 717 1163 871 1211 826 l 1211 256 b 1053 101 1211 146 1163 101 z "},"1":{"ha":504,"x_min":0,"x_max":0,"o":"m 396 972 l 61 972 b 42 953 47 972 42 967 l 42 889 b 61 871 42 875 47 871 l 300 871 l 300 18 b 319 0 300 6 306 0 l 396 0 b 414 18 408 0 414 6 l 414 954 b 396 972 414 967 408 972 z "},"2":{"ha":1288,"x_min":0,"x_max":0,"o":"m 83 0 l 1199 0 b 1218 19 1211 0 1218 6 l 1218 83 b 1199 101 1218 97 1211 101 l 178 101 l 178 165 b 318 339 178 251 204 326 l 1003 419 b 1225 717 1182 440 1225 546 b 954 979 1225 883 1144 979 l 360 979 b 74 726 179 979 74 901 l 74 703 b 93 685 74 690 79 685 l 169 685 b 188 703 182 685 188 690 b 361 875 188 829 246 875 l 949 875 b 1111 717 1063 875 1111 824 b 958 517 1111 613 1089 532 l 281 436 b 63 136 96 414 63 297 l 63 21 b 83 0 63 7 69 0 z "},"3":{"ha":1296,"x_min":0,"x_max":0,"o":"m 1060 499 l 1060 510 b 1213 717 1163 539 1213 585 b 939 979 1213 883 1129 979 l 358 979 b 74 726 178 979 74 901 l 74 703 b 92 685 74 690 79 685 l 168 685 b 188 703 182 685 188 690 b 361 875 188 829 246 875 l 933 875 b 1099 717 1047 875 1099 824 b 914 556 1099 608 1046 556 l 314 556 b 296 536 301 556 296 550 l 296 472 b 314 454 296 458 301 454 l 914 454 b 1119 261 1046 454 1119 401 b 951 97 1119 153 1065 97 l 350 97 b 176 269 235 97 176 143 b 157 288 176 282 171 288 l 81 288 b 63 269 68 288 63 282 l 63 246 b 347 -7 63 71 167 -7 l 957 -7 b 1233 261 1146 -7 1233 94 b 1060 499 1233 429 1163 474 z "},"4":{"ha":1301,"x_min":0,"x_max":0,"o":"m 1219 296 l 1122 296 l 1122 503 b 1101 522 1122 517 1115 522 l 1025 522 b 1006 503 1011 522 1006 517 l 1006 296 l 229 296 l 226 303 l 879 946 b 869 972 893 960 886 972 l 772 972 b 740 957 761 972 751 968 l 75 301 b 65 267 63 289 61 282 l 79 206 b 101 192 83 193 93 192 l 1006 192 l 1006 19 b 1025 0 1006 6 1011 0 l 1101 0 b 1122 19 1115 0 1122 6 l 1122 192 l 1219 192 b 1239 211 1233 192 1239 197 l 1239 275 b 1219 296 1239 289 1233 296 z "},"5":{"ha":1311,"x_min":0,"x_max":0,"o":"m 354 -7 l 963 -7 b 1242 275 1153 -7 1242 93 l 1242 351 b 982 625 1242 499 1182 625 l 393 625 b 206 550 301 625 232 589 l 196 550 l 226 871 l 1167 871 b 1186 889 1179 871 1186 875 l 1186 953 b 1167 972 1186 967 1179 972 l 147 972 b 126 951 133 972 128 965 l 82 465 b 103 440 81 449 88 440 l 197 440 b 358 522 219 478 261 522 l 953 522 b 1128 346 1074 522 1128 472 l 1128 275 b 958 97 1128 150 1072 97 l 357 97 b 183 269 240 97 183 143 b 164 288 183 282 178 288 l 88 288 b 69 269 75 288 69 282 l 69 246 b 354 -7 69 71 174 -7 z "},"6":{"ha":1332,"x_min":0,"x_max":0,"o":"m 368 -7 l 978 -7 b 1263 275 1176 -7 1263 93 l 1263 324 b 1003 599 1263 471 1203 599 l 390 599 b 206 519 303 599 232 561 l 199 519 l 197 717 b 361 876 196 824 249 876 l 956 876 b 1125 744 1072 876 1125 843 b 1143 726 1125 733 1131 726 l 1221 726 b 1239 744 1233 726 1239 733 l 1239 768 b 958 979 1239 917 1140 979 l 357 979 b 83 717 167 979 83 883 l 83 275 b 368 -7 83 93 169 -7 z m 372 96 b 197 275 251 96 197 150 l 197 319 b 372 496 197 444 251 496 l 974 496 b 1149 319 1094 496 1149 444 l 1149 275 b 974 96 1149 150 1094 96 z "},"7":{"ha":1274,"x_min":0,"x_max":0,"o":"m 1204 868 l 1204 953 b 1185 972 1204 967 1199 972 l 89 972 b 69 953 75 972 69 967 l 69 885 b 89 865 69 871 75 865 l 1054 865 l 1054 850 l 93 24 b 100 0 83 15 86 0 l 213 0 b 257 21 231 0 242 10 l 1188 832 b 1204 868 1203 846 1204 854 z "},"8":{"ha":1361,"x_min":0,"x_max":0,"o":"m 1131 535 b 1243 732 1207 565 1243 631 b 993 979 1243 893 1163 979 l 368 979 b 118 732 199 979 118 893 b 231 535 118 632 154 565 b 83 304 131 500 83 426 l 83 267 b 368 -7 83 93 169 -7 l 993 -7 b 1278 267 1192 -7 1278 93 l 1278 303 b 1131 535 1278 425 1231 500 z m 375 881 l 986 881 b 1135 732 1093 881 1135 831 b 986 585 1135 633 1093 585 l 376 585 b 226 732 268 585 226 633 b 375 881 226 831 268 881 z m 1164 267 b 989 96 1164 150 1110 96 l 372 96 b 197 267 251 96 197 150 l 197 303 b 372 476 197 424 251 476 l 989 476 b 1164 303 1110 476 1164 424 z "},"9":{"ha":1332,"x_min":0,"x_max":0,"o":"m 978 979 l 368 979 b 83 697 169 979 83 879 l 83 649 b 343 374 83 501 143 374 l 956 374 b 1140 453 1043 374 1114 411 l 1147 453 l 1149 256 b 985 96 1150 149 1097 96 l 390 96 b 221 228 274 96 221 129 b 203 246 221 239 215 246 l 125 246 b 107 228 113 246 107 239 l 107 204 b 388 -7 107 56 206 -7 l 989 -7 b 1263 256 1179 -7 1263 89 l 1263 697 b 978 979 1263 879 1176 979 z m 974 876 b 1149 697 1094 876 1149 822 l 1149 653 b 974 476 1149 528 1094 476 l 372 476 b 197 653 251 476 197 528 l 197 697 b 372 876 197 822 251 876 z "},"A":{"ha":1483,"x_min":0,"x_max":0,"o":"m 1424 24 l 817 950 b 790 972 808 964 803 972 l 693 972 b 665 950 681 972 674 964 l 60 24 b 74 0 50 8 60 0 l 165 0 b 194 22 181 0 185 7 l 299 182 l 1185 182 l 1289 22 b 1317 0 1299 7 1303 0 l 1410 0 b 1424 24 1424 0 1433 8 z m 365 285 l 733 849 l 749 849 l 1117 285 z "},"Á":{"ha":1483,"x_min":0,"x_max":0,"o":"m 707 1040 l 772 1040 b 806 1065 786 1040 794 1050 l 931 1225 b 924 1250 943 1240 939 1250 l 817 1250 b 785 1225 803 1250 794 1242 l 697 1065 b 707 1040 688 1050 693 1040 z m 1424 24 l 817 950 b 790 972 808 964 803 972 l 693 972 b 665 950 681 972 674 964 l 60 24 b 74 0 50 8 60 0 l 165 0 b 194 22 181 0 185 7 l 299 182 l 1185 182 l 1289 22 b 1317 0 1299 7 1303 0 l 1410 0 b 1424 24 1424 0 1433 8 z m 365 285 l 733 849 l 749 849 l 1117 285 z "},"Ă":{"ha":1483,"x_min":0,"x_max":0,"o":"m 708 1051 l 774 1051 b 946 1232 890 1051 946 1111 b 926 1250 946 1244 940 1250 l 871 1250 b 851 1232 857 1250 851 1244 b 761 1135 849 1178 824 1135 l 719 1135 b 629 1232 657 1135 632 1178 b 611 1250 629 1244 625 1250 l 554 1250 b 535 1232 540 1250 535 1244 b 708 1051 535 1111 592 1051 z m 1424 24 l 817 950 b 790 972 808 964 803 972 l 693 972 b 665 950 681 972 674 964 l 60 24 b 74 0 50 8 60 0 l 165 0 b 194 22 181 0 185 7 l 299 182 l 1185 182 l 1289 22 b 1317 0 1299 7 1303 0 l 1410 0 b 1424 24 1424 0 1433 8 z m 365 285 l 733 849 l 749 849 l 1117 285 z "},"Ǎ":{"ha":1483,"x_min":0,"x_max":0,"o":"m 664 1061 b 700 1042 676 1047 685 1042 l 779 1042 b 818 1061 794 1042 806 1046 l 963 1226 b 953 1250 974 1238 967 1250 l 882 1250 b 843 1226 865 1250 857 1244 l 749 1119 l 735 1119 l 640 1226 b 601 1250 625 1244 617 1250 l 529 1250 b 519 1226 515 1250 510 1238 z m 1424 24 l 817 950 b 790 972 808 964 803 972 l 693 972 b 665 950 681 972 674 964 l 60 24 b 74 0 50 8 60 0 l 165 0 b 194 22 181 0 185 7 l 299 182 l 1185 182 l 1289 22 b 1317 0 1299 7 1303 0 l 1410 0 b 1424 24 1424 0 1433 8 z m 365 285 l 733 849 l 749 849 l 1117 285 z "},"Â":{"ha":1483,"x_min":0,"x_max":0,"o":"m 529 1042 l 601 1042 b 640 1065 617 1042 625 1047 l 735 1172 l 749 1172 l 843 1065 b 882 1042 857 1047 865 1042 l 953 1042 b 963 1065 967 1042 974 1054 l 818 1232 b 779 1250 806 1246 794 1250 l 700 1250 b 664 1232 685 1250 676 1246 l 519 1065 b 529 1042 510 1054 515 1042 z m 1424 24 l 817 950 b 790 972 808 964 803 972 l 693 972 b 665 950 681 972 674 964 l 60 24 b 74 0 50 8 60 0 l 165 0 b 194 22 181 0 185 7 l 299 182 l 1185 182 l 1289 22 b 1317 0 1299 7 1303 0 l 1410 0 b 1424 24 1424 0 1433 8 z m 365 285 l 733 849 l 749 849 l 1117 285 z "},"Ä":{"ha":1483,"x_min":0,"x_max":0,"o":"m 518 1129 l 601 1129 b 619 1147 615 1129 619 1133 l 619 1231 b 601 1250 619 1244 615 1250 l 518 1250 b 499 1231 504 1250 499 1244 l 499 1147 b 518 1129 499 1133 504 1129 z m 851 1129 l 935 1129 b 954 1147 949 1129 954 1133 l 954 1231 b 935 1250 954 1244 949 1250 l 851 1250 b 833 1231 838 1250 833 1244 l 833 1147 b 851 1129 833 1133 838 1129 z m 1424 24 l 817 950 b 790 972 808 964 803 972 l 693 972 b 665 950 681 972 674 964 l 60 24 b 74 0 50 8 60 0 l 165 0 b 194 22 181 0 185 7 l 299 182 l 1185 182 l 1289 22 b 1317 0 1299 7 1303 0 l 1410 0 b 1424 24 1424 0 1433 8 z m 365 285 l 733 849 l 749 849 l 1117 285 z "},"À":{"ha":1483,"x_min":0,"x_max":0,"o":"m 676 1064 b 708 1040 688 1049 694 1040 l 772 1040 b 785 1065 788 1040 794 1050 l 699 1225 b 669 1250 689 1242 683 1250 l 565 1250 b 551 1225 550 1250 539 1240 z m 1424 24 l 817 950 b 790 972 808 964 803 972 l 693 972 b 665 950 681 972 674 964 l 60 24 b 74 0 50 8 60 0 l 165 0 b 194 22 181 0 185 7 l 299 182 l 1185 182 l 1289 22 b 1317 0 1299 7 1303 0 l 1410 0 b 1424 24 1424 0 1433 8 z m 365 285 l 733 849 l 749 849 l 1117 285 z "},"Ā":{"ha":1483,"x_min":0,"x_max":0,"o":"m 517 1144 l 967 1144 b 988 1165 979 1144 988 1151 l 988 1229 b 967 1250 988 1243 979 1250 l 517 1250 b 496 1229 503 1250 496 1243 l 496 1165 b 517 1144 496 1151 503 1144 z m 1424 24 l 817 950 b 790 972 808 964 803 972 l 693 972 b 665 950 681 972 674 964 l 60 24 b 74 0 50 8 60 0 l 165 0 b 194 22 181 0 185 7 l 299 182 l 1185 182 l 1289 22 b 1317 0 1299 7 1303 0 l 1410 0 b 1424 24 1424 0 1433 8 z m 365 285 l 733 849 l 749 849 l 1117 285 z "},"Ą":{"ha":1525,"x_min":0,"x_max":0,"o":"m 1240 -136 l 1410 -118 b 1460 -36 1454 -112 1488 -82 l 1426 17 b 1424 24 1426 19 1425 21 l 817 950 b 790 972 808 964 803 972 l 693 972 b 665 950 681 972 674 964 l 60 24 b 74 0 50 8 60 0 l 165 0 b 194 22 181 0 185 7 l 299 182 l 1185 182 l 1286 26 l 1315 -19 b 1272 -58 1331 -43 1308 -54 l 1217 -65 b 1108 -171 1135 -75 1108 -85 b 1238 -283 1108 -258 1136 -283 l 1401 -283 b 1415 -269 1411 -283 1415 -278 l 1415 -219 b 1401 -204 1415 -210 1410 -204 l 1257 -204 b 1211 -168 1219 -204 1211 -196 b 1240 -136 1211 -142 1218 -139 z m 365 285 l 733 849 l 749 849 l 1117 285 z "},"Å":{"ha":1483,"x_min":0,"x_max":0,"o":"m 732 1025 l 750 1025 b 867 1140 818 1025 867 1075 l 867 1156 b 750 1272 867 1221 818 1272 l 732 1272 b 615 1156 664 1272 615 1221 l 615 1140 b 732 1025 615 1075 664 1025 z m 686 1154 b 735 1203 686 1183 704 1203 l 747 1203 b 796 1154 778 1203 796 1183 l 796 1143 b 747 1094 796 1114 778 1094 l 735 1094 b 686 1143 704 1094 686 1114 z m 1424 24 l 817 950 b 790 972 808 964 803 972 l 693 972 b 665 950 681 972 674 964 l 60 24 b 74 0 50 8 60 0 l 165 0 b 194 22 181 0 185 7 l 299 182 l 1185 182 l 1289 22 b 1317 0 1299 7 1303 0 l 1410 0 b 1424 24 1424 0 1433 8 z m 365 285 l 733 849 l 749 849 l 1117 285 z "},"Ã":{"ha":1483,"x_min":0,"x_max":0,"o":"m 533 1136 b 557 1131 538 1126 544 1124 b 639 1157 589 1150 610 1157 b 839 1094 715 1157 746 1094 b 961 1135 881 1094 919 1106 b 972 1160 972 1142 978 1149 l 949 1215 b 926 1221 944 1224 938 1228 b 844 1194 893 1201 874 1194 b 643 1257 767 1194 736 1257 b 521 1217 601 1257 563 1246 b 510 1192 510 1210 506 1201 z m 1424 24 l 817 950 b 790 972 808 964 803 972 l 693 972 b 665 950 681 972 674 964 l 60 24 b 74 0 50 8 60 0 l 165 0 b 194 22 181 0 185 7 l 299 182 l 1185 182 l 1289 22 b 1317 0 1299 7 1303 0 l 1410 0 b 1424 24 1424 0 1433 8 z m 365 285 l 733 849 l 749 849 l 1117 285 z "},"Æ":{"ha":2199,"x_min":0,"x_max":0,"o":"m 2101 107 l 1117 107 l 1117 433 l 2081 433 b 2101 454 2094 433 2101 440 l 2101 518 b 2081 539 2101 532 2094 539 l 1117 539 l 1117 865 l 2094 865 b 2115 886 2108 865 2115 872 l 2115 951 b 2094 972 2115 965 2108 972 l 1010 972 b 975 951 996 972 988 965 l 61 22 b 71 0 49 8 57 0 l 174 0 b 210 22 189 0 197 8 l 367 182 l 999 182 l 999 19 b 1018 0 999 6 1004 0 l 2101 0 b 2122 21 2115 0 2122 7 l 2122 86 b 2101 107 2122 100 2115 107 z m 468 286 l 999 828 l 999 286 z "},"B":{"ha":1343,"x_min":0,"x_max":0,"o":"m 1143 500 l 1143 515 b 1231 700 1206 549 1231 611 l 1231 728 b 986 972 1231 897 1154 972 l 111 972 b 90 951 97 972 90 965 l 90 21 b 111 0 90 7 97 0 l 986 0 b 1267 254 1168 0 1267 72 l 1267 296 b 1143 500 1267 406 1225 471 z m 1114 719 l 1114 692 b 974 547 1114 583 1068 547 l 208 547 l 208 865 l 974 865 b 1114 719 1068 865 1114 835 z m 1150 257 b 979 107 1150 135 1092 107 l 208 107 l 208 450 l 979 450 b 1150 296 1092 450 1150 421 z "},"C":{"ha":1406,"x_min":0,"x_max":0,"o":"m 1229 672 l 1313 672 b 1329 690 1325 672 1329 678 l 1329 729 b 1078 978 1329 893 1250 978 l 339 978 b 83 729 167 978 83 893 l 83 243 b 339 -6 83 79 167 -6 l 1078 -6 b 1329 226 1250 -6 1329 76 l 1329 250 b 1313 268 1329 263 1325 268 l 1229 268 b 1211 250 1217 268 1211 263 l 1211 239 b 1056 101 1211 144 1165 101 l 360 101 b 201 256 250 101 201 146 l 201 717 b 360 871 201 826 250 871 l 1054 871 b 1211 717 1165 871 1211 826 l 1211 690 b 1229 672 1211 678 1217 672 z "},"Ć":{"ha":1344,"x_min":0,"x_max":0,"o":"m 718 1225 l 629 1065 b 640 1040 621 1050 626 1040 l 706 1040 b 739 1065 719 1040 728 1050 l 864 1225 b 857 1250 876 1240 872 1250 l 749 1250 b 718 1225 735 1250 728 1242 z m 1229 672 l 1313 672 b 1329 690 1325 672 1329 678 l 1329 729 b 1078 978 1329 893 1250 978 l 339 978 b 83 729 167 978 83 893 l 83 243 b 339 -6 83 79 167 -6 l 1078 -6 b 1329 226 1250 -6 1329 76 l 1329 250 b 1313 268 1329 263 1325 268 l 1229 268 b 1211 250 1217 268 1211 263 l 1211 239 b 1056 101 1211 144 1165 101 l 360 101 b 201 256 250 101 201 146 l 201 717 b 360 871 201 826 250 871 l 1054 871 b 1211 717 1165 871 1211 826 l 1211 690 b 1229 672 1211 678 1217 672 z "},"Č":{"ha":1344,"x_min":0,"x_max":0,"o":"m 615 1042 l 694 1042 b 733 1061 710 1042 721 1046 l 878 1226 b 868 1250 888 1238 882 1250 l 796 1250 b 757 1226 781 1250 772 1244 l 663 1119 l 649 1119 l 554 1226 b 515 1250 540 1244 532 1250 l 444 1250 b 435 1226 431 1250 424 1238 l 579 1061 b 615 1042 592 1047 600 1042 z m 1229 672 l 1313 672 b 1329 690 1325 672 1329 678 l 1329 729 b 1078 978 1329 893 1250 978 l 339 978 b 83 729 167 978 83 893 l 83 243 b 339 -6 83 79 167 -6 l 1078 -6 b 1329 226 1250 -6 1329 76 l 1329 250 b 1313 268 1329 263 1325 268 l 1229 268 b 1211 250 1217 268 1211 263 l 1211 239 b 1056 101 1211 144 1165 101 l 360 101 b 201 256 250 101 201 146 l 201 717 b 360 871 201 826 250 871 l 1054 871 b 1211 717 1165 871 1211 826 l 1211 690 b 1229 672 1211 678 1217 672 z "},"Ç":{"ha":1344,"x_min":0,"x_max":0,"o":"m 1229 672 l 1313 672 b 1329 690 1325 672 1329 678 l 1329 729 b 1078 978 1329 893 1250 978 l 339 978 b 83 729 167 978 83 893 l 83 243 b 339 -6 83 79 167 -6 l 654 -6 b 603 -82 617 -40 603 -60 b 657 -129 603 -114 628 -126 b 799 -172 765 -140 799 -143 b 739 -208 799 -201 781 -208 l 711 -208 b 653 -167 669 -208 654 -194 b 638 -156 651 -160 646 -156 l 575 -156 b 561 -171 564 -156 561 -161 b 682 -281 561 -239 592 -281 l 763 -281 b 890 -172 851 -281 890 -244 b 753 -65 890 -85 838 -75 b 757 -6 717 -62 694 -57 l 1078 -6 b 1329 226 1250 -6 1329 76 l 1329 250 b 1313 268 1329 263 1325 268 l 1229 268 b 1211 250 1217 268 1211 263 l 1211 239 b 1056 101 1211 144 1165 101 l 360 101 b 201 256 250 101 201 146 l 201 717 b 360 871 201 826 250 871 l 1054 871 b 1211 717 1165 871 1211 826 l 1211 690 b 1229 672 1211 678 1217 672 z "},"Ċ":{"ha":1344,"x_min":0,"x_max":0,"o":"m 638 1129 l 721 1129 b 740 1147 735 1129 740 1133 l 740 1231 b 721 1250 740 1244 735 1250 l 638 1250 b 618 1231 624 1250 618 1244 l 618 1147 b 638 1129 618 1133 624 1129 z m 1229 672 l 1313 672 b 1329 690 1325 672 1329 678 l 1329 729 b 1078 978 1329 893 1250 978 l 339 978 b 83 729 167 978 83 893 l 83 243 b 339 -6 83 79 167 -6 l 1078 -6 b 1329 226 1250 -6 1329 76 l 1329 250 b 1313 268 1329 263 1325 268 l 1229 268 b 1211 250 1217 268 1211 263 l 1211 239 b 1056 101 1211 144 1165 101 l 360 101 b 201 256 250 101 201 146 l 201 717 b 360 871 201 826 250 871 l 1054 871 b 1211 717 1165 871 1211 826 l 1211 690 b 1229 672 1211 678 1217 672 z "},"D":{"ha":1424,"x_min":0,"x_max":0,"o":"m 1088 972 l 110 972 b 90 953 96 972 90 967 l 90 19 b 110 0 90 6 96 0 l 1088 0 b 1340 249 1260 0 1340 85 l 1340 724 b 1088 972 1340 888 1260 972 z m 1224 261 b 1067 107 1224 151 1176 107 l 208 107 l 208 865 l 1067 865 b 1224 711 1176 865 1224 821 z "},"Ð":{"ha":1458,"x_min":0,"x_max":0,"o":"m 1121 972 l 144 972 b 125 953 131 972 125 967 l 125 544 l 26 544 b 7 526 13 544 7 539 l 7 461 b 26 443 7 449 13 443 l 125 443 l 125 19 b 144 0 125 6 131 0 l 1121 0 b 1375 249 1293 0 1375 85 l 1375 724 b 1121 972 1375 888 1293 972 z m 1257 261 b 1101 107 1257 151 1211 107 l 242 107 l 242 443 l 371 443 b 390 461 385 443 390 449 l 390 526 b 371 544 390 539 385 544 l 242 544 l 242 865 l 1101 865 b 1257 711 1211 865 1257 821 z "},"Ď":{"ha":1424,"x_min":0,"x_max":0,"o":"m 635 1061 b 671 1042 647 1047 656 1042 l 750 1042 b 789 1061 765 1042 776 1046 l 933 1226 b 924 1250 944 1238 938 1250 l 853 1250 b 814 1226 836 1250 828 1244 l 719 1119 l 706 1119 l 611 1226 b 572 1250 596 1244 588 1250 l 500 1250 b 490 1226 486 1250 481 1238 z m 1088 972 l 110 972 b 90 953 96 972 90 967 l 90 19 b 110 0 90 6 96 0 l 1088 0 b 1340 249 1260 0 1340 85 l 1340 724 b 1088 972 1340 888 1260 972 z m 1224 261 b 1067 107 1224 151 1176 107 l 208 107 l 208 865 l 1067 865 b 1224 711 1176 865 1224 821 z "},"Đ":{"ha":1458,"x_min":0,"x_max":0,"o":"m 1121 972 l 144 972 b 125 953 131 972 125 967 l 125 544 l 26 544 b 7 526 13 544 7 539 l 7 461 b 26 443 7 449 13 443 l 125 443 l 125 19 b 144 0 125 6 131 0 l 1121 0 b 1375 249 1293 0 1375 85 l 1375 724 b 1121 972 1375 888 1293 972 z m 1257 261 b 1101 107 1257 151 1211 107 l 242 107 l 242 443 l 371 443 b 390 461 385 443 390 449 l 390 526 b 371 544 390 539 385 544 l 242 544 l 242 865 l 1101 865 b 1257 711 1211 865 1257 821 z "},"E":{"ha":1290,"x_min":0,"x_max":0,"o":"m 1193 107 l 208 107 l 208 433 l 1172 433 b 1193 454 1186 433 1193 440 l 1193 518 b 1172 539 1193 532 1186 539 l 208 539 l 208 865 l 1186 865 b 1207 886 1200 865 1207 872 l 1207 951 b 1186 972 1207 965 1200 972 l 110 972 b 90 953 96 972 90 967 l 90 19 b 110 0 90 6 96 0 l 1193 0 b 1214 21 1207 0 1214 7 l 1214 86 b 1193 107 1214 100 1207 107 z "},"É":{"ha":1290,"x_min":0,"x_max":0,"o":"m 625 1040 l 690 1040 b 724 1065 704 1040 713 1050 l 849 1225 b 842 1250 861 1240 857 1250 l 735 1250 b 703 1225 721 1250 713 1242 l 615 1065 b 625 1040 606 1050 611 1040 z m 1193 107 l 208 107 l 208 433 l 1172 433 b 1193 454 1186 433 1193 440 l 1193 518 b 1172 539 1193 532 1186 539 l 208 539 l 208 865 l 1186 865 b 1207 886 1200 865 1207 872 l 1207 951 b 1186 972 1207 965 1200 972 l 110 972 b 90 953 96 972 90 967 l 90 19 b 110 0 90 6 96 0 l 1193 0 b 1214 21 1207 0 1214 7 l 1214 86 b 1193 107 1214 100 1207 107 z "},"Ě":{"ha":1290,"x_min":0,"x_max":0,"o":"m 582 1061 b 618 1042 594 1047 603 1042 l 697 1042 b 736 1061 713 1042 724 1046 l 881 1226 b 871 1250 892 1238 885 1250 l 800 1250 b 761 1226 783 1250 775 1244 l 667 1119 l 653 1119 l 558 1226 b 519 1250 543 1244 535 1250 l 447 1250 b 438 1226 433 1250 428 1238 z m 1193 107 l 208 107 l 208 433 l 1172 433 b 1193 454 1186 433 1193 440 l 1193 518 b 1172 539 1193 532 1186 539 l 208 539 l 208 865 l 1186 865 b 1207 886 1200 865 1207 872 l 1207 951 b 1186 972 1207 965 1200 972 l 110 972 b 90 953 96 972 90 967 l 90 19 b 110 0 90 6 96 0 l 1193 0 b 1214 21 1207 0 1214 7 l 1214 86 b 1193 107 1214 100 1207 107 z "},"Ȩ":{"ha":1290,"x_min":0,"x_max":0,"o":"m 1193 107 l 208 107 l 208 433 l 1172 433 b 1193 454 1186 433 1193 440 l 1193 518 b 1172 539 1193 532 1186 539 l 208 539 l 208 865 l 1186 865 b 1207 886 1200 865 1207 872 l 1207 951 b 1186 972 1207 965 1200 972 l 110 972 b 90 953 96 972 90 967 l 90 19 b 110 0 90 6 96 0 l 619 0 b 563 -82 579 -39 563 -58 b 618 -129 563 -114 588 -126 b 758 -172 725 -140 758 -143 b 700 -208 758 -201 742 -208 l 671 -208 b 613 -167 629 -208 615 -194 b 599 -156 613 -160 606 -156 l 535 -156 b 522 -171 525 -156 522 -161 b 643 -281 522 -239 551 -281 l 724 -281 b 850 -172 813 -281 850 -244 b 713 -65 850 -85 799 -75 b 725 0 676 -62 654 -57 l 1193 0 b 1214 21 1207 0 1214 7 l 1214 86 b 1193 107 1214 100 1207 107 z "},"Ê":{"ha":1290,"x_min":0,"x_max":0,"o":"m 447 1042 l 519 1042 b 558 1065 535 1042 543 1047 l 653 1172 l 667 1172 l 761 1065 b 800 1042 775 1047 783 1042 l 871 1042 b 881 1065 885 1042 892 1054 l 736 1232 b 697 1250 724 1246 713 1250 l 618 1250 b 582 1232 603 1250 594 1246 l 438 1065 b 447 1042 428 1054 433 1042 z m 1193 107 l 208 107 l 208 433 l 1172 433 b 1193 454 1186 433 1193 440 l 1193 518 b 1172 539 1193 532 1186 539 l 208 539 l 208 865 l 1186 865 b 1207 886 1200 865 1207 872 l 1207 951 b 1186 972 1207 965 1200 972 l 110 972 b 90 953 96 972 90 967 l 90 19 b 110 0 90 6 96 0 l 1193 0 b 1214 21 1207 0 1214 7 l 1214 86 b 1193 107 1214 100 1207 107 z "},"Ë":{"ha":1290,"x_min":0,"x_max":0,"o":"m 436 1129 l 519 1129 b 538 1147 533 1129 538 1133 l 538 1231 b 519 1250 538 1244 533 1250 l 436 1250 b 417 1231 422 1250 417 1244 l 417 1147 b 436 1129 417 1133 422 1129 z m 769 1129 l 853 1129 b 872 1147 867 1129 872 1133 l 872 1231 b 853 1250 872 1244 867 1250 l 769 1250 b 751 1231 756 1250 751 1244 l 751 1147 b 769 1129 751 1133 756 1129 z m 1193 107 l 208 107 l 208 433 l 1172 433 b 1193 454 1186 433 1193 440 l 1193 518 b 1172 539 1193 532 1186 539 l 208 539 l 208 865 l 1186 865 b 1207 886 1200 865 1207 872 l 1207 951 b 1186 972 1207 965 1200 972 l 110 972 b 90 953 96 972 90 967 l 90 19 b 110 0 90 6 96 0 l 1193 0 b 1214 21 1207 0 1214 7 l 1214 86 b 1193 107 1214 100 1207 107 z "},"Ė":{"ha":1290,"x_min":0,"x_max":0,"o":"m 618 1129 l 701 1129 b 719 1147 715 1129 719 1133 l 719 1231 b 701 1250 719 1244 715 1250 l 618 1250 b 599 1231 604 1250 599 1244 l 599 1147 b 618 1129 599 1133 604 1129 z m 1193 107 l 208 107 l 208 433 l 1172 433 b 1193 454 1186 433 1193 440 l 1193 518 b 1172 539 1193 532 1186 539 l 208 539 l 208 865 l 1186 865 b 1207 886 1200 865 1207 872 l 1207 951 b 1186 972 1207 965 1200 972 l 110 972 b 90 953 96 972 90 967 l 90 19 b 110 0 90 6 96 0 l 1193 0 b 1214 21 1207 0 1214 7 l 1214 86 b 1193 107 1214 100 1207 107 z "},"È":{"ha":1290,"x_min":0,"x_max":0,"o":"m 594 1064 b 626 1040 606 1049 613 1040 l 690 1040 b 703 1065 706 1040 713 1050 l 617 1225 b 588 1250 607 1242 601 1250 l 483 1250 b 469 1225 468 1250 457 1240 z m 1193 107 l 208 107 l 208 433 l 1172 433 b 1193 454 1186 433 1193 440 l 1193 518 b 1172 539 1193 532 1186 539 l 208 539 l 208 865 l 1186 865 b 1207 886 1200 865 1207 872 l 1207 951 b 1186 972 1207 965 1200 972 l 110 972 b 90 953 96 972 90 967 l 90 19 b 110 0 90 6 96 0 l 1193 0 b 1214 21 1207 0 1214 7 l 1214 86 b 1193 107 1214 100 1207 107 z "},"Ē":{"ha":1290,"x_min":0,"x_max":0,"o":"m 435 1144 l 885 1144 b 906 1165 897 1144 906 1151 l 906 1229 b 885 1250 906 1243 897 1250 l 435 1250 b 414 1229 421 1250 414 1243 l 414 1165 b 435 1144 414 1151 421 1144 z m 1193 107 l 208 107 l 208 433 l 1172 433 b 1193 454 1186 433 1193 440 l 1193 518 b 1172 539 1193 532 1186 539 l 208 539 l 208 865 l 1186 865 b 1207 886 1200 865 1207 872 l 1207 951 b 1186 972 1207 965 1200 972 l 110 972 b 90 953 96 972 90 967 l 90 19 b 110 0 90 6 96 0 l 1193 0 b 1214 21 1207 0 1214 7 l 1214 86 b 1193 107 1214 100 1207 107 z "},"Ę":{"ha":1290,"x_min":0,"x_max":0,"o":"m 1193 107 l 208 107 l 208 433 l 1172 433 b 1193 454 1186 433 1193 440 l 1193 518 b 1172 539 1193 532 1186 539 l 208 539 l 208 865 l 1186 865 b 1207 886 1200 865 1207 872 l 1207 951 b 1186 972 1207 965 1200 972 l 110 972 b 90 953 96 972 90 967 l 90 19 b 110 0 90 6 96 0 l 1100 0 b 1056 -39 1100 -29 1092 -36 l 999 -46 b 889 -151 917 -56 889 -65 b 1019 -264 889 -239 917 -264 l 1182 -264 b 1196 -250 1192 -264 1196 -258 l 1196 -200 b 1182 -185 1196 -190 1190 -185 l 1039 -185 b 993 -149 1001 -185 993 -176 b 1021 -117 993 -122 1000 -119 l 1138 -103 b 1214 -21 1193 -96 1214 -83 l 1214 86 b 1193 107 1214 100 1207 107 z "},"F":{"ha":1283,"x_min":0,"x_max":0,"o":"m 1186 972 l 110 972 b 90 953 96 972 90 967 l 90 19 b 110 0 90 6 96 0 l 188 0 b 208 19 201 0 208 6 l 208 440 l 1172 440 b 1193 461 1186 440 1193 447 l 1193 526 b 1172 547 1193 540 1186 547 l 208 547 l 208 865 l 1186 865 b 1207 886 1200 865 1207 872 l 1207 951 b 1186 972 1207 965 1200 972 z "},"G":{"ha":1406,"x_min":0,"x_max":0,"o":"m 339 -6 l 1076 -6 b 1329 243 1249 -6 1329 79 l 1329 458 b 1306 482 1329 471 1321 482 l 785 482 b 763 458 769 482 763 474 l 763 399 b 785 375 763 383 769 375 l 1211 375 l 1211 256 b 1056 101 1211 146 1165 101 l 360 101 b 201 256 250 101 201 146 l 201 717 b 360 871 201 826 250 871 l 1051 871 b 1208 717 1163 871 1208 826 l 1208 690 b 1226 672 1208 678 1214 672 l 1310 672 b 1326 690 1322 672 1326 678 l 1326 729 b 1075 978 1326 893 1247 978 l 339 978 b 83 729 167 978 83 893 l 83 243 b 339 -6 83 79 167 -6 z "},"Ğ":{"ha":1406,"x_min":0,"x_max":0,"o":"m 671 1051 l 736 1051 b 908 1232 853 1051 908 1111 b 889 1250 908 1244 903 1250 l 833 1250 b 814 1232 819 1250 814 1244 b 724 1135 811 1178 786 1135 l 682 1135 b 592 1232 619 1135 594 1178 b 574 1250 592 1244 588 1250 l 517 1250 b 497 1232 503 1250 497 1244 b 671 1051 497 1111 554 1051 z m 339 -6 l 1076 -6 b 1329 243 1249 -6 1329 79 l 1329 458 b 1306 482 1329 471 1321 482 l 785 482 b 763 458 769 482 763 474 l 763 399 b 785 375 763 383 769 375 l 1211 375 l 1211 256 b 1056 101 1211 146 1165 101 l 360 101 b 201 256 250 101 201 146 l 201 717 b 360 871 201 826 250 871 l 1051 871 b 1208 717 1163 871 1208 826 l 1208 690 b 1226 672 1208 678 1214 672 l 1310 672 b 1326 690 1322 672 1326 678 l 1326 729 b 1075 978 1326 893 1247 978 l 339 978 b 83 729 167 978 83 893 l 83 243 b 339 -6 83 79 167 -6 z "},"Ǧ":{"ha":1406,"x_min":0,"x_max":0,"o":"m 663 1042 l 742 1042 b 781 1061 757 1042 768 1046 l 925 1226 b 915 1250 936 1238 929 1250 l 844 1250 b 806 1226 828 1250 819 1244 l 711 1119 l 697 1119 l 603 1226 b 564 1250 588 1244 579 1250 l 492 1250 b 482 1226 478 1250 472 1238 l 626 1061 b 663 1042 639 1047 647 1042 z m 339 -6 l 1076 -6 b 1329 243 1249 -6 1329 79 l 1329 458 b 1306 482 1329 471 1321 482 l 785 482 b 763 458 769 482 763 474 l 763 399 b 785 375 763 383 769 375 l 1211 375 l 1211 256 b 1056 101 1211 146 1165 101 l 360 101 b 201 256 250 101 201 146 l 201 717 b 360 871 201 826 250 871 l 1051 871 b 1208 717 1163 871 1208 826 l 1208 690 b 1226 672 1208 678 1214 672 l 1310 672 b 1326 690 1322 672 1326 678 l 1326 729 b 1075 978 1326 893 1247 978 l 339 978 b 83 729 167 978 83 893 l 83 243 b 339 -6 83 79 167 -6 z "},"Ģ":{"ha":1406,"x_min":0,"x_max":0,"o":"m 339 -6 l 1076 -6 b 1329 243 1249 -6 1329 79 l 1329 458 b 1306 482 1329 471 1321 482 l 785 482 b 763 458 769 482 763 474 l 763 399 b 785 375 763 383 769 375 l 1211 375 l 1211 256 b 1056 101 1211 146 1165 101 l 360 101 b 201 256 250 101 201 146 l 201 717 b 360 871 201 826 250 871 l 1051 871 b 1208 717 1163 871 1208 826 l 1208 690 b 1226 672 1208 678 1214 672 l 1310 672 b 1326 690 1322 672 1326 678 l 1326 729 b 1075 978 1326 893 1247 978 l 339 978 b 83 729 167 978 83 893 l 83 243 b 339 -6 83 79 167 -6 z m 733 -83 l 671 -83 b 651 -103 657 -83 651 -89 l 651 -314 l 604 -314 b 585 -333 590 -314 585 -319 l 585 -390 b 604 -410 585 -404 590 -410 l 714 -410 b 753 -371 740 -410 753 -397 l 753 -103 b 733 -83 753 -89 747 -83 z "},"Ġ":{"ha":1406,"x_min":0,"x_max":0,"o":"m 661 1129 l 744 1129 b 763 1147 758 1129 763 1133 l 763 1231 b 744 1250 763 1244 758 1250 l 661 1250 b 642 1231 647 1250 642 1244 l 642 1147 b 661 1129 642 1133 647 1129 z m 339 -6 l 1076 -6 b 1329 243 1249 -6 1329 79 l 1329 458 b 1306 482 1329 471 1321 482 l 785 482 b 763 458 769 482 763 474 l 763 399 b 785 375 763 383 769 375 l 1211 375 l 1211 256 b 1056 101 1211 146 1165 101 l 360 101 b 201 256 250 101 201 146 l 201 717 b 360 871 201 826 250 871 l 1051 871 b 1208 717 1163 871 1208 826 l 1208 690 b 1226 672 1208 678 1214 672 l 1310 672 b 1326 690 1322 672 1326 678 l 1326 729 b 1075 978 1326 893 1247 978 l 339 978 b 83 729 167 978 83 893 l 83 243 b 339 -6 83 79 167 -6 z "},"H":{"ha":1350,"x_min":0,"x_max":0,"o":"m 1240 972 l 1163 972 b 1142 953 1149 972 1142 967 l 1142 539 l 208 539 l 208 953 b 188 972 208 967 201 972 l 110 972 b 90 953 96 972 90 967 l 90 19 b 110 0 90 6 96 0 l 188 0 b 208 19 201 0 208 6 l 208 433 l 1142 433 l 1142 19 b 1163 0 1142 6 1149 0 l 1240 0 b 1260 19 1254 0 1260 6 l 1260 953 b 1240 972 1260 967 1254 972 z "},"Ħ":{"ha":1350,"x_min":0,"x_max":0,"o":"m 1240 972 l 1163 972 b 1142 953 1149 972 1142 967 l 1142 771 l 208 771 l 208 953 b 188 972 208 967 201 972 l 110 972 b 90 953 96 972 90 967 l 90 19 b 110 0 90 6 96 0 l 188 0 b 208 19 201 0 208 6 l 208 433 l 1142 433 l 1142 19 b 1163 0 1142 6 1149 0 l 1240 0 b 1260 19 1254 0 1260 6 l 1260 953 b 1240 972 1260 967 1254 972 z m 208 539 l 208 664 l 1142 664 l 1142 539 z "},"I":{"ha":299,"x_min":0,"x_max":0,"o":"m 90 953 l 90 19 b 110 0 90 6 96 0 l 188 0 b 208 19 201 0 208 6 l 208 953 b 188 972 208 967 201 972 l 110 972 b 90 953 96 972 90 967 z "},"Ĳ":{"ha":1644,"x_min":0,"x_max":0,"o":"m 90 953 l 90 19 b 110 0 90 6 96 0 l 188 0 b 208 19 201 0 208 6 l 208 953 b 188 972 208 967 201 972 l 110 972 b 90 953 96 972 90 967 z m 394 0 l 1300 0 b 1554 249 1472 0 1554 85 l 1554 953 b 1535 972 1554 967 1549 972 l 1457 972 b 1436 953 1443 972 1436 967 l 1436 261 b 1281 107 1436 151 1390 107 l 394 107 b 375 86 381 107 375 100 l 375 19 b 394 0 375 6 381 0 z "},"Í":{"ha":299,"x_min":0,"x_max":0,"o":"m 193 1225 l 106 1065 b 115 1040 96 1050 101 1040 l 181 1040 b 214 1065 194 1040 203 1050 l 339 1225 b 332 1250 351 1240 347 1250 l 225 1250 b 193 1225 211 1250 203 1242 z m 90 953 l 90 19 b 110 0 90 6 96 0 l 188 0 b 208 19 201 0 208 6 l 208 953 b 188 972 208 967 201 972 l 110 972 b 90 953 96 972 90 967 z "},"Ǐ":{"ha":299,"x_min":0,"x_max":0,"o":"m 108 1042 l 188 1042 b 226 1061 203 1042 214 1046 l 371 1226 b 361 1250 382 1238 375 1250 l 290 1250 b 251 1226 274 1250 265 1244 l 157 1119 l 143 1119 l 49 1226 b 10 1250 33 1244 25 1250 l -62 1250 b -72 1226 -76 1250 -82 1238 l 72 1061 b 108 1042 85 1047 93 1042 z m 90 953 l 90 19 b 110 0 90 6 96 0 l 188 0 b 208 19 201 0 208 6 l 208 953 b 188 972 208 967 201 972 l 110 972 b 90 953 96 972 90 967 z "},"Î":{"ha":299,"x_min":0,"x_max":0,"o":"m 108 1250 b 72 1232 93 1250 85 1246 l -72 1065 b -62 1042 -82 1054 -76 1042 l 10 1042 b 49 1065 25 1042 33 1047 l 143 1172 l 157 1172 l 251 1065 b 290 1042 265 1047 274 1042 l 361 1042 b 371 1065 375 1042 382 1054 l 226 1232 b 188 1250 214 1246 203 1250 z m 90 953 l 90 19 b 110 0 90 6 96 0 l 188 0 b 208 19 201 0 208 6 l 208 953 b 188 972 208 967 201 972 l 110 972 b 90 953 96 972 90 967 z "},"Ï":{"ha":299,"x_min":0,"x_max":0,"o":"m -74 1129 l 10 1129 b 28 1147 24 1129 28 1133 l 28 1231 b 10 1250 28 1244 24 1250 l -74 1250 b -93 1231 -87 1250 -93 1244 l -93 1147 b -74 1129 -93 1133 -87 1129 z m 260 1129 l 343 1129 b 363 1147 357 1129 363 1133 l 363 1231 b 343 1250 363 1244 357 1250 l 260 1250 b 242 1231 246 1250 242 1244 l 242 1147 b 260 1129 242 1133 246 1129 z m 90 953 l 90 19 b 110 0 90 6 96 0 l 188 0 b 208 19 201 0 208 6 l 208 953 b 188 972 208 967 201 972 l 110 972 b 90 953 96 972 90 967 z "},"İ":{"ha":299,"x_min":0,"x_max":0,"o":"m 107 1129 l 190 1129 b 208 1147 204 1129 208 1133 l 208 1231 b 190 1250 208 1244 204 1250 l 107 1250 b 88 1231 93 1250 88 1244 l 88 1147 b 107 1129 88 1133 93 1129 z m 90 953 l 90 19 b 110 0 90 6 96 0 l 188 0 b 208 19 201 0 208 6 l 208 953 b 188 972 208 967 201 972 l 110 972 b 90 953 96 972 90 967 z "},"Ì":{"ha":299,"x_min":0,"x_max":0,"o":"m 107 1225 b 78 1250 97 1242 92 1250 l -26 1250 b -40 1225 -42 1250 -53 1240 l 85 1064 b 117 1040 96 1049 103 1040 l 181 1040 b 193 1065 196 1040 203 1050 z m 90 953 l 90 19 b 110 0 90 6 96 0 l 188 0 b 208 19 201 0 208 6 l 208 953 b 188 972 208 967 201 972 l 110 972 b 90 953 96 972 90 967 z "},"Ī":{"ha":299,"x_min":0,"x_max":0,"o":"m -76 1144 l 374 1144 b 394 1165 386 1144 394 1151 l 394 1229 b 374 1250 394 1243 386 1250 l -76 1250 b -97 1229 -90 1250 -97 1243 l -97 1165 b -76 1144 -97 1151 -90 1144 z m 90 953 l 90 19 b 110 0 90 6 96 0 l 188 0 b 208 19 201 0 208 6 l 208 953 b 188 972 208 967 201 972 l 110 972 b 90 953 96 972 90 967 z "},"Į":{"ha":300,"x_min":0,"x_max":0,"o":"m 190 972 l 113 972 b 92 953 99 972 92 967 l 92 -19 b 49 -58 92 -49 85 -56 l -8 -65 b -117 -171 -90 -75 -117 -85 b 14 -283 -117 -258 -89 -283 l 176 -283 b 190 -269 186 -283 190 -278 l 190 -219 b 176 -204 190 -210 185 -204 l 33 -204 b -14 -168 -4 -204 -14 -196 b 15 -136 -14 -142 -6 -139 l 133 -122 b 210 -40 189 -117 210 -103 l 210 953 b 190 972 210 967 204 972 z "},"J":{"ha":1346,"x_min":0,"x_max":0,"o":"m 96 0 l 1001 0 b 1256 249 1174 0 1256 85 l 1256 953 b 1236 972 1256 967 1250 972 l 1158 972 b 1138 953 1144 972 1138 967 l 1138 261 b 982 107 1138 151 1092 107 l 96 107 b 76 86 82 107 76 100 l 76 19 b 96 0 76 6 82 0 z "},"K":{"ha":1344,"x_min":0,"x_max":0,"o":"m 1288 29 l 613 553 l 1256 943 b 1250 972 1272 953 1265 972 l 1135 972 b 1089 956 1117 972 1103 964 l 208 426 l 208 953 b 188 972 208 967 201 972 l 110 972 b 90 953 96 972 90 967 l 90 19 b 110 0 90 6 96 0 l 188 0 b 208 19 201 0 208 6 l 208 307 l 517 494 l 1129 21 b 1174 0 1144 8 1157 0 l 1279 0 b 1288 29 1297 0 1301 19 z "},"Ķ":{"ha":1344,"x_min":0,"x_max":0,"o":"m 1288 29 l 613 553 l 1256 943 b 1250 972 1272 953 1265 972 l 1135 972 b 1089 956 1117 972 1103 964 l 208 426 l 208 953 b 188 972 208 967 201 972 l 110 972 b 90 953 96 972 90 967 l 90 19 b 110 0 90 6 96 0 l 188 0 b 208 19 201 0 208 6 l 208 307 l 517 494 l 1129 21 b 1174 0 1144 8 1157 0 l 1279 0 b 1288 29 1297 0 1301 19 z m 701 -83 l 639 -83 b 619 -103 625 -83 619 -89 l 619 -314 l 572 -314 b 553 -333 558 -314 553 -319 l 553 -390 b 572 -410 553 -404 558 -410 l 682 -410 b 721 -371 708 -410 721 -397 l 721 -103 b 701 -83 721 -89 715 -83 z "},"L":{"ha":1275,"x_min":0,"x_max":0,"o":"m 1186 107 l 208 107 l 208 953 b 188 972 208 967 201 972 l 110 972 b 90 953 96 972 90 967 l 90 19 b 110 0 90 6 96 0 l 1186 0 b 1206 19 1200 0 1206 6 l 1206 86 b 1186 107 1206 100 1200 107 z "},"Ĺ":{"ha":1275,"x_min":0,"x_max":0,"o":"m 113 1040 l 178 1040 b 211 1065 192 1040 200 1050 l 336 1225 b 329 1250 349 1240 344 1250 l 222 1250 b 190 1225 208 1250 200 1242 l 103 1065 b 113 1040 93 1050 99 1040 z m 1186 107 l 208 107 l 208 953 b 188 972 208 967 201 972 l 110 972 b 90 953 96 972 90 967 l 90 19 b 110 0 90 6 96 0 l 1186 0 b 1206 19 1200 0 1206 6 l 1206 86 b 1186 107 1206 100 1200 107 z "},"Ľ":{"ha":1275,"x_min":0,"x_max":0,"o":"m 1186 107 l 208 107 l 208 953 b 188 972 208 967 201 972 l 110 972 b 90 953 96 972 90 967 l 90 19 b 110 0 90 6 96 0 l 1186 0 b 1206 19 1200 0 1206 6 l 1206 86 b 1186 107 1206 100 1200 107 z m 331 646 l 440 646 b 481 685 468 646 481 658 l 481 953 b 461 972 481 967 475 972 l 397 972 b 379 953 383 972 379 967 l 379 742 l 331 742 b 313 722 317 742 313 736 l 313 665 b 331 646 313 651 317 646 z "},"Ļ":{"ha":1275,"x_min":0,"x_max":0,"o":"m 1186 107 l 208 107 l 208 953 b 188 972 208 967 201 972 l 110 972 b 90 953 96 972 90 967 l 90 19 b 110 0 90 6 96 0 l 1186 0 b 1206 19 1200 0 1206 6 l 1206 86 b 1186 107 1206 100 1200 107 z m 668 -83 l 606 -83 b 586 -103 592 -83 586 -89 l 586 -314 l 539 -314 b 519 -333 525 -314 519 -319 l 519 -390 b 539 -410 519 -404 525 -410 l 649 -410 b 688 -371 675 -410 688 -397 l 688 -103 b 668 -83 688 -89 682 -83 z "},"Ŀ":{"ha":1275,"x_min":0,"x_max":0,"o":"m 1186 107 l 208 107 l 208 953 b 188 972 208 967 201 972 l 110 972 b 90 953 96 972 90 967 l 90 19 b 110 0 90 6 96 0 l 1186 0 b 1206 19 1200 0 1206 6 l 1206 86 b 1186 107 1206 100 1200 107 z m 496 401 l 578 401 b 597 421 592 401 597 407 l 597 504 b 578 522 597 518 592 522 l 496 522 b 476 504 482 522 476 518 l 476 421 b 496 401 476 407 482 401 z "},"Ł":{"ha":1314,"x_min":0,"x_max":0,"o":"m 1225 107 l 247 107 l 247 393 l 449 629 b 436 653 460 643 453 653 l 349 653 b 317 631 338 653 332 649 l 247 549 l 247 953 b 226 972 247 967 240 972 l 149 972 b 129 953 135 972 129 967 l 129 411 l -26 229 b -12 206 -37 215 -29 206 l 75 206 b 107 228 86 206 92 210 l 129 254 l 129 19 b 149 0 129 6 135 0 l 1225 0 b 1244 19 1239 0 1244 6 l 1244 86 b 1225 107 1244 100 1239 107 z "},"M":{"ha":1579,"x_min":0,"x_max":0,"o":"m 110 0 l 188 0 b 208 19 201 0 208 6 l 208 829 l 221 829 l 721 19 b 749 0 729 6 736 0 l 831 0 b 858 19 843 0 850 6 l 1358 829 l 1371 829 l 1371 19 b 1392 0 1371 6 1378 0 l 1469 0 b 1489 19 1483 0 1489 6 l 1489 953 b 1469 972 1489 967 1483 972 l 1335 972 b 1307 951 1321 972 1315 965 l 797 128 l 782 128 l 272 951 b 244 972 264 965 258 972 l 110 972 b 90 953 96 972 90 967 l 90 19 b 110 0 90 6 96 0 z "},"Ḿ":{"ha":1579,"x_min":0,"x_max":0,"o":"m 835 1225 l 747 1065 b 757 1040 738 1050 743 1040 l 822 1040 b 856 1065 836 1040 844 1050 l 981 1225 b 974 1250 993 1240 989 1250 l 867 1250 b 835 1225 853 1250 844 1242 z m 110 0 l 188 0 b 208 19 201 0 208 6 l 208 829 l 221 829 l 721 19 b 749 0 729 6 736 0 l 831 0 b 858 19 843 0 850 6 l 1358 829 l 1371 829 l 1371 19 b 1392 0 1371 6 1378 0 l 1469 0 b 1489 19 1483 0 1489 6 l 1489 953 b 1469 972 1489 967 1483 972 l 1335 972 b 1307 951 1321 972 1315 965 l 797 128 l 782 128 l 272 951 b 244 972 264 965 258 972 l 110 972 b 90 953 96 972 90 967 l 90 19 b 110 0 90 6 96 0 z "},"N":{"ha":1364,"x_min":0,"x_max":0,"o":"m 110 0 l 188 0 b 208 19 201 0 208 6 l 208 842 l 219 842 l 1111 14 b 1139 0 1121 6 1126 0 l 1254 0 b 1274 19 1268 0 1274 6 l 1274 953 b 1254 972 1274 967 1268 972 l 1176 972 b 1156 953 1163 972 1156 967 l 1156 131 l 1144 131 l 253 958 b 225 972 243 967 238 972 l 110 972 b 90 953 96 972 90 967 l 90 19 b 110 0 90 6 96 0 z "},"Ń":{"ha":1364,"x_min":0,"x_max":0,"o":"m 726 1225 l 639 1065 b 649 1040 629 1050 635 1040 l 714 1040 b 747 1065 728 1040 736 1050 l 872 1225 b 865 1250 885 1240 881 1250 l 758 1250 b 726 1225 744 1250 736 1242 z m 110 0 l 188 0 b 208 19 201 0 208 6 l 208 842 l 219 842 l 1111 14 b 1139 0 1121 6 1126 0 l 1254 0 b 1274 19 1268 0 1274 6 l 1274 953 b 1254 972 1274 967 1268 972 l 1176 972 b 1156 953 1163 972 1156 967 l 1156 131 l 1144 131 l 253 958 b 225 972 243 967 238 972 l 110 972 b 90 953 96 972 90 967 l 90 19 b 110 0 90 6 96 0 z "},"Ň":{"ha":1364,"x_min":0,"x_max":0,"o":"m 642 1042 l 721 1042 b 760 1061 736 1042 747 1046 l 904 1226 b 894 1250 915 1238 908 1250 l 824 1250 b 785 1226 807 1250 799 1244 l 690 1119 l 676 1119 l 582 1226 b 543 1250 567 1244 558 1250 l 471 1250 b 461 1226 457 1250 451 1238 l 606 1061 b 642 1042 618 1047 626 1042 z m 110 0 l 188 0 b 208 19 201 0 208 6 l 208 842 l 219 842 l 1111 14 b 1139 0 1121 6 1126 0 l 1254 0 b 1274 19 1268 0 1274 6 l 1274 953 b 1254 972 1274 967 1268 972 l 1176 972 b 1156 953 1163 972 1156 967 l 1156 131 l 1144 131 l 253 958 b 225 972 243 967 238 972 l 110 972 b 90 953 96 972 90 967 l 90 19 b 110 0 90 6 96 0 z "},"Ņ":{"ha":1364,"x_min":0,"x_max":0,"o":"m 110 0 l 188 0 b 208 19 201 0 208 6 l 208 842 l 219 842 l 1111 14 b 1139 0 1121 6 1126 0 l 1254 0 b 1274 19 1268 0 1274 6 l 1274 953 b 1254 972 1274 967 1268 972 l 1176 972 b 1156 953 1163 972 1156 967 l 1156 131 l 1144 131 l 253 958 b 225 972 243 967 238 972 l 110 972 b 90 953 96 972 90 967 l 90 19 b 110 0 90 6 96 0 z m 713 -83 l 650 -83 b 631 -103 636 -83 631 -89 l 631 -314 l 583 -314 b 564 -333 569 -314 564 -319 l 564 -390 b 583 -410 564 -404 569 -410 l 693 -410 b 732 -371 719 -410 732 -397 l 732 -103 b 713 -83 732 -89 726 -83 z "},"Ŋ":{"ha":1364,"x_min":0,"x_max":0,"o":"m 1254 972 l 1176 972 b 1156 953 1163 972 1156 967 l 1156 131 l 1144 131 l 253 958 b 225 972 243 967 238 972 l 110 972 b 90 953 96 972 90 967 l 90 19 b 110 0 90 6 96 0 l 188 0 b 208 19 201 0 208 6 l 208 842 l 219 842 l 1111 14 b 1139 0 1121 6 1126 0 l 1156 0 l 1156 -17 b 1000 -171 1156 -126 1110 -171 l 110 -171 b 90 -192 96 -171 90 -178 l 90 -258 b 110 -278 90 -272 96 -278 l 1019 -278 b 1274 -29 1192 -278 1274 -193 l 1274 953 b 1254 972 1274 967 1268 972 z "},"Ñ":{"ha":1364,"x_min":0,"x_max":0,"o":"m 781 1094 b 903 1135 822 1094 861 1106 b 914 1160 914 1142 919 1149 l 890 1215 b 868 1221 886 1224 879 1228 b 786 1194 835 1201 815 1194 b 585 1257 708 1194 678 1257 b 463 1217 543 1257 504 1246 b 451 1192 451 1210 447 1201 l 475 1136 b 499 1131 479 1126 486 1124 b 581 1157 531 1150 551 1157 b 781 1094 657 1157 688 1094 z m 110 0 l 188 0 b 208 19 201 0 208 6 l 208 842 l 219 842 l 1111 14 b 1139 0 1121 6 1126 0 l 1254 0 b 1274 19 1268 0 1274 6 l 1274 953 b 1254 972 1274 967 1268 972 l 1176 972 b 1156 953 1163 972 1156 967 l 1156 131 l 1144 131 l 253 958 b 225 972 243 967 238 972 l 110 972 b 90 953 96 972 90 967 l 90 19 b 110 0 90 6 96 0 z "},"O":{"ha":1413,"x_min":0,"x_max":0,"o":"m 339 -6 l 1074 -6 b 1329 243 1246 -6 1329 79 l 1329 729 b 1074 978 1329 893 1246 978 l 339 978 b 83 729 167 978 83 893 l 83 243 b 339 -6 83 79 167 -6 z m 360 101 b 201 256 250 101 201 146 l 201 717 b 360 871 201 826 250 871 l 1053 871 b 1211 717 1163 871 1211 826 l 1211 256 b 1053 101 1211 146 1163 101 z "},"Ó":{"ha":1413,"x_min":0,"x_max":0,"o":"m 750 1225 l 663 1065 b 672 1040 653 1050 658 1040 l 738 1040 b 771 1065 751 1040 760 1050 l 896 1225 b 889 1250 908 1240 904 1250 l 782 1250 b 750 1225 768 1250 760 1242 z m 339 -6 l 1074 -6 b 1329 243 1246 -6 1329 79 l 1329 729 b 1074 978 1329 893 1246 978 l 339 978 b 83 729 167 978 83 893 l 83 243 b 339 -6 83 79 167 -6 z m 360 101 b 201 256 250 101 201 146 l 201 717 b 360 871 201 826 250 871 l 1053 871 b 1211 717 1163 871 1211 826 l 1211 256 b 1053 101 1211 146 1163 101 z "},"Ǒ":{"ha":1413,"x_min":0,"x_max":0,"o":"m 665 1042 l 744 1042 b 783 1061 760 1042 771 1046 l 928 1226 b 918 1250 939 1238 932 1250 l 847 1250 b 808 1226 831 1250 822 1244 l 714 1119 l 700 1119 l 606 1226 b 567 1250 590 1244 582 1250 l 494 1250 b 485 1226 481 1250 475 1238 l 629 1061 b 665 1042 642 1047 650 1042 z m 339 -6 l 1074 -6 b 1329 243 1246 -6 1329 79 l 1329 729 b 1074 978 1329 893 1246 978 l 339 978 b 83 729 167 978 83 893 l 83 243 b 339 -6 83 79 167 -6 z m 360 101 b 201 256 250 101 201 146 l 201 717 b 360 871 201 826 250 871 l 1053 871 b 1211 717 1163 871 1211 826 l 1211 256 b 1053 101 1211 146 1163 101 z "},"Ô":{"ha":1413,"x_min":0,"x_max":0,"o":"m 665 1250 b 629 1232 650 1250 642 1246 l 485 1065 b 494 1042 475 1054 481 1042 l 567 1042 b 606 1065 582 1042 590 1047 l 700 1172 l 714 1172 l 808 1065 b 847 1042 822 1047 831 1042 l 918 1042 b 928 1065 932 1042 939 1054 l 783 1232 b 744 1250 771 1246 760 1250 z m 339 -6 l 1074 -6 b 1329 243 1246 -6 1329 79 l 1329 729 b 1074 978 1329 893 1246 978 l 339 978 b 83 729 167 978 83 893 l 83 243 b 339 -6 83 79 167 -6 z m 360 101 b 201 256 250 101 201 146 l 201 717 b 360 871 201 826 250 871 l 1053 871 b 1211 717 1163 871 1211 826 l 1211 256 b 1053 101 1211 146 1163 101 z "},"Ö":{"ha":1413,"x_min":0,"x_max":0,"o":"m 483 1129 l 567 1129 b 585 1147 581 1129 585 1133 l 585 1231 b 567 1250 585 1244 581 1250 l 483 1250 b 464 1231 469 1250 464 1244 l 464 1147 b 483 1129 464 1133 469 1129 z m 817 1129 l 900 1129 b 919 1147 914 1129 919 1133 l 919 1231 b 900 1250 919 1244 914 1250 l 817 1250 b 799 1231 803 1250 799 1244 l 799 1147 b 817 1129 799 1133 803 1129 z m 339 -6 l 1074 -6 b 1329 243 1246 -6 1329 79 l 1329 729 b 1074 978 1329 893 1246 978 l 339 978 b 83 729 167 978 83 893 l 83 243 b 339 -6 83 79 167 -6 z m 360 101 b 201 256 250 101 201 146 l 201 717 b 360 871 201 826 250 871 l 1053 871 b 1211 717 1163 871 1211 826 l 1211 256 b 1053 101 1211 146 1163 101 z "},"Ò":{"ha":1413,"x_min":0,"x_max":0,"o":"m 664 1225 b 635 1250 654 1242 649 1250 l 531 1250 b 517 1225 515 1250 504 1240 l 642 1064 b 674 1040 653 1049 660 1040 l 738 1040 b 750 1065 753 1040 760 1050 z m 339 -6 l 1074 -6 b 1329 243 1246 -6 1329 79 l 1329 729 b 1074 978 1329 893 1246 978 l 339 978 b 83 729 167 978 83 893 l 83 243 b 339 -6 83 79 167 -6 z m 360 101 b 201 256 250 101 201 146 l 201 717 b 360 871 201 826 250 871 l 1053 871 b 1211 717 1163 871 1211 826 l 1211 256 b 1053 101 1211 146 1163 101 z "},"Ő":{"ha":1413,"x_min":0,"x_max":0,"o":"m 644 1225 l 557 1065 b 567 1040 547 1050 553 1040 l 632 1040 b 665 1065 646 1040 654 1050 l 790 1225 b 783 1250 803 1240 799 1250 l 676 1250 b 644 1225 663 1250 654 1242 z m 857 1225 l 768 1065 b 779 1040 758 1050 764 1040 l 843 1040 b 876 1065 857 1040 865 1050 l 1003 1225 b 996 1250 1015 1240 1010 1250 l 888 1250 b 857 1225 874 1250 865 1242 z m 339 -6 l 1074 -6 b 1329 243 1246 -6 1329 79 l 1329 729 b 1074 978 1329 893 1246 978 l 339 978 b 83 729 167 978 83 893 l 83 243 b 339 -6 83 79 167 -6 z m 360 101 b 201 256 250 101 201 146 l 201 717 b 360 871 201 826 250 871 l 1053 871 b 1211 717 1163 871 1211 826 l 1211 256 b 1053 101 1211 146 1163 101 z "},"Ō":{"ha":1413,"x_min":0,"x_max":0,"o":"m 482 1144 l 932 1144 b 953 1165 944 1144 953 1151 l 953 1229 b 932 1250 953 1243 944 1250 l 482 1250 b 461 1229 468 1250 461 1243 l 461 1165 b 482 1144 461 1151 468 1144 z m 339 -6 l 1074 -6 b 1329 243 1246 -6 1329 79 l 1329 729 b 1074 978 1329 893 1246 978 l 339 978 b 83 729 167 978 83 893 l 83 243 b 339 -6 83 79 167 -6 z m 360 101 b 201 256 250 101 201 146 l 201 717 b 360 871 201 826 250 871 l 1053 871 b 1211 717 1163 871 1211 826 l 1211 256 b 1053 101 1211 146 1163 101 z "},"Ø":{"ha":1413,"x_min":0,"x_max":0,"o":"m 1074 978 l 975 978 l 983 999 b 971 1019 989 1013 985 1019 l 893 1019 b 867 999 879 1019 872 1013 l 858 978 l 339 978 b 83 729 167 978 83 893 l 83 243 b 339 -6 83 79 167 -6 l 438 -6 l 429 -26 b 443 -49 424 -40 429 -49 l 521 -49 b 547 -28 535 -49 542 -42 l 557 -6 l 1074 -6 b 1329 243 1246 -6 1329 79 l 1329 729 b 1074 978 1329 893 1246 978 z m 360 101 b 201 256 250 101 201 146 l 201 717 b 360 871 201 826 250 871 l 813 871 l 483 101 z m 1211 256 b 1053 101 1211 146 1163 101 l 603 101 l 929 871 l 1053 871 b 1211 717 1163 871 1211 826 z "},"Õ":{"ha":1413,"x_min":0,"x_max":0,"o":"m 804 1094 b 926 1135 846 1094 885 1106 b 938 1160 938 1142 943 1149 l 914 1215 b 892 1221 910 1224 903 1228 b 810 1194 858 1201 839 1194 b 608 1257 732 1194 701 1257 b 486 1217 567 1257 528 1246 b 475 1192 475 1210 471 1201 l 499 1136 b 522 1131 503 1126 510 1124 b 604 1157 554 1150 575 1157 b 804 1094 681 1157 711 1094 z m 339 -6 l 1074 -6 b 1329 243 1246 -6 1329 79 l 1329 729 b 1074 978 1329 893 1246 978 l 339 978 b 83 729 167 978 83 893 l 83 243 b 339 -6 83 79 167 -6 z m 360 101 b 201 256 250 101 201 146 l 201 717 b 360 871 201 826 250 871 l 1053 871 b 1211 717 1163 871 1211 826 l 1211 256 b 1053 101 1211 146 1163 101 z "},"Œ":{"ha":2411,"x_min":0,"x_max":0,"o":"m 2314 107 l 1329 107 l 1329 433 l 2293 433 b 2314 454 2307 433 2314 440 l 2314 518 b 2293 539 2314 532 2307 539 l 1329 539 l 1329 865 l 2307 865 b 2328 886 2321 865 2328 872 l 2328 951 b 2307 972 2328 965 2321 972 l 1232 972 b 1211 953 1218 972 1211 967 b 1074 978 1174 969 1128 978 l 339 978 b 83 729 167 978 83 893 l 83 243 b 339 -6 83 79 167 -6 l 1074 -6 b 1211 19 1128 -6 1174 3 b 1232 0 1211 6 1218 0 l 2314 0 b 2335 21 2328 0 2335 7 l 2335 86 b 2314 107 2335 100 2328 107 z m 1053 101 l 360 101 b 201 256 250 101 201 146 l 201 717 b 360 871 201 826 250 871 l 1053 871 b 1211 717 1163 871 1211 826 l 1211 256 b 1053 101 1211 146 1163 101 z "},"P":{"ha":1324,"x_min":0,"x_max":0,"o":"m 988 972 l 110 972 b 90 953 96 972 90 967 l 90 19 b 110 0 90 6 96 0 l 188 0 b 208 19 201 0 208 6 l 208 228 l 988 228 b 1240 478 1160 228 1240 313 l 1240 724 b 988 972 1240 888 1160 972 z m 1122 489 b 965 335 1122 379 1075 335 l 208 335 l 208 865 l 965 865 b 1122 711 1075 865 1122 821 z "},"Þ":{"ha":1310,"x_min":0,"x_max":0,"o":"m 974 782 l 208 782 l 208 953 b 188 972 208 967 201 972 l 110 972 b 90 953 96 972 90 967 l 90 19 b 110 0 90 6 96 0 l 188 0 b 208 19 201 0 208 6 l 208 190 l 974 190 b 1226 439 1146 190 1226 275 l 1226 533 b 974 782 1226 697 1146 782 z m 1108 451 b 951 297 1108 342 1061 297 l 208 297 l 208 675 l 951 675 b 1108 521 1061 675 1108 631 z "},"Q":{"ha":1413,"x_min":0,"x_max":0,"o":"m 1074 978 l 339 978 b 83 729 167 978 83 893 l 83 243 b 339 -6 83 79 167 -6 l 647 -6 l 647 -125 b 668 -144 647 -139 654 -144 l 746 -144 b 765 -125 760 -144 765 -139 l 765 -6 l 1074 -6 b 1329 243 1246 -6 1329 79 l 1329 729 b 1074 978 1329 893 1246 978 z m 1211 256 b 1053 101 1211 146 1163 101 l 360 101 b 201 256 250 101 201 146 l 201 717 b 360 871 201 826 250 871 l 1053 871 b 1211 717 1163 871 1211 826 z "},"R":{"ha":1333,"x_min":0,"x_max":0,"o":"m 1246 28 l 1076 285 b 1240 525 1188 310 1240 392 l 1240 724 b 988 972 1240 888 1160 972 l 110 972 b 90 953 96 972 90 967 l 90 19 b 110 0 90 6 96 0 l 188 0 b 208 19 201 0 208 6 l 208 275 l 953 275 l 1125 18 b 1153 0 1133 6 1139 0 l 1228 0 b 1246 28 1246 0 1257 11 z m 208 865 l 967 865 b 1122 711 1076 865 1122 821 l 1122 536 b 967 382 1122 426 1076 382 l 208 382 z "},"Ŕ":{"ha":1333,"x_min":0,"x_max":0,"o":"m 624 1040 l 689 1040 b 722 1065 703 1040 711 1050 l 847 1225 b 840 1250 860 1240 856 1250 l 733 1250 b 701 1225 719 1250 711 1242 l 614 1065 b 624 1040 604 1050 610 1040 z m 1246 28 l 1076 285 b 1240 525 1188 310 1240 392 l 1240 724 b 988 972 1240 888 1160 972 l 110 972 b 90 953 96 972 90 967 l 90 19 b 110 0 90 6 96 0 l 188 0 b 208 19 201 0 208 6 l 208 275 l 953 275 l 1125 18 b 1153 0 1133 6 1139 0 l 1228 0 b 1246 28 1246 0 1257 11 z m 208 865 l 967 865 b 1122 711 1076 865 1122 821 l 1122 536 b 967 382 1122 426 1076 382 l 208 382 z "},"Ř":{"ha":1333,"x_min":0,"x_max":0,"o":"m 581 1061 b 617 1042 593 1047 601 1042 l 696 1042 b 735 1061 711 1042 722 1046 l 879 1226 b 869 1250 890 1238 883 1250 l 799 1250 b 760 1226 782 1250 774 1244 l 665 1119 l 651 1119 l 557 1226 b 518 1250 542 1244 533 1250 l 446 1250 b 436 1226 432 1250 426 1238 z m 1246 28 l 1076 285 b 1240 525 1188 310 1240 392 l 1240 724 b 988 972 1240 888 1160 972 l 110 972 b 90 953 96 972 90 967 l 90 19 b 110 0 90 6 96 0 l 188 0 b 208 19 201 0 208 6 l 208 275 l 953 275 l 1125 18 b 1153 0 1133 6 1139 0 l 1228 0 b 1246 28 1246 0 1257 11 z m 208 865 l 967 865 b 1122 711 1076 865 1122 821 l 1122 536 b 967 382 1122 426 1076 382 l 208 382 z "},"Ŗ":{"ha":1333,"x_min":0,"x_max":0,"o":"m 1246 28 l 1076 285 b 1240 525 1188 310 1240 392 l 1240 724 b 988 972 1240 888 1160 972 l 110 972 b 90 953 96 972 90 967 l 90 19 b 110 0 90 6 96 0 l 188 0 b 208 19 201 0 208 6 l 208 275 l 953 275 l 1125 18 b 1153 0 1133 6 1139 0 l 1228 0 b 1246 28 1246 0 1257 11 z m 208 865 l 967 865 b 1122 711 1076 865 1122 821 l 1122 536 b 967 382 1122 426 1076 382 l 208 382 z m 688 -83 l 625 -83 b 606 -103 611 -83 606 -89 l 606 -314 l 558 -314 b 539 -333 544 -314 539 -319 l 539 -390 b 558 -410 539 -404 544 -410 l 668 -410 b 707 -371 694 -410 707 -397 l 707 -103 b 688 -83 707 -89 701 -83 z "},"S":{"ha":1372,"x_min":0,"x_max":0,"o":"m 1013 515 l 371 556 b 200 718 261 564 200 607 b 369 871 200 828 256 871 l 994 871 b 1153 750 1103 871 1143 831 b 1178 728 1156 735 1163 728 l 1246 728 b 1269 750 1261 728 1269 736 b 1013 978 1269 893 1193 978 l 357 978 b 83 719 178 978 83 897 b 360 457 83 546 185 468 l 1001 417 b 1172 254 1111 408 1172 365 b 1003 101 1172 144 1117 101 l 358 101 b 200 222 250 101 210 140 b 175 244 199 238 190 244 l 107 244 b 83 222 92 244 83 236 b 340 -6 83 79 160 -6 l 1015 -6 b 1289 253 1194 -6 1289 75 b 1013 515 1289 426 1188 504 z "},"Ś":{"ha":1372,"x_min":0,"x_max":0,"o":"m 699 1225 l 611 1065 b 621 1040 601 1050 607 1040 l 686 1040 b 719 1065 700 1040 708 1050 l 844 1225 b 838 1250 857 1240 853 1250 l 731 1250 b 699 1225 717 1250 708 1242 z m 1013 515 l 371 556 b 200 718 261 564 200 607 b 369 871 200 828 256 871 l 994 871 b 1153 750 1103 871 1143 831 b 1178 728 1156 735 1163 728 l 1246 728 b 1269 750 1261 728 1269 736 b 1013 978 1269 893 1193 978 l 357 978 b 83 719 178 978 83 897 b 360 457 83 546 185 468 l 1001 417 b 1172 254 1111 408 1172 365 b 1003 101 1172 144 1117 101 l 358 101 b 200 222 250 101 210 140 b 175 244 199 238 190 244 l 107 244 b 83 222 92 244 83 236 b 340 -6 83 79 160 -6 l 1015 -6 b 1289 253 1194 -6 1289 75 b 1013 515 1289 426 1188 504 z "},"Š":{"ha":1372,"x_min":0,"x_max":0,"o":"m 614 1042 l 693 1042 b 732 1061 708 1042 719 1046 l 876 1226 b 867 1250 888 1238 881 1250 l 796 1250 b 757 1226 779 1250 771 1244 l 663 1119 l 649 1119 l 554 1226 b 515 1250 539 1244 531 1250 l 443 1250 b 433 1226 429 1250 424 1238 l 578 1061 b 614 1042 590 1047 599 1042 z m 1013 515 l 371 556 b 200 718 261 564 200 607 b 369 871 200 828 256 871 l 994 871 b 1153 750 1103 871 1143 831 b 1178 728 1156 735 1163 728 l 1246 728 b 1269 750 1261 728 1269 736 b 1013 978 1269 893 1193 978 l 357 978 b 83 719 178 978 83 897 b 360 457 83 546 185 468 l 1001 417 b 1172 254 1111 408 1172 365 b 1003 101 1172 144 1117 101 l 358 101 b 200 222 250 101 210 140 b 175 244 199 238 190 244 l 107 244 b 83 222 92 244 83 236 b 340 -6 83 79 160 -6 l 1015 -6 b 1289 253 1194 -6 1289 75 b 1013 515 1289 426 1188 504 z "},"Ş":{"ha":1372,"x_min":0,"x_max":0,"o":"m 1013 515 l 371 556 b 200 718 261 564 200 607 b 369 871 200 828 256 871 l 994 871 b 1153 750 1103 871 1143 831 b 1178 728 1156 735 1163 728 l 1246 728 b 1269 750 1261 728 1269 736 b 1013 978 1269 893 1193 978 l 357 978 b 83 719 178 978 83 897 b 360 457 83 546 185 468 l 1001 417 b 1172 254 1111 408 1172 365 b 1003 101 1172 144 1117 101 l 358 101 b 200 222 250 101 210 140 b 175 244 199 238 190 244 l 107 244 b 83 222 92 244 83 236 b 340 -6 83 79 160 -6 l 608 -6 b 557 -82 572 -40 557 -60 b 613 -129 557 -114 582 -126 b 753 -172 719 -140 753 -143 b 694 -208 753 -201 736 -208 l 665 -208 b 607 -167 624 -208 610 -194 b 593 -156 607 -160 600 -156 l 529 -156 b 517 -171 519 -156 517 -161 b 638 -281 517 -239 546 -281 l 718 -281 b 844 -172 807 -281 844 -244 b 707 -65 844 -85 793 -75 b 713 -6 672 -62 650 -57 l 1015 -6 b 1289 253 1194 -6 1289 75 b 1013 515 1289 426 1188 504 z "},"Ș":{"ha":1372,"x_min":0,"x_max":0,"o":"m 1013 515 l 371 556 b 200 718 261 564 200 607 b 369 871 200 828 256 871 l 994 871 b 1153 750 1103 871 1143 831 b 1178 728 1156 735 1163 728 l 1246 728 b 1269 750 1261 728 1269 736 b 1013 978 1269 893 1193 978 l 357 978 b 83 719 178 978 83 897 b 360 457 83 546 185 468 l 1001 417 b 1172 254 1111 408 1172 365 b 1003 101 1172 144 1117 101 l 358 101 b 200 222 250 101 210 140 b 175 244 199 238 190 244 l 107 244 b 83 222 92 244 83 236 b 340 -6 83 79 160 -6 l 1015 -6 b 1289 253 1194 -6 1289 75 b 1013 515 1289 426 1188 504 z m 685 -83 l 622 -83 b 603 -103 608 -83 603 -89 l 603 -314 l 556 -314 b 536 -333 542 -314 536 -319 l 536 -390 b 556 -410 536 -404 542 -410 l 665 -410 b 704 -371 692 -410 704 -397 l 704 -103 b 685 -83 704 -89 699 -83 z "},"T":{"ha":1339,"x_min":0,"x_max":0,"o":"m 1257 972 l 82 972 b 63 953 68 972 63 967 l 63 886 b 82 865 63 872 68 865 l 611 865 l 611 19 b 631 0 611 6 617 0 l 708 0 b 728 19 722 0 728 6 l 728 865 l 1257 865 b 1276 886 1271 865 1276 872 l 1276 953 b 1257 972 1276 967 1271 972 z "},"Ŧ":{"ha":1263,"x_min":0,"x_max":0,"o":"m 1257 972 l 82 972 b 63 953 68 972 63 967 l 63 886 b 82 865 63 872 68 865 l 611 865 l 611 633 l 444 633 b 424 613 431 633 424 626 l 424 549 b 444 528 424 535 431 528 l 611 528 l 611 19 b 631 0 611 6 617 0 l 708 0 b 728 19 722 0 728 6 l 728 528 l 894 528 b 915 549 907 528 915 535 l 915 613 b 894 633 915 626 907 633 l 728 633 l 728 865 l 1257 865 b 1276 886 1271 865 1276 872 l 1276 953 b 1257 972 1276 967 1271 972 z "},"Ť":{"ha":1339,"x_min":0,"x_max":0,"o":"m 593 1061 b 629 1042 606 1047 614 1042 l 708 1042 b 747 1061 724 1042 735 1046 l 892 1226 b 882 1250 903 1238 896 1250 l 811 1250 b 772 1226 794 1250 786 1244 l 678 1119 l 664 1119 l 569 1226 b 531 1250 554 1244 546 1250 l 458 1250 b 449 1226 444 1250 439 1238 z m 1257 972 l 82 972 b 63 953 68 972 63 967 l 63 886 b 82 865 63 872 68 865 l 611 865 l 611 19 b 631 0 611 6 617 0 l 708 0 b 728 19 722 0 728 6 l 728 865 l 1257 865 b 1276 886 1271 865 1276 872 l 1276 953 b 1257 972 1276 967 1271 972 z "},"Ţ":{"ha":1339,"x_min":0,"x_max":0,"o":"m 1257 972 l 82 972 b 63 953 68 972 63 967 l 63 886 b 82 865 63 872 68 865 l 611 865 l 611 19 b 631 0 611 6 617 0 b 574 -82 590 -39 574 -58 b 629 -129 574 -114 599 -126 b 769 -172 736 -140 769 -143 b 711 -208 769 -201 753 -208 l 682 -208 b 624 -167 640 -208 626 -194 b 610 -156 624 -160 617 -156 l 546 -156 b 533 -171 536 -156 533 -161 b 654 -281 533 -239 563 -281 l 735 -281 b 861 -172 824 -281 861 -244 b 724 -65 861 -85 810 -75 b 736 0 688 -62 665 -57 l 708 0 b 728 19 722 0 728 6 l 728 865 l 1257 865 b 1276 886 1271 865 1276 872 l 1276 953 b 1257 972 1276 967 1271 972 z "},"Ț":{"ha":1339,"x_min":0,"x_max":0,"o":"m 1257 972 l 82 972 b 63 953 68 972 63 967 l 63 886 b 82 865 63 872 68 865 l 611 865 l 611 19 b 631 0 611 6 617 0 l 708 0 b 728 19 722 0 728 6 l 728 865 l 1257 865 b 1276 886 1271 865 1276 872 l 1276 953 b 1257 972 1276 967 1271 972 z m 701 -83 l 639 -83 b 619 -103 625 -83 619 -89 l 619 -314 l 572 -314 b 553 -333 558 -314 553 -319 l 553 -390 b 572 -410 553 -404 558 -410 l 682 -410 b 721 -371 708 -410 721 -397 l 721 -103 b 701 -83 721 -89 715 -83 z "},"U":{"ha":1426,"x_min":0,"x_max":0,"o":"m 343 0 l 1083 0 b 1336 249 1256 0 1336 85 l 1336 953 b 1317 972 1336 967 1331 972 l 1239 972 b 1218 953 1225 972 1218 967 l 1218 261 b 1063 107 1218 151 1172 107 l 364 107 b 208 261 254 107 208 151 l 208 953 b 188 972 208 967 201 972 l 110 972 b 90 953 96 972 90 967 l 90 249 b 343 0 90 85 171 0 z "},"Ú":{"ha":1426,"x_min":0,"x_max":0,"o":"m 757 1225 l 669 1065 b 679 1040 660 1050 665 1040 l 744 1040 b 778 1065 758 1040 767 1050 l 903 1225 b 896 1250 915 1240 911 1250 l 789 1250 b 757 1225 775 1250 767 1242 z m 343 0 l 1083 0 b 1336 249 1256 0 1336 85 l 1336 953 b 1317 972 1336 967 1331 972 l 1239 972 b 1218 953 1225 972 1218 967 l 1218 261 b 1063 107 1218 151 1172 107 l 364 107 b 208 261 254 107 208 151 l 208 953 b 188 972 208 967 201 972 l 110 972 b 90 953 96 972 90 967 l 90 249 b 343 0 90 85 171 0 z "},"Ŭ":{"ha":1426,"x_min":0,"x_max":0,"o":"m 681 1051 l 746 1051 b 918 1232 863 1051 918 1111 b 899 1250 918 1244 913 1250 l 843 1250 b 824 1232 829 1250 824 1244 b 733 1135 821 1178 796 1135 l 692 1135 b 601 1232 629 1135 604 1178 b 583 1250 601 1244 597 1250 l 526 1250 b 507 1232 513 1250 507 1244 b 681 1051 507 1111 564 1051 z m 343 0 l 1083 0 b 1336 249 1256 0 1336 85 l 1336 953 b 1317 972 1336 967 1331 972 l 1239 972 b 1218 953 1225 972 1218 967 l 1218 261 b 1063 107 1218 151 1172 107 l 364 107 b 208 261 254 107 208 151 l 208 953 b 188 972 208 967 201 972 l 110 972 b 90 953 96 972 90 967 l 90 249 b 343 0 90 85 171 0 z "},"Û":{"ha":1426,"x_min":0,"x_max":0,"o":"m 672 1250 b 636 1232 657 1250 649 1246 l 492 1065 b 501 1042 482 1054 488 1042 l 574 1042 b 613 1065 589 1042 597 1047 l 707 1172 l 721 1172 l 815 1065 b 854 1042 829 1047 838 1042 l 925 1042 b 935 1065 939 1042 946 1054 l 790 1232 b 751 1250 778 1246 767 1250 z m 343 0 l 1083 0 b 1336 249 1256 0 1336 85 l 1336 953 b 1317 972 1336 967 1331 972 l 1239 972 b 1218 953 1225 972 1218 967 l 1218 261 b 1063 107 1218 151 1172 107 l 364 107 b 208 261 254 107 208 151 l 208 953 b 188 972 208 967 201 972 l 110 972 b 90 953 96 972 90 967 l 90 249 b 343 0 90 85 171 0 z "},"Ü":{"ha":1426,"x_min":0,"x_max":0,"o":"m 490 1129 l 574 1129 b 592 1147 588 1129 592 1133 l 592 1231 b 574 1250 592 1244 588 1250 l 490 1250 b 471 1231 476 1250 471 1244 l 471 1147 b 490 1129 471 1133 476 1129 z m 824 1129 l 907 1129 b 926 1147 921 1129 926 1133 l 926 1231 b 907 1250 926 1244 921 1250 l 824 1250 b 806 1231 810 1250 806 1244 l 806 1147 b 824 1129 806 1133 810 1129 z m 343 0 l 1083 0 b 1336 249 1256 0 1336 85 l 1336 953 b 1317 972 1336 967 1331 972 l 1239 972 b 1218 953 1225 972 1218 967 l 1218 261 b 1063 107 1218 151 1172 107 l 364 107 b 208 261 254 107 208 151 l 208 953 b 188 972 208 967 201 972 l 110 972 b 90 953 96 972 90 967 l 90 249 b 343 0 90 85 171 0 z "},"Ù":{"ha":1426,"x_min":0,"x_max":0,"o":"m 671 1225 b 642 1250 661 1242 656 1250 l 538 1250 b 524 1225 522 1250 511 1240 l 649 1064 b 681 1040 660 1049 667 1040 l 744 1040 b 757 1065 760 1040 767 1050 z m 343 0 l 1083 0 b 1336 249 1256 0 1336 85 l 1336 953 b 1317 972 1336 967 1331 972 l 1239 972 b 1218 953 1225 972 1218 967 l 1218 261 b 1063 107 1218 151 1172 107 l 364 107 b 208 261 254 107 208 151 l 208 953 b 188 972 208 967 201 972 l 110 972 b 90 953 96 972 90 967 l 90 249 b 343 0 90 85 171 0 z "},"Ű":{"ha":1426,"x_min":0,"x_max":0,"o":"m 651 1225 l 564 1065 b 574 1040 554 1050 560 1040 l 639 1040 b 672 1065 653 1040 661 1050 l 797 1225 b 790 1250 810 1240 806 1250 l 683 1250 b 651 1225 669 1250 661 1242 z m 864 1225 l 775 1065 b 786 1040 765 1050 771 1040 l 850 1040 b 883 1065 864 1040 872 1050 l 1010 1225 b 1003 1250 1022 1240 1017 1250 l 894 1250 b 864 1225 881 1250 872 1242 z m 343 0 l 1083 0 b 1336 249 1256 0 1336 85 l 1336 953 b 1317 972 1336 967 1331 972 l 1239 972 b 1218 953 1225 972 1218 967 l 1218 261 b 1063 107 1218 151 1172 107 l 364 107 b 208 261 254 107 208 151 l 208 953 b 188 972 208 967 201 972 l 110 972 b 90 953 96 972 90 967 l 90 249 b 343 0 90 85 171 0 z "},"Ū":{"ha":1426,"x_min":0,"x_max":0,"o":"m 489 1144 l 939 1144 b 960 1165 951 1144 960 1151 l 960 1229 b 939 1250 960 1243 951 1250 l 489 1250 b 468 1229 475 1250 468 1243 l 468 1165 b 489 1144 468 1151 475 1144 z m 343 0 l 1083 0 b 1336 249 1256 0 1336 85 l 1336 953 b 1317 972 1336 967 1331 972 l 1239 972 b 1218 953 1225 972 1218 967 l 1218 261 b 1063 107 1218 151 1172 107 l 364 107 b 208 261 254 107 208 151 l 208 953 b 188 972 208 967 201 972 l 110 972 b 90 953 96 972 90 967 l 90 249 b 343 0 90 85 171 0 z "},"Ų":{"ha":1426,"x_min":0,"x_max":0,"o":"m 1317 972 l 1239 972 b 1218 953 1225 972 1218 967 l 1218 261 b 1063 107 1218 151 1172 107 l 364 107 b 208 261 254 107 208 151 l 208 953 b 188 972 208 967 201 972 l 110 972 b 90 953 96 972 90 967 l 90 249 b 343 0 90 85 171 0 l 763 0 b 717 -39 763 -29 753 -36 l 660 -46 b 551 -151 578 -56 551 -65 b 681 -264 551 -239 579 -264 l 844 -264 b 858 -250 854 -264 858 -258 l 858 -200 b 844 -185 858 -190 853 -185 l 700 -185 b 654 -149 663 -185 654 -176 b 683 -117 654 -122 661 -119 l 799 -103 b 875 -21 854 -96 875 -83 l 875 0 l 1083 0 b 1336 249 1256 0 1336 85 l 1336 953 b 1317 972 1336 967 1331 972 z "},"Ů":{"ha":1426,"x_min":0,"x_max":0,"o":"m 722 1272 l 704 1272 b 588 1156 636 1272 588 1221 l 588 1140 b 704 1025 588 1075 636 1025 l 722 1025 b 839 1140 790 1025 839 1075 l 839 1156 b 722 1272 839 1221 790 1272 z m 768 1154 l 768 1143 b 719 1094 768 1114 750 1094 l 707 1094 b 658 1143 676 1094 658 1114 l 658 1154 b 707 1203 658 1183 676 1203 l 719 1203 b 768 1154 750 1203 768 1183 z m 343 0 l 1083 0 b 1336 249 1256 0 1336 85 l 1336 953 b 1317 972 1336 967 1331 972 l 1239 972 b 1218 953 1225 972 1218 967 l 1218 261 b 1063 107 1218 151 1172 107 l 364 107 b 208 261 254 107 208 151 l 208 953 b 188 972 208 967 201 972 l 110 972 b 90 953 96 972 90 967 l 90 249 b 343 0 90 85 171 0 z "},"Ũ":{"ha":1426,"x_min":0,"x_max":0,"o":"m 811 1094 b 933 1135 853 1094 892 1106 b 944 1160 944 1142 950 1149 l 921 1215 b 899 1221 917 1224 910 1228 b 817 1194 865 1201 846 1194 b 615 1257 739 1194 708 1257 b 493 1217 574 1257 535 1246 b 482 1192 482 1210 478 1201 l 506 1136 b 529 1131 510 1126 517 1124 b 611 1157 561 1150 582 1157 b 811 1094 688 1157 718 1094 z m 343 0 l 1083 0 b 1336 249 1256 0 1336 85 l 1336 953 b 1317 972 1336 967 1331 972 l 1239 972 b 1218 953 1225 972 1218 967 l 1218 261 b 1063 107 1218 151 1172 107 l 364 107 b 208 261 254 107 208 151 l 208 953 b 188 972 208 967 201 972 l 110 972 b 90 953 96 972 90 967 l 90 249 b 343 0 90 85 171 0 z "},"V":{"ha":1483,"x_min":0,"x_max":0,"o":"m 693 0 l 790 0 b 817 22 803 0 808 8 l 1424 949 b 1410 972 1433 964 1424 972 l 1317 972 b 1289 950 1303 972 1299 965 l 749 124 l 733 124 l 194 950 b 165 972 185 965 181 972 l 74 972 b 60 949 60 972 50 964 l 665 22 b 693 0 674 8 681 0 z "},"W":{"ha":2547,"x_min":0,"x_max":0,"o":"m 631 0 l 729 0 b 757 22 743 0 749 8 l 1274 860 l 1790 22 b 1818 0 1799 8 1804 0 l 1917 0 b 1943 22 1929 0 1935 8 l 2488 949 b 2474 972 2497 964 2488 972 l 2382 972 b 2353 950 2368 972 2363 965 l 1874 131 l 1858 131 l 1354 950 b 1325 972 1344 965 1339 972 l 1222 972 b 1193 950 1208 972 1203 965 l 689 131 l 674 131 l 194 950 b 165 972 185 965 179 972 l 74 972 b 60 949 60 972 50 964 l 604 22 b 631 0 613 8 618 0 z "},"Ẃ":{"ha":2547,"x_min":0,"x_max":0,"o":"m 1317 1225 l 1229 1065 b 1239 1040 1219 1050 1225 1040 l 1304 1040 b 1338 1065 1318 1040 1326 1050 l 1463 1225 b 1456 1250 1475 1240 1471 1250 l 1349 1250 b 1317 1225 1335 1250 1326 1242 z m 631 0 l 729 0 b 757 22 743 0 749 8 l 1274 860 l 1790 22 b 1818 0 1799 8 1804 0 l 1917 0 b 1943 22 1929 0 1935 8 l 2488 949 b 2474 972 2497 964 2488 972 l 2382 972 b 2353 950 2368 972 2363 965 l 1874 131 l 1858 131 l 1354 950 b 1325 972 1344 965 1339 972 l 1222 972 b 1193 950 1208 972 1203 965 l 689 131 l 674 131 l 194 950 b 165 972 185 965 179 972 l 74 972 b 60 949 60 972 50 964 l 604 22 b 631 0 613 8 618 0 z "},"Ŵ":{"ha":2547,"x_min":0,"x_max":0,"o":"m 1232 1250 b 1196 1232 1217 1250 1208 1246 l 1051 1065 b 1061 1042 1042 1054 1047 1042 l 1133 1042 b 1172 1065 1149 1042 1157 1047 l 1267 1172 l 1281 1172 l 1375 1065 b 1414 1042 1389 1047 1397 1042 l 1485 1042 b 1494 1065 1499 1042 1506 1054 l 1350 1232 b 1311 1250 1338 1246 1326 1250 z m 631 0 l 729 0 b 757 22 743 0 749 8 l 1274 860 l 1790 22 b 1818 0 1799 8 1804 0 l 1917 0 b 1943 22 1929 0 1935 8 l 2488 949 b 2474 972 2497 964 2488 972 l 2382 972 b 2353 950 2368 972 2363 965 l 1874 131 l 1858 131 l 1354 950 b 1325 972 1344 965 1339 972 l 1222 972 b 1193 950 1208 972 1203 965 l 689 131 l 674 131 l 194 950 b 165 972 185 965 179 972 l 74 972 b 60 949 60 972 50 964 l 604 22 b 631 0 613 8 618 0 z "},"Ẅ":{"ha":2547,"x_min":0,"x_max":0,"o":"m 1050 1129 l 1133 1129 b 1151 1147 1147 1129 1151 1133 l 1151 1231 b 1133 1250 1151 1244 1147 1250 l 1050 1250 b 1031 1231 1036 1250 1031 1244 l 1031 1147 b 1050 1129 1031 1133 1036 1129 z m 1383 1129 l 1467 1129 b 1486 1147 1481 1129 1486 1133 l 1486 1231 b 1467 1250 1486 1244 1481 1250 l 1383 1250 b 1365 1231 1369 1250 1365 1244 l 1365 1147 b 1383 1129 1365 1133 1369 1129 z m 631 0 l 729 0 b 757 22 743 0 749 8 l 1274 860 l 1790 22 b 1818 0 1799 8 1804 0 l 1917 0 b 1943 22 1929 0 1935 8 l 2488 949 b 2474 972 2497 964 2488 972 l 2382 972 b 2353 950 2368 972 2363 965 l 1874 131 l 1858 131 l 1354 950 b 1325 972 1344 965 1339 972 l 1222 972 b 1193 950 1208 972 1203 965 l 689 131 l 674 131 l 194 950 b 165 972 185 965 179 972 l 74 972 b 60 949 60 972 50 964 l 604 22 b 631 0 613 8 618 0 z "},"Ẁ":{"ha":2547,"x_min":0,"x_max":0,"o":"m 1231 1225 b 1201 1250 1221 1242 1215 1250 l 1097 1250 b 1083 1225 1082 1250 1071 1240 l 1208 1064 b 1240 1040 1219 1049 1226 1040 l 1304 1040 b 1317 1065 1319 1040 1326 1050 z m 631 0 l 729 0 b 757 22 743 0 749 8 l 1274 860 l 1790 22 b 1818 0 1799 8 1804 0 l 1917 0 b 1943 22 1929 0 1935 8 l 2488 949 b 2474 972 2497 964 2488 972 l 2382 972 b 2353 950 2368 972 2363 965 l 1874 131 l 1858 131 l 1354 950 b 1325 972 1344 965 1339 972 l 1222 972 b 1193 950 1208 972 1203 965 l 689 131 l 674 131 l 194 950 b 165 972 185 965 179 972 l 74 972 b 60 949 60 972 50 964 l 604 22 b 631 0 613 8 618 0 z "},"X":{"ha":1364,"x_min":0,"x_max":0,"o":"m 1300 24 l 765 486 l 1300 949 b 1296 972 1315 964 1307 972 l 1176 972 b 1138 951 1163 972 1153 965 l 682 557 l 226 951 b 186 972 211 965 201 972 l 67 972 b 65 949 56 972 49 964 l 600 486 l 65 24 b 67 0 49 8 56 0 l 186 0 b 226 21 201 0 211 7 l 682 415 l 1138 21 b 1176 0 1153 7 1163 0 l 1297 0 b 1300 24 1308 0 1315 8 z "},"Y":{"ha":1331,"x_min":0,"x_max":0,"o":"m 1263 972 l 1160 972 b 1122 951 1144 972 1135 964 l 671 485 l 660 485 l 208 951 b 171 972 196 964 186 972 l 68 972 b 63 951 56 972 51 964 l 607 386 l 607 19 b 626 0 607 6 613 0 l 704 0 b 724 19 718 0 724 6 l 724 386 l 1268 951 b 1263 972 1279 964 1275 972 z "},"Ý":{"ha":1331,"x_min":0,"x_max":0,"o":"m 708 1225 l 621 1065 b 631 1040 611 1050 617 1040 l 696 1040 b 729 1065 710 1040 718 1050 l 854 1225 b 847 1250 867 1240 863 1250 l 740 1250 b 708 1225 726 1250 718 1242 z m 1263 972 l 1160 972 b 1122 951 1144 972 1135 964 l 671 485 l 660 485 l 208 951 b 171 972 196 964 186 972 l 68 972 b 63 951 56 972 51 964 l 607 386 l 607 19 b 626 0 607 6 613 0 l 704 0 b 724 19 718 0 724 6 l 724 386 l 1268 951 b 1263 972 1279 964 1275 972 z "},"Ŷ":{"ha":1331,"x_min":0,"x_max":0,"o":"m 624 1250 b 588 1232 608 1250 600 1246 l 443 1065 b 453 1042 433 1054 439 1042 l 525 1042 b 564 1065 540 1042 549 1047 l 658 1172 l 672 1172 l 767 1065 b 806 1042 781 1047 789 1042 l 876 1042 b 886 1065 890 1042 897 1054 l 742 1232 b 703 1250 729 1246 718 1250 z m 1263 972 l 1160 972 b 1122 951 1144 972 1135 964 l 671 485 l 660 485 l 208 951 b 171 972 196 964 186 972 l 68 972 b 63 951 56 972 51 964 l 607 386 l 607 19 b 626 0 607 6 613 0 l 704 0 b 724 19 718 0 724 6 l 724 386 l 1268 951 b 1263 972 1279 964 1275 972 z "},"Ÿ":{"ha":1331,"x_min":0,"x_max":0,"o":"m 442 1129 l 525 1129 b 543 1147 539 1129 543 1133 l 543 1231 b 525 1250 543 1244 539 1250 l 442 1250 b 422 1231 428 1250 422 1244 l 422 1147 b 442 1129 422 1133 428 1129 z m 775 1129 l 858 1129 b 878 1147 872 1129 878 1133 l 878 1231 b 858 1250 878 1244 872 1250 l 775 1250 b 757 1231 761 1250 757 1244 l 757 1147 b 775 1129 757 1133 761 1129 z m 1263 972 l 1160 972 b 1122 951 1144 972 1135 964 l 671 485 l 660 485 l 208 951 b 171 972 196 964 186 972 l 68 972 b 63 951 56 972 51 964 l 607 386 l 607 19 b 626 0 607 6 613 0 l 704 0 b 724 19 718 0 724 6 l 724 386 l 1268 951 b 1263 972 1279 964 1275 972 z "},"Ỳ":{"ha":1331,"x_min":0,"x_max":0,"o":"m 622 1225 b 593 1250 613 1242 607 1250 l 489 1250 b 475 1225 474 1250 463 1240 l 600 1064 b 632 1040 611 1049 618 1040 l 696 1040 b 708 1065 711 1040 718 1050 z m 1263 972 l 1160 972 b 1122 951 1144 972 1135 964 l 671 485 l 660 485 l 208 951 b 171 972 196 964 186 972 l 68 972 b 63 951 56 972 51 964 l 607 386 l 607 19 b 626 0 607 6 613 0 l 704 0 b 724 19 718 0 724 6 l 724 386 l 1268 951 b 1263 972 1279 964 1275 972 z "},"Z":{"ha":1264,"x_min":0,"x_max":0,"o":"m 89 0 l 1175 0 b 1194 19 1189 0 1194 6 l 1194 86 b 1175 107 1194 100 1189 107 l 250 107 l 250 119 l 1182 853 b 1193 876 1192 861 1193 868 l 1193 953 b 1174 972 1193 967 1188 972 l 96 972 b 76 953 82 972 76 967 l 76 886 b 96 865 76 872 82 865 l 1013 865 l 1013 853 l 81 119 b 69 96 71 111 69 104 l 69 19 b 89 0 69 6 75 0 z "},"Ź":{"ha":1264,"x_min":0,"x_max":0,"o":"m 676 1225 l 589 1065 b 599 1040 579 1050 585 1040 l 664 1040 b 697 1065 678 1040 686 1050 l 822 1225 b 815 1250 835 1240 831 1250 l 708 1250 b 676 1225 694 1250 686 1242 z m 89 0 l 1175 0 b 1194 19 1189 0 1194 6 l 1194 86 b 1175 107 1194 100 1189 107 l 250 107 l 250 119 l 1182 853 b 1193 876 1192 861 1193 868 l 1193 953 b 1174 972 1193 967 1188 972 l 96 972 b 76 953 82 972 76 967 l 76 886 b 96 865 76 872 82 865 l 1013 865 l 1013 853 l 81 119 b 69 96 71 111 69 104 l 69 19 b 89 0 69 6 75 0 z "},"Ž":{"ha":1264,"x_min":0,"x_max":0,"o":"m 592 1042 l 671 1042 b 710 1061 686 1042 697 1046 l 854 1226 b 844 1250 865 1238 858 1250 l 774 1250 b 735 1226 757 1250 749 1244 l 640 1119 l 626 1119 l 532 1226 b 493 1250 517 1244 508 1250 l 421 1250 b 411 1226 407 1250 401 1238 l 556 1061 b 592 1042 568 1047 576 1042 z m 89 0 l 1175 0 b 1194 19 1189 0 1194 6 l 1194 86 b 1175 107 1194 100 1189 107 l 250 107 l 250 119 l 1182 853 b 1193 876 1192 861 1193 868 l 1193 953 b 1174 972 1193 967 1188 972 l 96 972 b 76 953 82 972 76 967 l 76 886 b 96 865 76 872 82 865 l 1013 865 l 1013 853 l 81 119 b 69 96 71 111 69 104 l 69 19 b 89 0 69 6 75 0 z "},"Ż":{"ha":1264,"x_min":0,"x_max":0,"o":"m 590 1129 l 674 1129 b 692 1147 688 1129 692 1133 l 692 1231 b 674 1250 692 1244 688 1250 l 590 1250 b 571 1231 576 1250 571 1244 l 571 1147 b 590 1129 571 1133 576 1129 z m 89 0 l 1175 0 b 1194 19 1189 0 1194 6 l 1194 86 b 1175 107 1194 100 1189 107 l 250 107 l 250 119 l 1182 853 b 1193 876 1192 861 1193 868 l 1193 953 b 1174 972 1193 967 1188 972 l 96 972 b 76 953 82 972 76 967 l 76 886 b 96 865 76 872 82 865 l 1013 865 l 1013 853 l 81 119 b 69 96 71 111 69 104 l 69 19 b 89 0 69 6 75 0 z "},"a":{"ha":1011,"x_min":0,"x_max":0,"o":"m 257 -7 l 600 -7 b 819 96 711 -7 778 40 l 828 96 l 828 19 b 849 0 828 6 835 0 l 922 0 b 942 19 936 0 942 6 l 942 453 b 674 700 942 622 868 700 l 307 700 b 85 532 150 700 85 642 b 111 500 85 510 90 500 l 172 500 b 197 519 189 500 194 507 b 329 599 206 574 242 599 l 654 599 b 828 446 789 599 828 557 l 828 401 l 254 401 b 42 203 115 401 42 344 b 257 -7 42 63 124 -7 z m 260 97 b 154 206 193 97 154 125 b 260 311 154 288 193 311 l 828 311 l 828 229 b 664 97 828 156 771 97 z "},"á":{"ha":1011,"x_min":0,"x_max":0,"o":"m 551 947 l 464 788 b 474 763 454 772 460 763 l 539 763 b 572 788 553 763 561 772 l 697 947 b 690 972 710 963 706 972 l 583 972 b 551 947 569 972 561 964 z m 257 -7 l 600 -7 b 819 96 711 -7 778 40 l 828 96 l 828 19 b 849 0 828 6 835 0 l 922 0 b 942 19 936 0 942 6 l 942 453 b 674 700 942 622 868 700 l 307 700 b 85 532 150 700 85 642 b 111 500 85 510 90 500 l 172 500 b 197 519 189 500 194 507 b 329 599 206 574 242 599 l 654 599 b 828 446 789 599 828 557 l 828 401 l 254 401 b 42 203 115 401 42 344 b 257 -7 42 63 124 -7 z m 260 97 b 154 206 193 97 154 125 b 260 311 154 288 193 311 l 828 311 l 828 229 b 664 97 828 156 771 97 z "},"ă":{"ha":1011,"x_min":0,"x_max":0,"o":"m 475 774 l 540 774 b 713 954 657 774 713 833 b 693 972 713 967 707 972 l 638 972 b 618 954 624 972 618 967 b 528 857 615 900 590 857 l 486 857 b 396 954 424 857 399 900 b 378 972 396 967 392 972 l 321 972 b 301 954 307 972 301 967 b 475 774 301 833 358 774 z m 257 -7 l 600 -7 b 819 96 711 -7 778 40 l 828 96 l 828 19 b 849 0 828 6 835 0 l 922 0 b 942 19 936 0 942 6 l 942 453 b 674 700 942 622 868 700 l 307 700 b 85 532 150 700 85 642 b 111 500 85 510 90 500 l 172 500 b 197 519 189 500 194 507 b 329 599 206 574 242 599 l 654 599 b 828 446 789 599 828 557 l 828 401 l 254 401 b 42 203 115 401 42 344 b 257 -7 42 63 124 -7 z m 260 97 b 154 206 193 97 154 125 b 260 311 154 288 193 311 l 828 311 l 828 229 b 664 97 828 156 771 97 z "},"ǎ":{"ha":1011,"x_min":0,"x_max":0,"o":"m 467 764 l 546 764 b 585 783 561 764 572 768 l 729 949 b 719 972 740 960 733 972 l 649 972 b 610 949 632 972 624 967 l 515 842 l 501 842 l 407 949 b 368 972 392 967 383 972 l 296 972 b 286 949 282 972 276 960 l 431 783 b 467 764 443 769 451 764 z m 257 -7 l 600 -7 b 819 96 711 -7 778 40 l 828 96 l 828 19 b 849 0 828 6 835 0 l 922 0 b 942 19 936 0 942 6 l 942 453 b 674 700 942 622 868 700 l 307 700 b 85 532 150 700 85 642 b 111 500 85 510 90 500 l 172 500 b 197 519 189 500 194 507 b 329 599 206 574 242 599 l 654 599 b 828 446 789 599 828 557 l 828 401 l 254 401 b 42 203 115 401 42 344 b 257 -7 42 63 124 -7 z m 260 97 b 154 206 193 97 154 125 b 260 311 154 288 193 311 l 828 311 l 828 229 b 664 97 828 156 771 97 z "},"â":{"ha":1011,"x_min":0,"x_max":0,"o":"m 467 972 b 431 954 451 972 443 968 l 286 788 b 296 764 276 776 282 764 l 368 764 b 407 788 383 764 392 769 l 501 894 l 515 894 l 610 788 b 649 764 624 769 632 764 l 719 764 b 729 788 733 764 740 776 l 585 954 b 546 972 572 968 561 972 z m 257 -7 l 600 -7 b 819 96 711 -7 778 40 l 828 96 l 828 19 b 849 0 828 6 835 0 l 922 0 b 942 19 936 0 942 6 l 942 453 b 674 700 942 622 868 700 l 307 700 b 85 532 150 700 85 642 b 111 500 85 510 90 500 l 172 500 b 197 519 189 500 194 507 b 329 599 206 574 242 599 l 654 599 b 828 446 789 599 828 557 l 828 401 l 254 401 b 42 203 115 401 42 344 b 257 -7 42 63 124 -7 z m 260 97 b 154 206 193 97 154 125 b 260 311 154 288 193 311 l 828 311 l 828 229 b 664 97 828 156 771 97 z "},"ä":{"ha":1011,"x_min":0,"x_max":0,"o":"m 285 851 l 368 851 b 386 869 382 851 386 856 l 386 953 b 368 972 386 967 382 972 l 285 972 b 265 953 271 972 265 967 l 265 869 b 285 851 265 856 271 851 z m 618 851 l 701 851 b 721 869 715 851 721 856 l 721 953 b 701 972 721 967 715 972 l 618 972 b 600 953 604 972 600 967 l 600 869 b 618 851 600 856 604 851 z m 257 -7 l 600 -7 b 819 96 711 -7 778 40 l 828 96 l 828 19 b 849 0 828 6 835 0 l 922 0 b 942 19 936 0 942 6 l 942 453 b 674 700 942 622 868 700 l 307 700 b 85 532 150 700 85 642 b 111 500 85 510 90 500 l 172 500 b 197 519 189 500 194 507 b 329 599 206 574 242 599 l 654 599 b 828 446 789 599 828 557 l 828 401 l 254 401 b 42 203 115 401 42 344 b 257 -7 42 63 124 -7 z m 260 97 b 154 206 193 97 154 125 b 260 311 154 288 193 311 l 828 311 l 828 229 b 664 97 828 156 771 97 z "},"à":{"ha":1011,"x_min":0,"x_max":0,"o":"m 465 947 b 436 972 456 964 450 972 l 332 972 b 318 947 317 972 306 963 l 443 786 b 475 763 454 771 461 763 l 539 763 b 551 788 554 763 561 772 z m 257 -7 l 600 -7 b 819 96 711 -7 778 40 l 828 96 l 828 19 b 849 0 828 6 835 0 l 922 0 b 942 19 936 0 942 6 l 942 453 b 674 700 942 622 868 700 l 307 700 b 85 532 150 700 85 642 b 111 500 85 510 90 500 l 172 500 b 197 519 189 500 194 507 b 329 599 206 574 242 599 l 654 599 b 828 446 789 599 828 557 l 828 401 l 254 401 b 42 203 115 401 42 344 b 257 -7 42 63 124 -7 z m 260 97 b 154 206 193 97 154 125 b 260 311 154 288 193 311 l 828 311 l 828 229 b 664 97 828 156 771 97 z "},"ā":{"ha":1011,"x_min":0,"x_max":0,"o":"m 283 867 l 733 867 b 754 888 746 867 754 874 l 754 951 b 733 972 754 965 746 972 l 283 972 b 263 951 269 972 263 965 l 263 888 b 283 867 263 874 269 867 z m 257 -7 l 600 -7 b 819 96 711 -7 778 40 l 828 96 l 828 19 b 849 0 828 6 835 0 l 922 0 b 942 19 936 0 942 6 l 942 453 b 674 700 942 622 868 700 l 307 700 b 85 532 150 700 85 642 b 111 500 85 510 90 500 l 172 500 b 197 519 189 500 194 507 b 329 599 206 574 242 599 l 654 599 b 828 446 789 599 828 557 l 828 401 l 254 401 b 42 203 115 401 42 344 b 257 -7 42 63 124 -7 z m 260 97 b 154 206 193 97 154 125 b 260 311 154 288 193 311 l 828 311 l 828 229 b 664 97 828 156 771 97 z "},"ą":{"ha":1011,"x_min":0,"x_max":0,"o":"m 674 700 l 307 700 b 85 532 150 700 85 642 b 111 500 85 510 90 500 l 172 500 b 197 519 189 500 194 507 b 329 599 206 574 242 599 l 654 599 b 828 446 789 599 828 557 l 828 401 l 254 401 b 42 203 115 401 42 344 b 257 -7 42 63 124 -7 l 600 -7 b 819 96 711 -7 778 40 l 828 96 l 828 -6 b 782 -44 828 -35 818 -42 l 725 -51 b 617 -157 643 -61 617 -71 b 747 -269 617 -244 644 -269 l 910 -269 b 924 -256 919 -269 924 -264 l 924 -206 b 910 -190 924 -196 918 -190 l 767 -190 b 719 -154 729 -190 719 -182 b 749 -122 719 -128 728 -125 l 864 -108 b 942 -26 919 -101 942 -89 l 942 453 b 674 700 942 622 868 700 z m 664 97 l 260 97 b 154 206 193 97 154 125 b 260 311 154 288 193 311 l 828 311 l 828 229 b 664 97 828 156 771 97 z "},"å":{"ha":1011,"x_min":0,"x_max":0,"o":"m 517 994 l 499 994 b 382 878 431 994 382 943 l 382 863 b 499 747 382 797 431 747 l 517 747 b 633 863 585 747 633 797 l 633 878 b 517 994 633 943 585 994 z m 563 876 l 563 865 b 514 817 563 836 544 817 l 501 817 b 453 865 471 817 453 836 l 453 876 b 501 925 453 906 471 925 l 514 925 b 563 876 544 925 563 906 z m 257 -7 l 600 -7 b 819 96 711 -7 778 40 l 828 96 l 828 19 b 849 0 828 6 835 0 l 922 0 b 942 19 936 0 942 6 l 942 453 b 674 700 942 622 868 700 l 307 700 b 85 532 150 700 85 642 b 111 500 85 510 90 500 l 172 500 b 197 519 189 500 194 507 b 329 599 206 574 242 599 l 654 599 b 828 446 789 599 828 557 l 828 401 l 254 401 b 42 203 115 401 42 344 b 257 -7 42 63 124 -7 z m 260 97 b 154 206 193 97 154 125 b 260 311 154 288 193 311 l 828 311 l 828 229 b 664 97 828 156 771 97 z "},"ã":{"ha":1011,"x_min":0,"x_max":0,"o":"m 606 817 b 728 857 647 817 686 828 b 739 882 739 864 744 871 l 715 938 b 693 943 711 946 704 950 b 611 917 660 924 640 917 b 410 979 533 917 503 979 b 288 939 368 979 329 968 b 276 914 276 932 272 924 l 300 858 b 324 853 304 849 311 846 b 406 879 356 872 376 879 b 606 817 482 879 513 817 z m 257 -7 l 600 -7 b 819 96 711 -7 778 40 l 828 96 l 828 19 b 849 0 828 6 835 0 l 922 0 b 942 19 936 0 942 6 l 942 453 b 674 700 942 622 868 700 l 307 700 b 85 532 150 700 85 642 b 111 500 85 510 90 500 l 172 500 b 197 519 189 500 194 507 b 329 599 206 574 242 599 l 654 599 b 828 446 789 599 828 557 l 828 401 l 254 401 b 42 203 115 401 42 344 b 257 -7 42 63 124 -7 z m 260 97 b 154 206 193 97 154 125 b 260 311 154 288 193 311 l 828 311 l 828 229 b 664 97 828 156 771 97 z "},"æ":{"ha":1779,"x_min":0,"x_max":0,"o":"m 1650 303 b 1717 369 1697 303 1717 324 l 1717 463 b 1478 700 1717 615 1635 700 l 1068 700 b 879 629 983 700 919 676 b 674 700 843 678 779 700 l 308 700 b 85 531 151 700 85 642 b 111 499 85 508 90 499 l 172 499 b 197 518 189 499 194 506 b 329 597 206 574 242 597 l 654 599 b 828 446 789 599 828 557 l 828 401 l 254 401 b 42 203 115 401 42 344 b 257 -7 42 63 124 -7 l 628 -7 b 853 104 742 -7 811 44 b 1068 -7 889 32 961 -7 l 1449 -7 b 1699 86 1606 -7 1658 26 b 1696 114 1707 99 1710 107 l 1658 132 b 1624 132 1643 140 1635 139 b 1446 97 1568 101 1543 97 l 1079 97 b 942 232 989 97 942 138 l 942 303 z m 1079 596 l 1467 596 b 1604 460 1556 596 1604 554 l 1604 390 l 942 390 l 942 460 b 1079 596 942 554 989 596 z m 664 97 l 260 97 b 154 206 193 97 154 125 b 260 311 154 288 193 311 l 828 311 l 828 229 b 664 97 828 156 771 97 z "},"b":{"ha":1028,"x_min":0,"x_max":0,"o":"m 725 -7 b 965 231 882 -7 965 78 l 965 463 b 725 700 965 615 882 700 l 381 700 b 193 624 264 700 231 674 l 183 624 l 183 953 b 164 972 183 967 175 972 l 89 972 b 69 953 75 972 69 967 l 69 19 b 89 0 69 6 75 0 l 163 0 b 183 19 176 0 183 6 l 183 69 l 193 69 b 381 -7 231 19 264 -7 z m 718 97 l 313 97 b 183 232 229 97 183 139 l 183 460 b 313 596 183 554 229 596 l 718 596 b 853 460 804 596 853 554 l 853 232 b 718 97 853 139 804 97 z "},"c":{"ha":1004,"x_min":0,"x_max":0,"o":"m 303 -7 l 682 -7 b 933 86 839 -7 892 26 b 931 114 942 99 943 107 l 893 132 b 857 132 878 140 868 139 b 679 97 801 101 778 97 l 313 97 b 176 232 224 97 176 138 l 176 460 b 313 596 176 554 224 596 l 707 596 b 836 493 797 596 836 561 l 836 461 b 858 443 836 450 846 443 l 926 443 b 949 464 942 443 949 451 l 949 497 b 721 700 949 628 876 700 l 303 700 b 63 464 146 700 63 617 l 63 229 b 303 -7 63 76 146 -7 z "},"ć":{"ha":1004,"x_min":0,"x_max":0,"o":"m 540 947 l 453 788 b 463 763 443 772 449 763 l 528 763 b 561 788 542 763 550 772 l 686 947 b 679 972 699 963 694 972 l 572 972 b 540 947 558 972 550 964 z m 303 -7 l 682 -7 b 933 86 839 -7 892 26 b 931 114 942 99 943 107 l 893 132 b 857 132 878 140 868 139 b 679 97 801 101 778 97 l 313 97 b 176 232 224 97 176 138 l 176 460 b 313 596 176 554 224 596 l 707 596 b 836 493 797 596 836 561 l 836 461 b 858 443 836 450 846 443 l 926 443 b 949 464 942 443 949 451 l 949 497 b 721 700 949 628 876 700 l 303 700 b 63 464 146 700 63 617 l 63 229 b 303 -7 63 76 146 -7 z "},"č":{"ha":1004,"x_min":0,"x_max":0,"o":"m 456 764 l 535 764 b 574 783 550 764 561 768 l 718 949 b 708 972 729 960 722 972 l 638 972 b 599 949 621 972 613 967 l 504 842 l 490 842 l 396 949 b 357 972 381 967 372 972 l 285 972 b 275 949 271 972 265 960 l 419 783 b 456 764 432 769 440 764 z m 303 -7 l 682 -7 b 933 86 839 -7 892 26 b 931 114 942 99 943 107 l 893 132 b 857 132 878 140 868 139 b 679 97 801 101 778 97 l 313 97 b 176 232 224 97 176 138 l 176 460 b 313 596 176 554 224 596 l 707 596 b 836 493 797 596 836 561 l 836 461 b 858 443 836 450 846 443 l 926 443 b 949 464 942 443 949 451 l 949 497 b 721 700 949 628 876 700 l 303 700 b 63 464 146 700 63 617 l 63 229 b 303 -7 63 76 146 -7 z "},"ç":{"ha":1004,"x_min":0,"x_max":0,"o":"m 721 700 l 303 700 b 63 464 146 700 63 617 l 63 229 b 303 -7 63 76 146 -7 l 450 -7 b 400 -82 415 -42 400 -60 b 456 -129 400 -114 425 -126 b 596 -172 563 -140 596 -143 b 538 -208 596 -201 579 -208 l 508 -208 b 450 -167 467 -208 453 -194 b 436 -156 450 -160 443 -156 l 372 -156 b 360 -171 363 -156 360 -161 b 481 -281 360 -239 389 -281 l 561 -281 b 688 -172 650 -281 688 -244 b 550 -65 688 -85 636 -75 b 554 -7 515 -62 493 -57 l 682 -7 b 933 86 839 -7 892 26 b 931 114 942 99 943 107 l 893 132 b 857 132 878 140 868 139 b 679 97 801 101 778 97 l 313 97 b 176 232 224 97 176 138 l 176 460 b 313 596 176 554 224 596 l 707 596 b 836 493 797 596 836 561 l 836 461 b 858 443 836 450 846 443 l 926 443 b 949 464 942 443 949 451 l 949 497 b 721 700 949 628 876 700 z "},"ċ":{"ha":1004,"x_min":0,"x_max":0,"o":"m 456 851 l 539 851 b 557 869 553 851 557 856 l 557 953 b 539 972 557 967 553 972 l 456 972 b 436 953 442 972 436 967 l 436 869 b 456 851 436 856 442 851 z m 303 -7 l 682 -7 b 933 86 839 -7 892 26 b 931 114 942 99 943 107 l 893 132 b 857 132 878 140 868 139 b 679 97 801 101 778 97 l 313 97 b 176 232 224 97 176 138 l 176 460 b 313 596 176 554 224 596 l 707 596 b 836 493 797 596 836 561 l 836 461 b 858 443 836 450 846 443 l 926 443 b 949 464 942 443 949 451 l 949 497 b 721 700 949 628 876 700 l 303 700 b 63 464 146 700 63 617 l 63 229 b 303 -7 63 76 146 -7 z "},"d":{"ha":1028,"x_min":0,"x_max":0,"o":"m 303 -7 l 647 -7 b 835 69 764 -7 797 19 l 846 69 l 846 19 b 865 0 846 6 851 0 l 939 0 b 958 19 953 0 958 6 l 958 953 b 939 972 958 967 953 972 l 865 972 b 846 953 853 972 846 967 l 846 624 l 835 624 b 647 700 797 674 764 700 l 303 700 b 63 463 146 700 63 615 l 63 231 b 303 -7 63 78 146 -7 z m 311 97 b 176 232 224 97 176 139 l 176 460 b 311 596 176 554 224 596 l 715 596 b 846 460 799 596 846 554 l 846 232 b 715 97 846 139 799 97 z "},"ð":{"ha":1068,"x_min":0,"x_max":0,"o":"m 981 1007 l 921 1007 b 883 983 908 1007 901 1003 l 847 946 b 708 972 811 964 764 972 l 304 972 b 285 953 290 972 285 967 l 285 888 b 304 868 285 874 290 868 l 689 868 b 765 860 719 868 744 865 l 669 758 b 683 733 658 746 667 733 l 743 733 b 779 757 754 733 763 740 l 831 813 b 846 740 842 793 846 769 l 846 624 l 835 624 b 647 700 797 674 764 700 l 303 700 b 63 463 146 700 63 615 l 63 231 b 303 -7 63 78 146 -7 l 647 -7 b 835 69 764 -7 797 19 l 846 69 l 846 19 b 865 0 846 6 851 0 l 939 0 b 958 19 953 0 958 6 l 958 738 b 911 897 958 806 943 858 l 992 982 b 981 1007 1004 994 997 1007 z m 846 232 b 715 97 846 139 799 97 l 311 97 b 176 232 224 97 176 139 l 176 460 b 311 596 176 554 224 596 l 715 596 b 846 460 799 596 846 554 z "},"ď":{"ha":1142,"x_min":0,"x_max":0,"o":"m 303 -7 l 647 -7 b 835 69 764 -7 797 19 l 846 69 l 846 19 b 865 0 846 6 851 0 l 939 0 b 958 19 953 0 958 6 l 958 953 b 939 972 958 967 953 972 l 865 972 b 846 953 853 972 846 967 l 846 624 l 835 624 b 647 700 797 674 764 700 l 303 700 b 63 463 146 700 63 615 l 63 231 b 303 -7 63 78 146 -7 z m 1156 972 l 1092 972 b 1074 953 1078 972 1074 967 l 1074 742 l 1025 742 b 1007 722 1011 742 1007 736 l 1007 665 b 1025 646 1007 651 1011 646 l 1135 646 b 1175 685 1163 646 1175 658 l 1175 953 b 1156 972 1175 967 1169 972 z m 311 97 b 176 232 224 97 176 139 l 176 460 b 311 596 176 554 224 596 l 715 596 b 846 460 799 596 846 554 l 846 232 b 715 97 846 139 799 97 z "},"đ":{"ha":1046,"x_min":0,"x_max":0,"o":"m 1004 861 l 958 861 l 958 953 b 939 972 958 967 953 972 l 865 972 b 846 953 853 972 846 967 l 846 861 l 554 861 b 533 840 540 861 533 854 l 533 776 b 554 756 533 763 540 756 l 846 756 l 846 624 l 835 624 b 647 700 797 674 764 700 l 303 700 b 63 463 146 700 63 615 l 63 231 b 303 -7 63 78 146 -7 l 647 -7 b 835 69 764 -7 797 19 l 846 69 l 846 19 b 865 0 846 6 851 0 l 939 0 b 958 19 953 0 958 6 l 958 756 l 1004 756 b 1025 776 1017 756 1025 763 l 1025 840 b 1004 861 1025 854 1017 861 z m 846 232 b 715 97 846 139 799 97 l 311 97 b 176 232 224 97 176 139 l 176 460 b 311 596 176 554 224 596 l 715 596 b 846 460 799 596 846 554 z "},"e":{"ha":1014,"x_min":0,"x_max":0,"o":"m 885 303 b 951 369 932 303 951 324 l 951 463 b 711 700 951 615 868 700 l 303 700 b 63 464 146 700 63 617 l 63 229 b 303 -7 63 76 146 -7 l 682 -7 b 933 86 839 -7 892 26 b 931 114 942 99 943 107 l 893 132 b 857 132 878 140 868 139 b 679 97 801 101 778 97 l 313 97 b 176 232 224 97 176 138 l 176 303 z m 313 596 l 701 596 b 838 460 790 596 838 554 l 838 390 l 176 390 l 176 460 b 313 596 176 554 224 596 z "},"é":{"ha":1014,"x_min":0,"x_max":0,"o":"m 471 763 l 536 763 b 569 788 550 763 558 772 l 694 947 b 688 972 707 963 703 972 l 581 972 b 549 947 567 972 558 964 l 461 788 b 471 763 451 772 457 763 z m 885 303 b 951 369 932 303 951 324 l 951 463 b 711 700 951 615 868 700 l 303 700 b 63 464 146 700 63 617 l 63 229 b 303 -7 63 76 146 -7 l 682 -7 b 933 86 839 -7 892 26 b 931 114 942 99 943 107 l 893 132 b 857 132 878 140 868 139 b 679 97 801 101 778 97 l 313 97 b 176 232 224 97 176 138 l 176 303 z m 313 596 l 701 596 b 838 460 790 596 838 554 l 838 390 l 176 390 l 176 460 b 313 596 176 554 224 596 z "},"ě":{"ha":1014,"x_min":0,"x_max":0,"o":"m 428 783 b 464 764 440 769 449 764 l 543 764 b 582 783 558 764 569 768 l 726 949 b 717 972 738 960 731 972 l 646 972 b 607 949 629 972 621 967 l 513 842 l 499 842 l 404 949 b 365 972 389 967 381 972 l 293 972 b 283 949 279 972 274 960 z m 885 303 b 951 369 932 303 951 324 l 951 463 b 711 700 951 615 868 700 l 303 700 b 63 464 146 700 63 617 l 63 229 b 303 -7 63 76 146 -7 l 682 -7 b 933 86 839 -7 892 26 b 931 114 942 99 943 107 l 893 132 b 857 132 878 140 868 139 b 679 97 801 101 778 97 l 313 97 b 176 232 224 97 176 138 l 176 303 z m 313 596 l 701 596 b 838 460 790 596 838 554 l 838 390 l 176 390 l 176 460 b 313 596 176 554 224 596 z "},"ȩ":{"ha":1014,"x_min":0,"x_max":0,"o":"m 885 303 b 951 369 932 303 951 324 l 951 463 b 711 700 951 615 868 700 l 303 700 b 63 464 146 700 63 617 l 63 229 b 303 -7 63 76 146 -7 l 457 -7 b 407 -82 422 -42 407 -60 b 463 -129 407 -114 432 -126 b 603 -172 569 -140 603 -143 b 544 -208 603 -201 586 -208 l 515 -208 b 457 -167 474 -208 460 -194 b 443 -156 457 -160 450 -156 l 379 -156 b 367 -171 369 -156 367 -161 b 488 -281 367 -239 396 -281 l 568 -281 b 694 -172 657 -281 694 -244 b 557 -65 694 -85 643 -75 b 561 -7 522 -62 500 -57 l 682 -7 b 933 86 839 -7 892 26 b 931 114 942 99 943 107 l 893 132 b 857 132 878 140 868 139 b 679 97 801 101 778 97 l 313 97 b 176 232 224 97 176 138 l 176 303 z m 313 596 l 701 596 b 838 460 790 596 838 554 l 838 390 l 176 390 l 176 460 b 313 596 176 554 224 596 z "},"ê":{"ha":1014,"x_min":0,"x_max":0,"o":"m 293 764 l 365 764 b 404 788 381 764 389 769 l 499 894 l 513 894 l 607 788 b 646 764 621 769 629 764 l 717 764 b 726 788 731 764 738 776 l 582 954 b 543 972 569 968 558 972 l 464 972 b 428 954 449 972 440 968 l 283 788 b 293 764 274 776 279 764 z m 885 303 b 951 369 932 303 951 324 l 951 463 b 711 700 951 615 868 700 l 303 700 b 63 464 146 700 63 617 l 63 229 b 303 -7 63 76 146 -7 l 682 -7 b 933 86 839 -7 892 26 b 931 114 942 99 943 107 l 893 132 b 857 132 878 140 868 139 b 679 97 801 101 778 97 l 313 97 b 176 232 224 97 176 138 l 176 303 z m 313 596 l 701 596 b 838 460 790 596 838 554 l 838 390 l 176 390 l 176 460 b 313 596 176 554 224 596 z "},"ë":{"ha":1014,"x_min":0,"x_max":0,"o":"m 282 851 l 365 851 b 383 869 379 851 383 856 l 383 953 b 365 972 383 967 379 972 l 282 972 b 263 953 268 972 263 967 l 263 869 b 282 851 263 856 268 851 z m 615 851 l 699 851 b 718 869 713 851 718 856 l 718 953 b 699 972 718 967 713 972 l 615 972 b 597 953 601 972 597 967 l 597 869 b 615 851 597 856 601 851 z m 885 303 b 951 369 932 303 951 324 l 951 463 b 711 700 951 615 868 700 l 303 700 b 63 464 146 700 63 617 l 63 229 b 303 -7 63 76 146 -7 l 682 -7 b 933 86 839 -7 892 26 b 931 114 942 99 943 107 l 893 132 b 857 132 878 140 868 139 b 679 97 801 101 778 97 l 313 97 b 176 232 224 97 176 138 l 176 303 z m 313 596 l 701 596 b 838 460 790 596 838 554 l 838 390 l 176 390 l 176 460 b 313 596 176 554 224 596 z "},"ė":{"ha":1014,"x_min":0,"x_max":0,"o":"m 463 851 l 546 851 b 564 869 560 851 564 856 l 564 953 b 546 972 564 967 560 972 l 463 972 b 443 953 449 972 443 967 l 443 869 b 463 851 443 856 449 851 z m 885 303 b 951 369 932 303 951 324 l 951 463 b 711 700 951 615 868 700 l 303 700 b 63 464 146 700 63 617 l 63 229 b 303 -7 63 76 146 -7 l 682 -7 b 933 86 839 -7 892 26 b 931 114 942 99 943 107 l 893 132 b 857 132 878 140 868 139 b 679 97 801 101 778 97 l 313 97 b 176 232 224 97 176 138 l 176 303 z m 313 596 l 701 596 b 838 460 790 596 838 554 l 838 390 l 176 390 l 176 460 b 313 596 176 554 224 596 z "},"è":{"ha":1014,"x_min":0,"x_max":0,"o":"m 440 786 b 472 763 451 771 458 763 l 536 763 b 549 788 551 763 558 772 l 463 947 b 433 972 453 964 447 972 l 329 972 b 315 947 314 972 303 963 z m 885 303 b 951 369 932 303 951 324 l 951 463 b 711 700 951 615 868 700 l 303 700 b 63 464 146 700 63 617 l 63 229 b 303 -7 63 76 146 -7 l 682 -7 b 933 86 839 -7 892 26 b 931 114 942 99 943 107 l 893 132 b 857 132 878 140 868 139 b 679 97 801 101 778 97 l 313 97 b 176 232 224 97 176 138 l 176 303 z m 313 596 l 701 596 b 838 460 790 596 838 554 l 838 390 l 176 390 l 176 460 b 313 596 176 554 224 596 z "},"ē":{"ha":1014,"x_min":0,"x_max":0,"o":"m 279 867 l 729 867 b 750 888 742 867 750 874 l 750 951 b 729 972 750 965 742 972 l 279 972 b 258 951 265 972 258 965 l 258 888 b 279 867 258 874 265 867 z m 885 303 b 951 369 932 303 951 324 l 951 463 b 711 700 951 615 868 700 l 303 700 b 63 464 146 700 63 617 l 63 229 b 303 -7 63 76 146 -7 l 682 -7 b 933 86 839 -7 892 26 b 931 114 942 99 943 107 l 893 132 b 857 132 878 140 868 139 b 679 97 801 101 778 97 l 313 97 b 176 232 224 97 176 138 l 176 303 z m 313 596 l 701 596 b 838 460 790 596 838 554 l 838 390 l 176 390 l 176 460 b 313 596 176 554 224 596 z "},"ę":{"ha":1014,"x_min":0,"x_max":0,"o":"m 885 303 b 951 369 932 303 951 324 l 951 463 b 711 700 951 615 868 700 l 303 700 b 63 464 146 700 63 617 l 63 229 b 303 -7 63 76 146 -7 l 540 -7 l 540 -19 b 494 -58 540 -49 531 -56 l 438 -65 b 329 -171 356 -75 329 -85 b 460 -283 329 -258 357 -283 l 622 -283 b 636 -269 632 -283 636 -278 l 636 -219 b 622 -204 636 -210 631 -204 l 479 -204 b 432 -168 442 -204 432 -196 b 461 -136 432 -142 440 -139 l 576 -122 b 654 -40 632 -115 654 -103 l 654 -7 l 682 -7 b 933 86 839 -7 892 26 b 931 114 942 99 943 107 l 893 132 b 857 132 878 140 868 139 b 679 97 801 101 778 97 l 313 97 b 176 232 224 97 176 138 l 176 303 z m 313 596 l 701 596 b 838 460 790 596 838 554 l 838 390 l 176 390 l 176 460 b 313 596 176 554 224 596 z "},"f":{"ha":838,"x_min":0,"x_max":0,"o":"m 768 972 l 386 972 b 146 735 229 972 146 888 l 146 694 l 76 694 b 56 674 63 694 56 688 l 56 611 b 76 590 56 597 63 590 l 146 590 l 146 21 b 167 0 146 7 153 0 l 239 0 b 260 21 253 0 260 7 l 260 590 l 754 590 b 775 611 768 590 775 597 l 775 674 b 754 694 775 688 768 694 l 260 694 l 260 732 b 394 868 260 826 307 868 l 768 868 b 789 889 782 868 789 875 l 789 951 b 768 972 789 965 782 972 z "},"g":{"ha":1028,"x_min":0,"x_max":0,"o":"m 214 -251 l 718 -251 b 958 -14 875 -251 958 -167 l 958 675 b 939 694 958 689 953 694 l 865 694 b 846 675 853 694 846 689 l 846 624 l 835 624 b 647 700 797 674 764 700 l 303 700 b 63 463 146 700 63 615 l 63 231 b 303 -7 63 78 146 -7 l 647 -7 b 835 69 764 -7 797 19 l 846 69 l 846 -8 b 697 -156 846 -111 797 -156 l 214 -156 b 194 -176 200 -156 194 -161 l 194 -232 b 214 -251 194 -246 200 -251 z m 311 97 b 176 232 224 97 176 139 l 176 460 b 311 596 176 554 224 596 l 715 596 b 846 460 799 596 846 554 l 846 232 b 715 97 846 139 799 97 z "},"ğ":{"ha":1028,"x_min":0,"x_max":0,"o":"m 489 774 l 554 774 b 726 954 671 774 726 833 b 707 972 726 967 721 972 l 651 972 b 632 954 638 972 632 967 b 542 857 629 900 604 857 l 500 857 b 410 954 438 857 413 900 b 392 972 410 967 406 972 l 335 972 b 315 954 321 972 315 967 b 489 774 315 833 372 774 z m 214 -251 l 718 -251 b 958 -14 875 -251 958 -167 l 958 675 b 939 694 958 689 953 694 l 865 694 b 846 675 853 694 846 689 l 846 624 l 835 624 b 647 700 797 674 764 700 l 303 700 b 63 463 146 700 63 615 l 63 231 b 303 -7 63 78 146 -7 l 647 -7 b 835 69 764 -7 797 19 l 846 69 l 846 -8 b 697 -156 846 -111 797 -156 l 214 -156 b 194 -176 200 -156 194 -161 l 194 -232 b 214 -251 194 -246 200 -251 z m 311 97 b 176 232 224 97 176 139 l 176 460 b 311 596 176 554 224 596 l 715 596 b 846 460 799 596 846 554 l 846 232 b 715 97 846 139 799 97 z "},"ǧ":{"ha":1028,"x_min":0,"x_max":0,"o":"m 481 764 l 560 764 b 599 783 575 764 586 768 l 743 949 b 733 972 754 960 747 972 l 663 972 b 624 949 646 972 638 967 l 529 842 l 515 842 l 421 949 b 382 972 406 967 397 972 l 310 972 b 300 949 296 972 290 960 l 444 783 b 481 764 457 769 465 764 z m 214 -251 l 718 -251 b 958 -14 875 -251 958 -167 l 958 675 b 939 694 958 689 953 694 l 865 694 b 846 675 853 694 846 689 l 846 624 l 835 624 b 647 700 797 674 764 700 l 303 700 b 63 463 146 700 63 615 l 63 231 b 303 -7 63 78 146 -7 l 647 -7 b 835 69 764 -7 797 19 l 846 69 l 846 -8 b 697 -156 846 -111 797 -156 l 214 -156 b 194 -176 200 -156 194 -161 l 194 -232 b 214 -251 194 -246 200 -251 z m 311 97 b 176 232 224 97 176 139 l 176 460 b 311 596 176 554 224 596 l 715 596 b 846 460 799 596 846 554 l 846 232 b 715 97 846 139 799 97 z "},"ģ":{"ha":1042,"x_min":0,"x_max":0,"o":"m 435 800 l 497 800 b 517 819 511 800 517 806 l 517 1031 l 564 1031 b 583 1050 578 1031 583 1036 l 583 1108 b 564 1126 583 1122 578 1126 l 454 1126 b 415 1088 428 1126 415 1114 l 415 819 b 435 800 415 806 421 800 z m 214 -251 l 718 -251 b 958 -14 875 -251 958 -167 l 958 675 b 939 694 958 689 953 694 l 865 694 b 846 675 853 694 846 689 l 846 624 l 835 624 b 647 700 797 674 764 700 l 303 700 b 63 463 146 700 63 615 l 63 231 b 303 -7 63 78 146 -7 l 647 -7 b 835 69 764 -7 797 19 l 846 69 l 846 -8 b 697 -156 846 -111 797 -156 l 214 -156 b 194 -176 200 -156 194 -161 l 194 -232 b 214 -251 194 -246 200 -251 z m 311 97 b 176 232 224 97 176 139 l 176 460 b 311 596 176 554 224 596 l 715 596 b 846 460 799 596 846 554 l 846 232 b 715 97 846 139 799 97 z "},"ġ":{"ha":1028,"x_min":0,"x_max":0,"o":"m 479 851 l 563 851 b 581 869 576 851 581 856 l 581 953 b 563 972 581 967 576 972 l 479 972 b 460 953 465 972 460 967 l 460 869 b 479 851 460 856 465 851 z m 214 -251 l 718 -251 b 958 -14 875 -251 958 -167 l 958 675 b 939 694 958 689 953 694 l 865 694 b 846 675 853 694 846 689 l 846 624 l 835 624 b 647 700 797 674 764 700 l 303 700 b 63 463 146 700 63 615 l 63 231 b 303 -7 63 78 146 -7 l 647 -7 b 835 69 764 -7 797 19 l 846 69 l 846 -8 b 697 -156 846 -111 797 -156 l 214 -156 b 194 -176 200 -156 194 -161 l 194 -232 b 214 -251 194 -246 200 -251 z m 311 97 b 176 232 224 97 176 139 l 176 460 b 311 596 176 554 224 596 l 715 596 b 846 460 799 596 846 554 l 846 232 b 715 97 846 139 799 97 z "},"h":{"ha":1035,"x_min":0,"x_max":0,"o":"m 725 700 l 381 700 b 193 624 264 700 231 674 l 183 624 l 183 953 b 163 972 183 967 176 972 l 89 972 b 69 953 75 972 69 967 l 69 19 b 89 0 69 6 75 0 l 163 0 b 183 19 176 0 183 6 l 183 460 b 318 596 183 554 229 596 l 715 596 b 853 460 804 596 853 554 l 853 19 b 872 0 853 6 858 0 l 946 0 b 965 19 960 0 965 6 l 965 463 b 725 700 965 615 882 700 z "},"ħ":{"ha":1076,"x_min":0,"x_max":0,"o":"m 767 700 l 422 700 b 235 624 306 700 272 674 l 225 624 l 225 764 l 407 764 b 428 785 421 764 428 771 l 428 839 b 407 860 428 853 421 860 l 225 860 l 225 953 b 204 972 225 967 218 972 l 131 972 b 111 953 117 972 111 967 l 111 860 l 63 860 b 42 839 49 860 42 853 l 42 785 b 63 764 42 771 49 764 l 111 764 l 111 19 b 131 0 111 6 117 0 l 204 0 b 225 19 218 0 225 6 l 225 460 b 360 596 225 554 271 596 l 757 596 b 894 460 846 596 894 554 l 894 19 b 914 0 894 6 900 0 l 988 0 b 1007 19 1001 0 1007 6 l 1007 463 b 767 700 1007 615 924 700 z "},"i":{"ha":253,"x_min":0,"x_max":0,"o":"m 69 953 l 69 881 b 89 861 69 867 75 861 l 163 861 b 183 881 176 861 183 867 l 183 953 b 163 972 183 967 176 972 l 89 972 b 69 953 75 972 69 967 z m 69 675 l 69 19 b 89 0 69 6 75 0 l 163 0 b 183 19 176 0 183 6 l 183 675 b 163 694 183 689 176 694 l 89 694 b 69 675 75 694 69 689 z "},"ı":{"ha":253,"x_min":0,"x_max":0,"o":"m 69 675 l 69 19 b 89 0 69 6 75 0 l 163 0 b 183 19 176 0 183 6 l 183 675 b 163 694 183 689 176 694 l 89 694 b 69 675 75 694 69 689 z "},"í":{"ha":253,"x_min":0,"x_max":0,"o":"m 168 947 l 81 788 b 90 763 71 772 76 763 l 156 763 b 189 788 169 763 178 772 l 314 947 b 307 972 326 963 322 972 l 200 972 b 168 947 186 972 178 964 z m 69 675 l 69 19 b 89 0 69 6 75 0 l 163 0 b 183 19 176 0 183 6 l 183 675 b 163 694 183 689 176 694 l 89 694 b 69 675 75 694 69 689 z "},"ǐ":{"ha":253,"x_min":0,"x_max":0,"o":"m 85 764 l 164 764 b 203 783 179 764 190 768 l 347 949 b 338 972 358 960 351 972 l 267 972 b 228 949 250 972 242 967 l 133 842 l 119 842 l 25 949 b -14 972 10 967 1 972 l -86 972 b -96 949 -100 972 -106 960 l 49 783 b 85 764 61 769 69 764 z m 69 675 l 69 19 b 89 0 69 6 75 0 l 163 0 b 183 19 176 0 183 6 l 183 675 b 163 694 183 689 176 694 l 89 694 b 69 675 75 694 69 689 z "},"î":{"ha":253,"x_min":0,"x_max":0,"o":"m 85 972 b 49 954 69 972 61 968 l -96 788 b -86 764 -106 776 -100 764 l -14 764 b 25 788 1 764 10 769 l 119 894 l 133 894 l 228 788 b 267 764 242 769 250 764 l 338 764 b 347 788 351 764 358 776 l 203 954 b 164 972 190 968 179 972 z m 69 675 l 69 19 b 89 0 69 6 75 0 l 163 0 b 183 19 176 0 183 6 l 183 675 b 163 694 183 689 176 694 l 89 694 b 69 675 75 694 69 689 z "},"ï":{"ha":253,"x_min":0,"x_max":0,"o":"m -99 851 l -15 851 b 3 869 -1 851 3 856 l 3 953 b -15 972 3 967 -1 972 l -99 972 b -118 953 -112 972 -118 967 l -118 869 b -99 851 -118 856 -112 851 z m 235 851 l 318 851 b 338 869 332 851 338 856 l 338 953 b 318 972 338 967 332 972 l 235 972 b 217 953 221 972 217 967 l 217 869 b 235 851 217 856 221 851 z m 69 675 l 69 19 b 89 0 69 6 75 0 l 163 0 b 183 19 176 0 183 6 l 183 675 b 163 694 183 689 176 694 l 89 694 b 69 675 75 694 69 689 z "},"ì":{"ha":253,"x_min":0,"x_max":0,"o":"m 82 947 b 53 972 72 964 67 972 l -51 972 b -65 947 -67 972 -78 963 l 60 786 b 92 763 71 771 78 763 l 156 763 b 168 788 171 763 178 772 z m 69 675 l 69 19 b 89 0 69 6 75 0 l 163 0 b 183 19 176 0 183 6 l 183 675 b 163 694 183 689 176 694 l 89 694 b 69 675 75 694 69 689 z "},"ĳ":{"ha":540,"x_min":0,"x_max":0,"o":"m 69 953 l 69 881 b 89 861 69 867 75 861 l 163 861 b 183 881 176 861 183 867 l 183 953 b 163 972 183 967 176 972 l 89 972 b 69 953 75 972 69 967 z m 378 861 l 451 861 b 471 881 465 861 471 867 l 471 953 b 451 972 471 967 465 972 l 378 972 b 357 953 364 972 357 967 l 357 881 b 378 861 357 867 364 861 z m 69 675 l 69 19 b 89 0 69 6 75 0 l 163 0 b 183 19 176 0 183 6 l 183 675 b 163 694 183 689 176 694 l 89 694 b 69 675 75 694 69 689 z m 235 -251 b 471 -14 388 -251 471 -167 l 471 675 b 451 694 471 689 465 694 l 378 694 b 357 675 364 694 357 689 l 357 -4 b 215 -149 357 -106 311 -149 l 149 -149 b 128 -167 136 -149 128 -154 l 128 -222 b 150 -246 128 -237 136 -244 b 235 -251 176 -250 200 -251 z "},"ī":{"ha":253,"x_min":0,"x_max":0,"o":"m -100 867 l 350 867 b 371 888 363 867 371 874 l 371 951 b 350 972 371 965 363 972 l -100 972 b -121 951 -114 972 -121 965 l -121 888 b -100 867 -121 874 -114 867 z m 69 675 l 69 19 b 89 0 69 6 75 0 l 163 0 b 183 19 176 0 183 6 l 183 675 b 163 694 183 689 176 694 l 89 694 b 69 675 75 694 69 689 z "},"į":{"ha":253,"x_min":0,"x_max":0,"o":"m 167 972 l 83 972 b 64 953 69 972 64 967 l 64 869 b 83 851 64 856 69 851 l 167 851 b 185 869 181 851 185 856 l 185 953 b 167 972 185 967 181 972 z m 163 694 l 89 694 b 69 675 75 694 69 689 l 69 -19 b 24 -58 69 -49 60 -56 l -33 -65 b -142 -171 -115 -75 -142 -85 b -11 -283 -142 -258 -114 -283 l 151 -283 b 165 -269 161 -283 165 -278 l 165 -219 b 151 -204 165 -210 160 -204 l 8 -204 b -39 -168 -29 -204 -39 -196 b -10 -136 -39 -142 -31 -139 l 106 -122 b 183 -40 161 -115 183 -103 l 183 675 b 163 694 183 689 176 694 z "},"j":{"ha":260,"x_min":0,"x_max":0,"o":"m 97 861 l 171 861 b 190 881 185 861 190 867 l 190 953 b 171 972 190 967 185 972 l 97 972 b 76 953 83 972 76 967 l 76 881 b 97 861 76 867 83 861 z m -46 -251 b 190 -14 107 -251 190 -167 l 190 675 b 171 694 190 689 185 694 l 97 694 b 76 675 83 694 76 689 l 76 -4 b -65 -149 76 -106 31 -149 l -132 -149 b -153 -167 -144 -149 -153 -154 l -153 -222 b -131 -246 -153 -237 -144 -244 b -46 -251 -104 -250 -81 -251 z "},"ȷ":{"ha":260,"x_min":0,"x_max":0,"o":"m -46 -251 b 190 -14 107 -251 190 -167 l 190 675 b 171 694 190 689 185 694 l 97 694 b 76 675 83 694 76 689 l 76 -4 b -65 -149 76 -106 31 -149 l -132 -149 b -153 -167 -144 -149 -153 -154 l -153 -222 b -131 -246 -153 -237 -144 -244 b -46 -251 -104 -250 -81 -251 z "},"k":{"ha":1007,"x_min":0,"x_max":0,"o":"m 957 31 l 465 392 l 932 660 b 926 694 953 672 946 694 l 822 694 b 778 679 804 694 792 688 l 183 335 l 183 953 b 163 972 183 967 176 972 l 89 972 b 69 953 75 972 69 967 l 69 19 b 89 0 69 6 75 0 l 163 0 b 183 19 176 0 183 6 l 183 231 l 376 342 l 813 21 b 863 0 826 8 843 0 l 946 0 b 957 31 965 0 971 19 z "},"ķ":{"ha":1007,"x_min":0,"x_max":0,"o":"m 957 31 l 465 392 l 932 660 b 926 694 953 672 946 694 l 822 694 b 778 679 804 694 792 688 l 183 335 l 183 953 b 163 972 183 967 176 972 l 89 972 b 69 953 75 972 69 967 l 69 19 b 89 0 69 6 75 0 l 163 0 b 183 19 176 0 183 6 l 183 231 l 376 342 l 813 21 b 863 0 826 8 843 0 l 946 0 b 957 31 965 0 971 19 z m 500 -83 l 438 -83 b 418 -103 424 -83 418 -89 l 418 -314 l 371 -314 b 351 -333 357 -314 351 -319 l 351 -390 b 371 -410 351 -404 357 -410 l 481 -410 b 519 -371 507 -410 519 -397 l 519 -103 b 500 -83 519 -89 514 -83 z "},"l":{"ha":253,"x_min":0,"x_max":0,"o":"m 69 953 l 69 19 b 89 0 69 6 75 0 l 163 0 b 183 19 176 0 183 6 l 183 953 b 163 972 183 967 176 972 l 89 972 b 69 953 75 972 69 967 z "},"ĺ":{"ha":253,"x_min":0,"x_max":0,"o":"m 169 1225 l 82 1065 b 92 1040 72 1050 78 1040 l 157 1040 b 190 1065 171 1040 179 1050 l 315 1225 b 308 1250 328 1240 324 1250 l 201 1250 b 169 1225 188 1250 179 1242 z m 69 953 l 69 19 b 89 0 69 6 75 0 l 163 0 b 183 19 176 0 183 6 l 183 953 b 163 972 183 967 176 972 l 89 972 b 69 953 75 972 69 967 z "},"ľ":{"ha":343,"x_min":0,"x_max":0,"o":"m 69 953 l 69 19 b 89 0 69 6 75 0 l 163 0 b 183 19 176 0 183 6 l 183 953 b 163 972 183 967 176 972 l 89 972 b 69 953 75 972 69 967 z m 379 972 l 317 972 b 297 953 303 972 297 967 l 297 742 l 250 742 b 231 722 236 742 231 736 l 231 665 b 250 646 231 651 236 646 l 360 646 b 399 685 386 646 399 658 l 399 953 b 379 972 399 967 393 972 z "},"ļ":{"ha":253,"x_min":0,"x_max":0,"o":"m 69 953 l 69 19 b 89 0 69 6 75 0 l 163 0 b 183 19 176 0 183 6 l 183 953 b 163 972 183 967 176 972 l 89 972 b 69 953 75 972 69 967 z m 157 -83 l 94 -83 b 75 -103 81 -83 75 -89 l 75 -314 l 28 -314 b 8 -333 14 -314 8 -319 l 8 -390 b 28 -410 8 -404 14 -410 l 138 -410 b 176 -371 164 -410 176 -397 l 176 -103 b 157 -83 176 -89 171 -83 z "},"ŀ":{"ha":349,"x_min":0,"x_max":0,"o":"m 69 953 l 69 19 b 89 0 69 6 75 0 l 163 0 b 183 19 176 0 183 6 l 183 953 b 163 972 183 967 176 972 l 89 972 b 69 953 75 972 69 967 z m 269 426 l 353 426 b 372 446 367 426 372 432 l 372 528 b 353 547 372 542 367 547 l 269 547 b 251 528 256 547 251 542 l 251 446 b 269 426 251 432 256 426 z "},"ł":{"ha":321,"x_min":0,"x_max":0,"o":"m 310 622 l 250 622 b 218 604 239 622 232 619 l 218 953 b 197 972 218 967 211 972 l 124 972 b 104 953 110 972 104 967 l 104 485 l -1 374 b 11 349 -12 361 -6 349 l 71 349 b 104 368 82 349 90 354 l 104 19 b 124 0 104 6 110 0 l 197 0 b 218 19 211 0 218 6 l 218 489 l 321 597 b 310 622 333 611 326 622 z "},"m":{"ha":1614,"x_min":0,"x_max":0,"o":"m 1303 700 l 1047 700 b 839 610 929 700 874 669 l 825 610 b 622 700 786 668 718 700 l 381 700 b 193 624 264 700 231 674 l 183 624 l 183 675 b 164 694 183 689 175 694 l 89 694 b 69 675 75 694 69 689 l 69 19 b 89 0 69 6 75 0 l 163 0 b 183 19 176 0 183 6 l 183 460 b 318 596 183 554 229 596 l 613 596 b 750 460 703 596 750 554 l 750 19 b 769 0 750 6 756 0 l 843 0 b 864 19 857 0 864 6 l 864 460 b 999 596 864 554 910 596 l 1293 596 b 1431 460 1383 596 1431 554 l 1431 19 b 1450 0 1431 6 1436 0 l 1524 0 b 1544 19 1538 0 1544 6 l 1544 463 b 1303 700 1544 615 1460 700 z "},"ḿ":{"ha":1614,"x_min":0,"x_max":0,"o":"m 772 763 l 838 763 b 871 788 851 763 860 772 l 996 947 b 989 972 1008 963 1004 972 l 882 972 b 850 947 868 972 860 964 l 763 788 b 772 763 753 772 758 763 z m 1303 700 l 1047 700 b 839 610 929 700 874 669 l 825 610 b 622 700 786 668 718 700 l 381 700 b 193 624 264 700 231 674 l 183 624 l 183 675 b 164 694 183 689 175 694 l 89 694 b 69 675 75 694 69 689 l 69 19 b 89 0 69 6 75 0 l 163 0 b 183 19 176 0 183 6 l 183 460 b 318 596 183 554 229 596 l 613 596 b 750 460 703 596 750 554 l 750 19 b 769 0 750 6 756 0 l 843 0 b 864 19 857 0 864 6 l 864 460 b 999 596 864 554 910 596 l 1293 596 b 1431 460 1383 596 1431 554 l 1431 19 b 1450 0 1431 6 1436 0 l 1524 0 b 1544 19 1538 0 1544 6 l 1544 463 b 1303 700 1544 615 1460 700 z "},"n":{"ha":1035,"x_min":0,"x_max":0,"o":"m 89 0 l 163 0 b 183 19 176 0 183 6 l 183 460 b 318 596 183 554 229 596 l 715 596 b 853 460 804 596 853 554 l 853 19 b 872 0 853 6 858 0 l 946 0 b 965 19 960 0 965 6 l 965 463 b 725 700 965 615 882 700 l 381 700 b 193 624 264 700 231 674 l 183 624 l 183 675 b 164 694 183 689 175 694 l 89 694 b 69 675 75 694 69 689 l 69 19 b 89 0 69 6 75 0 z "},"ń":{"ha":1035,"x_min":0,"x_max":0,"o":"m 561 947 l 474 788 b 483 763 464 772 469 763 l 549 763 b 582 788 563 763 571 772 l 707 947 b 700 972 719 963 715 972 l 593 972 b 561 947 579 972 571 964 z m 89 0 l 163 0 b 183 19 176 0 183 6 l 183 460 b 318 596 183 554 229 596 l 715 596 b 853 460 804 596 853 554 l 853 19 b 872 0 853 6 858 0 l 946 0 b 965 19 960 0 965 6 l 965 463 b 725 700 965 615 882 700 l 381 700 b 193 624 264 700 231 674 l 183 624 l 183 675 b 164 694 183 689 175 694 l 89 694 b 69 675 75 694 69 689 l 69 19 b 89 0 69 6 75 0 z "},"ň":{"ha":1035,"x_min":0,"x_max":0,"o":"m 476 764 l 556 764 b 594 783 571 764 582 768 l 739 949 b 729 972 750 960 743 972 l 658 972 b 619 949 642 972 633 967 l 525 842 l 511 842 l 417 949 b 378 972 401 967 393 972 l 306 972 b 296 949 292 972 286 960 l 440 783 b 476 764 453 769 461 764 z m 89 0 l 163 0 b 183 19 176 0 183 6 l 183 460 b 318 596 183 554 229 596 l 715 596 b 853 460 804 596 853 554 l 853 19 b 872 0 853 6 858 0 l 946 0 b 965 19 960 0 965 6 l 965 463 b 725 700 965 615 882 700 l 381 700 b 193 624 264 700 231 674 l 183 624 l 183 675 b 164 694 183 689 175 694 l 89 694 b 69 675 75 694 69 689 l 69 19 b 89 0 69 6 75 0 z "},"ņ":{"ha":1035,"x_min":0,"x_max":0,"o":"m 89 0 l 163 0 b 183 19 176 0 183 6 l 183 460 b 318 596 183 554 229 596 l 715 596 b 853 460 804 596 853 554 l 853 19 b 872 0 853 6 858 0 l 946 0 b 965 19 960 0 965 6 l 965 463 b 725 700 965 615 882 700 l 381 700 b 193 624 264 700 231 674 l 183 624 l 183 675 b 164 694 183 689 175 694 l 89 694 b 69 675 75 694 69 689 l 69 19 b 89 0 69 6 75 0 z m 549 -83 l 486 -83 b 467 -103 472 -83 467 -89 l 467 -314 l 419 -314 b 400 -333 406 -314 400 -319 l 400 -390 b 419 -410 400 -404 406 -410 l 529 -410 b 568 -371 556 -410 568 -397 l 568 -103 b 549 -83 568 -89 563 -83 z "},"ŋ":{"ha":1035,"x_min":0,"x_max":0,"o":"m 725 700 l 381 700 b 193 624 264 700 231 674 l 183 624 l 183 675 b 164 694 183 689 175 694 l 89 694 b 69 675 75 694 69 689 l 69 19 b 89 0 69 6 75 0 l 163 0 b 183 19 176 0 183 6 l 183 460 b 318 596 183 554 229 596 l 715 596 b 853 460 804 596 853 554 l 853 -31 b 710 -175 853 -132 806 -175 l 643 -175 b 622 -193 631 -175 622 -181 l 622 -249 b 644 -272 622 -264 631 -271 b 731 -278 671 -276 694 -278 b 965 -40 883 -278 965 -193 l 965 463 b 725 700 965 615 882 700 z "},"ñ":{"ha":1035,"x_min":0,"x_max":0,"o":"m 615 817 b 738 857 657 817 696 828 b 749 882 749 864 754 871 l 725 938 b 703 943 721 946 714 950 b 621 917 669 924 650 917 b 419 979 543 917 513 979 b 297 939 378 979 339 968 b 286 914 286 932 282 924 l 310 858 b 333 853 314 849 321 846 b 415 879 365 872 386 879 b 615 817 492 879 522 817 z m 89 0 l 163 0 b 183 19 176 0 183 6 l 183 460 b 318 596 183 554 229 596 l 715 596 b 853 460 804 596 853 554 l 853 19 b 872 0 853 6 858 0 l 946 0 b 965 19 960 0 965 6 l 965 463 b 725 700 965 615 882 700 l 381 700 b 193 624 264 700 231 674 l 183 624 l 183 675 b 164 694 183 689 175 694 l 89 694 b 69 675 75 694 69 689 l 69 19 b 89 0 69 6 75 0 z "},"o":{"ha":1021,"x_min":0,"x_max":0,"o":"m 303 -7 l 719 -7 b 958 229 876 -7 958 76 l 958 464 b 719 700 958 617 876 700 l 303 700 b 63 464 146 700 63 617 l 63 229 b 303 -7 63 76 146 -7 z m 313 97 b 176 232 224 97 176 139 l 176 460 b 313 596 176 554 224 596 l 708 596 b 846 460 797 596 846 554 l 846 232 b 708 97 846 139 797 97 z "},"ó":{"ha":1021,"x_min":0,"x_max":0,"o":"m 550 947 l 463 788 b 472 763 453 772 458 763 l 538 763 b 571 788 551 763 560 772 l 696 947 b 689 972 708 963 704 972 l 582 972 b 550 947 568 972 560 964 z m 303 -7 l 719 -7 b 958 229 876 -7 958 76 l 958 464 b 719 700 958 617 876 700 l 303 700 b 63 464 146 700 63 617 l 63 229 b 303 -7 63 76 146 -7 z m 313 97 b 176 232 224 97 176 139 l 176 460 b 313 596 176 554 224 596 l 708 596 b 846 460 797 596 846 554 l 846 232 b 708 97 846 139 797 97 z "},"ǒ":{"ha":1021,"x_min":0,"x_max":0,"o":"m 465 764 l 544 764 b 583 783 560 764 571 768 l 728 949 b 718 972 739 960 732 972 l 647 972 b 608 949 631 972 622 967 l 514 842 l 500 842 l 406 949 b 367 972 390 967 382 972 l 294 972 b 285 949 281 972 275 960 l 429 783 b 465 764 442 769 450 764 z m 303 -7 l 719 -7 b 958 229 876 -7 958 76 l 958 464 b 719 700 958 617 876 700 l 303 700 b 63 464 146 700 63 617 l 63 229 b 303 -7 63 76 146 -7 z m 313 97 b 176 232 224 97 176 139 l 176 460 b 313 596 176 554 224 596 l 708 596 b 846 460 797 596 846 554 l 846 232 b 708 97 846 139 797 97 z "},"ô":{"ha":1021,"x_min":0,"x_max":0,"o":"m 465 972 b 429 954 450 972 442 968 l 285 788 b 294 764 275 776 281 764 l 367 764 b 406 788 382 764 390 769 l 500 894 l 514 894 l 608 788 b 647 764 622 769 631 764 l 718 764 b 728 788 732 764 739 776 l 583 954 b 544 972 571 968 560 972 z m 303 -7 l 719 -7 b 958 229 876 -7 958 76 l 958 464 b 719 700 958 617 876 700 l 303 700 b 63 464 146 700 63 617 l 63 229 b 303 -7 63 76 146 -7 z m 313 97 b 176 232 224 97 176 139 l 176 460 b 313 596 176 554 224 596 l 708 596 b 846 460 797 596 846 554 l 846 232 b 708 97 846 139 797 97 z "},"ö":{"ha":1021,"x_min":0,"x_max":0,"o":"m 283 851 l 367 851 b 385 869 381 851 385 856 l 385 953 b 367 972 385 967 381 972 l 283 972 b 264 953 269 972 264 967 l 264 869 b 283 851 264 856 269 851 z m 617 851 l 700 851 b 719 869 714 851 719 856 l 719 953 b 700 972 719 967 714 972 l 617 972 b 599 953 603 972 599 967 l 599 869 b 617 851 599 856 603 851 z m 303 -7 l 719 -7 b 958 229 876 -7 958 76 l 958 464 b 719 700 958 617 876 700 l 303 700 b 63 464 146 700 63 617 l 63 229 b 303 -7 63 76 146 -7 z m 313 97 b 176 232 224 97 176 139 l 176 460 b 313 596 176 554 224 596 l 708 596 b 846 460 797 596 846 554 l 846 232 b 708 97 846 139 797 97 z "},"ò":{"ha":1021,"x_min":0,"x_max":0,"o":"m 464 947 b 435 972 454 964 449 972 l 331 972 b 317 947 315 972 304 963 l 442 786 b 474 763 453 771 460 763 l 538 763 b 550 788 553 763 560 772 z m 303 -7 l 719 -7 b 958 229 876 -7 958 76 l 958 464 b 719 700 958 617 876 700 l 303 700 b 63 464 146 700 63 617 l 63 229 b 303 -7 63 76 146 -7 z m 313 97 b 176 232 224 97 176 139 l 176 460 b 313 596 176 554 224 596 l 708 596 b 846 460 797 596 846 554 l 846 232 b 708 97 846 139 797 97 z "},"ő":{"ha":1021,"x_min":0,"x_max":0,"o":"m 443 947 l 356 788 b 365 763 346 772 351 763 l 431 763 b 464 788 444 763 453 772 l 589 947 b 582 972 601 963 597 972 l 475 972 b 443 947 461 972 453 964 z m 656 947 l 567 788 b 578 763 557 772 563 763 l 642 763 b 675 788 656 763 664 772 l 801 947 b 794 972 814 963 808 972 l 686 972 b 656 947 672 972 664 964 z m 303 -7 l 719 -7 b 958 229 876 -7 958 76 l 958 464 b 719 700 958 617 876 700 l 303 700 b 63 464 146 700 63 617 l 63 229 b 303 -7 63 76 146 -7 z m 313 97 b 176 232 224 97 176 139 l 176 460 b 313 596 176 554 224 596 l 708 596 b 846 460 797 596 846 554 l 846 232 b 708 97 846 139 797 97 z "},"ō":{"ha":1021,"x_min":0,"x_max":0,"o":"m 282 867 l 732 867 b 753 888 744 867 753 874 l 753 951 b 732 972 753 965 744 972 l 282 972 b 261 951 268 972 261 965 l 261 888 b 282 867 261 874 268 867 z m 303 -7 l 719 -7 b 958 229 876 -7 958 76 l 958 464 b 719 700 958 617 876 700 l 303 700 b 63 464 146 700 63 617 l 63 229 b 303 -7 63 76 146 -7 z m 313 97 b 176 232 224 97 176 139 l 176 460 b 313 596 176 554 224 596 l 708 596 b 846 460 797 596 846 554 l 846 232 b 708 97 846 139 797 97 z "},"ø":{"ha":1021,"x_min":0,"x_max":0,"o":"m 719 700 l 714 700 l 721 718 b 707 739 726 732 721 739 l 642 739 b 614 718 628 739 619 732 l 607 700 l 303 700 b 63 464 146 700 63 617 l 63 229 b 303 -7 63 78 146 -7 l 308 -7 l 301 -25 b 315 -46 296 -39 301 -46 l 381 -46 b 408 -25 394 -46 403 -39 l 415 -7 l 719 -7 b 958 229 876 -7 958 76 l 958 464 b 719 700 958 617 876 700 z m 313 97 b 176 233 224 97 176 139 l 176 461 b 313 596 176 556 224 596 l 563 596 l 353 97 z m 846 233 b 708 97 846 139 797 97 l 460 97 l 669 596 l 708 596 b 846 461 797 596 846 556 z "},"õ":{"ha":1021,"x_min":0,"x_max":0,"o":"m 604 817 b 726 857 646 817 685 828 b 738 882 738 864 743 871 l 714 938 b 692 943 710 946 703 950 b 610 917 658 924 639 917 b 408 979 532 917 501 979 b 286 939 367 979 328 968 b 275 914 275 932 271 924 l 299 858 b 322 853 303 849 310 846 b 404 879 354 872 375 879 b 604 817 481 879 511 817 z m 303 -7 l 719 -7 b 958 229 876 -7 958 76 l 958 464 b 719 700 958 617 876 700 l 303 700 b 63 464 146 700 63 617 l 63 229 b 303 -7 63 76 146 -7 z m 313 97 b 176 232 224 97 176 139 l 176 460 b 313 596 176 554 224 596 l 708 596 b 846 460 797 596 846 554 l 846 232 b 708 97 846 139 797 97 z "},"œ":{"ha":1797,"x_min":0,"x_max":0,"o":"m 1668 303 b 1735 369 1715 303 1735 324 l 1735 463 b 1494 700 1735 615 1651 700 l 1085 700 b 903 635 1003 700 942 678 b 719 700 863 678 801 700 l 303 700 b 63 464 146 700 63 617 l 63 229 b 303 -7 63 76 146 -7 l 719 -7 b 903 58 801 -7 863 15 b 1085 -7 942 15 1003 -7 l 1465 -7 b 1715 86 1622 -7 1675 26 b 1713 114 1724 99 1726 107 l 1676 132 b 1640 132 1661 140 1651 139 b 1463 97 1585 101 1560 97 l 1096 97 b 958 232 1007 97 958 138 l 958 303 z m 708 97 l 313 97 b 176 232 224 97 176 139 l 176 460 b 313 596 176 554 224 596 l 708 596 b 846 460 797 596 846 554 l 846 232 b 708 97 846 139 797 97 z m 1096 596 l 1483 596 b 1621 460 1574 596 1621 554 l 1621 390 l 958 390 l 958 460 b 1096 596 958 554 1007 596 z "},"p":{"ha":1028,"x_min":0,"x_max":0,"o":"m 164 -246 b 183 -226 175 -246 183 -240 l 183 69 l 193 69 b 381 -7 231 19 264 -7 l 725 -7 b 965 231 882 -7 965 78 l 965 463 b 725 700 965 615 882 700 l 381 700 b 193 624 264 700 231 674 l 183 624 l 183 675 b 163 694 183 689 176 694 l 89 694 b 69 675 75 694 69 689 l 69 -226 b 89 -246 69 -240 75 -246 z m 718 97 l 313 97 b 183 233 229 97 183 139 l 183 461 b 313 596 183 554 229 596 l 718 596 b 853 461 804 596 853 554 l 853 233 b 718 97 853 139 804 97 z "},"þ":{"ha":1028,"x_min":0,"x_max":0,"o":"m 721 700 l 346 700 b 183 614 258 700 210 667 l 183 988 b 163 1008 183 1001 176 1008 l 90 1008 b 69 988 76 1008 69 1001 l 69 -257 b 90 -278 69 -271 76 -278 l 164 -278 b 183 -257 176 -278 183 -271 l 183 86 b 346 -7 210 31 258 -7 l 721 -7 b 965 244 869 -7 965 94 l 965 447 b 721 700 965 600 869 700 z m 853 233 b 719 97 853 143 803 97 l 315 97 b 183 233 232 97 183 143 l 183 457 b 315 596 183 553 232 596 l 719 596 b 853 457 803 596 853 553 z "},"q":{"ha":1028,"x_min":0,"x_max":0,"o":"m 865 -246 l 939 -246 b 958 -226 953 -246 958 -240 l 958 675 b 939 694 958 689 953 694 l 865 694 b 846 675 851 694 846 689 l 846 624 l 835 624 b 647 700 797 674 764 700 l 303 700 b 63 463 146 700 63 615 l 63 231 b 303 -7 63 78 146 -7 l 647 -7 b 835 69 764 -7 797 19 l 846 69 l 846 -226 b 865 -246 846 -240 853 -246 z m 311 97 b 176 233 224 97 176 139 l 176 461 b 311 596 176 554 224 596 l 715 596 b 846 461 799 596 846 554 l 846 233 b 715 97 846 139 799 97 z "},"r":{"ha":1011,"x_min":0,"x_max":0,"o":"m 89 0 l 163 0 b 183 19 176 0 183 6 l 183 460 b 318 596 183 554 229 596 l 706 596 b 836 518 793 596 828 574 b 861 499 839 504 846 499 l 922 499 b 950 529 943 499 950 507 b 726 700 950 642 885 700 l 381 700 b 193 624 264 700 231 674 l 183 624 l 183 675 b 164 694 183 689 175 694 l 89 694 b 69 675 75 694 69 689 l 69 19 b 89 0 69 6 75 0 z "},"ŕ":{"ha":1011,"x_min":0,"x_max":0,"o":"m 556 947 l 468 788 b 478 763 458 772 464 763 l 543 763 b 576 788 557 763 565 772 l 701 947 b 694 972 714 963 710 972 l 588 972 b 556 947 574 972 565 964 z m 89 0 l 163 0 b 183 19 176 0 183 6 l 183 460 b 318 596 183 554 229 596 l 706 596 b 836 518 793 596 828 574 b 861 499 839 504 846 499 l 922 499 b 950 529 943 499 950 507 b 726 700 950 642 885 700 l 381 700 b 193 624 264 700 231 674 l 183 624 l 183 675 b 164 694 183 689 175 694 l 89 694 b 69 675 75 694 69 689 l 69 19 b 89 0 69 6 75 0 z "},"ř":{"ha":1011,"x_min":0,"x_max":0,"o":"m 471 764 l 550 764 b 589 783 565 764 576 768 l 733 949 b 724 972 744 960 738 972 l 653 972 b 614 949 636 972 628 967 l 519 842 l 506 842 l 411 949 b 372 972 396 967 388 972 l 300 972 b 290 949 286 972 281 960 l 435 783 b 471 764 447 769 456 764 z m 89 0 l 163 0 b 183 19 176 0 183 6 l 183 460 b 318 596 183 554 229 596 l 706 596 b 836 518 793 596 828 574 b 861 499 839 504 846 499 l 922 499 b 950 529 943 499 950 507 b 726 700 950 642 885 700 l 381 700 b 193 624 264 700 231 674 l 183 624 l 183 675 b 164 694 183 689 175 694 l 89 694 b 69 675 75 694 69 689 l 69 19 b 89 0 69 6 75 0 z "},"ŗ":{"ha":1011,"x_min":0,"x_max":0,"o":"m 89 0 l 163 0 b 183 19 176 0 183 6 l 183 460 b 318 596 183 554 229 596 l 706 596 b 836 518 793 596 828 574 b 861 499 839 504 846 499 l 922 499 b 950 529 943 499 950 507 b 726 700 950 642 885 700 l 381 700 b 193 624 264 700 231 674 l 183 624 l 183 675 b 164 694 183 689 175 694 l 89 694 b 69 675 75 694 69 689 l 69 19 b 89 0 69 6 75 0 z m 161 -83 l 99 -83 b 79 -103 85 -83 79 -89 l 79 -314 l 32 -314 b 13 -333 18 -314 13 -319 l 13 -390 b 32 -410 13 -404 18 -410 l 142 -410 b 181 -371 168 -410 181 -397 l 181 -103 b 161 -83 181 -89 175 -83 z "},"s":{"ha":1022,"x_min":0,"x_max":0,"o":"m 286 0 l 729 0 b 960 193 868 0 960 57 b 729 386 960 329 881 379 l 296 404 b 178 503 214 407 178 433 b 297 593 178 568 224 593 l 692 593 b 824 513 781 593 815 568 b 851 493 826 500 835 493 l 913 493 b 938 525 933 493 938 503 b 713 694 938 636 871 694 l 294 694 b 64 504 156 694 64 638 b 294 308 64 367 144 315 l 728 290 b 846 193 810 288 846 264 b 728 101 846 125 801 101 l 307 101 b 176 182 219 101 185 126 b 151 201 174 194 167 201 l 90 201 b 63 169 69 201 63 192 b 286 0 63 58 129 0 z "},"ś":{"ha":1022,"x_min":0,"x_max":0,"o":"m 554 947 l 467 788 b 476 763 457 772 463 763 l 542 763 b 575 788 556 763 564 772 l 700 947 b 693 972 713 963 708 972 l 586 972 b 554 947 572 972 564 964 z m 286 0 l 729 0 b 960 193 868 0 960 57 b 729 386 960 329 881 379 l 296 404 b 178 503 214 407 178 433 b 297 593 178 568 224 593 l 692 593 b 824 513 781 593 815 568 b 851 493 826 500 835 493 l 913 493 b 938 525 933 493 938 503 b 713 694 938 636 871 694 l 294 694 b 64 504 156 694 64 638 b 294 308 64 367 144 315 l 728 290 b 846 193 810 288 846 264 b 728 101 846 125 801 101 l 307 101 b 176 182 219 101 185 126 b 151 201 174 194 167 201 l 90 201 b 63 169 69 201 63 192 b 286 0 63 58 129 0 z "},"š":{"ha":1022,"x_min":0,"x_max":0,"o":"m 471 764 l 550 764 b 589 783 565 764 576 768 l 733 949 b 724 972 744 960 738 972 l 653 972 b 614 949 636 972 628 967 l 519 842 l 506 842 l 411 949 b 372 972 396 967 388 972 l 300 972 b 290 949 286 972 281 960 l 435 783 b 471 764 447 769 456 764 z m 286 0 l 729 0 b 960 193 868 0 960 57 b 729 386 960 329 881 379 l 296 404 b 178 503 214 407 178 433 b 297 593 178 568 224 593 l 692 593 b 824 513 781 593 815 568 b 851 493 826 500 835 493 l 913 493 b 938 525 933 493 938 503 b 713 694 938 636 871 694 l 294 694 b 64 504 156 694 64 638 b 294 308 64 367 144 315 l 728 290 b 846 193 810 288 846 264 b 728 101 846 125 801 101 l 307 101 b 176 182 219 101 185 126 b 151 201 174 194 167 201 l 90 201 b 63 169 69 201 63 192 b 286 0 63 58 129 0 z "},"ş":{"ha":1022,"x_min":0,"x_max":0,"o":"m 729 386 l 296 404 b 178 503 214 407 178 433 b 297 593 178 568 224 593 l 692 593 b 824 513 781 593 815 568 b 851 493 826 500 835 493 l 913 493 b 938 525 933 493 938 503 b 713 694 938 636 871 694 l 294 694 b 64 504 156 694 64 638 b 294 308 64 367 144 315 l 728 290 b 846 193 810 288 846 264 b 728 101 846 125 801 101 l 307 101 b 176 182 219 101 185 126 b 151 201 174 194 167 201 l 90 201 b 63 169 69 201 63 192 b 286 0 63 58 129 0 l 471 0 b 414 -82 431 -39 414 -58 b 469 -129 414 -114 439 -126 b 610 -172 576 -140 610 -143 b 551 -208 610 -201 593 -208 l 522 -208 b 464 -167 481 -208 467 -194 b 450 -156 464 -160 457 -156 l 386 -156 b 374 -171 376 -156 374 -161 b 494 -281 374 -239 403 -281 l 575 -281 b 701 -172 664 -281 701 -244 b 564 -65 701 -85 650 -75 b 576 0 528 -62 506 -57 l 729 0 b 960 193 868 0 960 57 b 729 386 960 329 881 379 z "},"ș":{"ha":1022,"x_min":0,"x_max":0,"o":"m 286 0 l 729 0 b 960 193 868 0 960 57 b 729 386 960 329 881 379 l 296 404 b 178 503 214 407 178 433 b 297 593 178 568 224 593 l 692 593 b 824 513 781 593 815 568 b 851 493 826 500 835 493 l 913 493 b 938 525 933 493 938 503 b 713 694 938 636 871 694 l 294 694 b 64 504 156 694 64 638 b 294 308 64 367 144 315 l 728 290 b 846 193 810 288 846 264 b 728 101 846 125 801 101 l 307 101 b 176 182 219 101 185 126 b 151 201 174 194 167 201 l 90 201 b 63 169 69 201 63 192 b 286 0 63 58 129 0 z m 542 -83 l 479 -83 b 460 -103 465 -83 460 -89 l 460 -314 l 413 -314 b 393 -333 399 -314 393 -319 l 393 -390 b 413 -410 393 -404 399 -410 l 522 -410 b 561 -371 549 -410 561 -397 l 561 -103 b 542 -83 561 -89 556 -83 z "},"ß":{"ha":1279,"x_min":0,"x_max":0,"o":"m 1057 536 b 1171 724 1132 560 1171 621 l 1171 782 b 938 1001 1171 924 1082 1001 l 317 1001 b 90 781 168 1001 90 924 l 92 21 b 113 0 92 7 99 0 l 186 0 b 207 21 200 0 207 7 l 208 781 b 317 897 208 861 235 897 l 938 897 b 1056 782 1018 897 1056 864 l 1056 719 b 925 585 1056 635 1019 585 l 385 585 b 364 564 371 585 364 578 l 364 501 b 385 481 364 488 371 481 l 925 481 b 1101 336 1031 481 1101 442 l 1101 247 b 932 104 1101 122 1056 104 l 385 104 b 364 83 371 104 364 97 l 364 21 b 385 0 364 7 371 0 l 936 0 b 1217 243 1131 0 1217 57 l 1217 325 b 1057 536 1217 465 1151 514 z "},"t":{"ha":761,"x_min":0,"x_max":0,"o":"m 419 0 l 678 0 b 699 21 690 0 699 7 l 699 83 b 676 104 699 97 692 104 l 426 104 b 292 239 339 104 292 146 l 292 590 l 678 590 b 699 610 690 590 699 596 l 699 675 b 676 694 699 689 692 694 l 292 694 l 292 781 b 272 800 292 794 286 800 l 199 800 b 178 781 185 800 178 794 l 178 694 l 61 694 b 42 674 47 694 42 689 l 42 610 b 61 590 42 596 47 590 l 178 590 l 178 238 b 419 0 178 85 263 0 z "},"ŧ":{"ha":768,"x_min":0,"x_max":0,"o":"m 685 456 l 292 456 l 292 590 l 678 590 b 699 610 690 590 699 596 l 699 675 b 676 694 699 689 692 694 l 292 694 l 292 781 b 272 800 292 794 286 800 l 199 800 b 178 781 185 800 178 794 l 178 694 l 61 694 b 42 674 47 694 42 689 l 42 610 b 61 590 42 596 47 590 l 178 590 l 178 456 l 69 456 b 49 435 56 456 49 449 l 49 372 b 69 351 49 358 56 351 l 178 351 l 178 238 b 419 0 178 85 263 0 l 678 0 b 699 21 690 0 699 7 l 699 83 b 676 104 699 97 692 104 l 426 104 b 292 239 339 104 292 146 l 292 351 l 685 351 b 706 372 697 351 706 358 l 706 435 b 685 456 706 449 697 456 z "},"ť":{"ha":761,"x_min":0,"x_max":0,"o":"m 494 1074 l 431 1074 b 411 1056 417 1074 411 1069 l 411 843 l 364 843 b 344 825 350 843 344 839 l 344 767 b 364 747 344 753 350 747 l 474 747 b 513 788 500 747 513 760 l 513 1056 b 494 1074 513 1069 508 1074 z m 419 0 l 678 0 b 699 21 690 0 699 7 l 699 83 b 676 104 699 97 692 104 l 426 104 b 292 239 339 104 292 146 l 292 590 l 678 590 b 699 610 690 590 699 596 l 699 675 b 676 694 699 689 692 694 l 292 694 l 292 781 b 272 800 292 794 286 800 l 199 800 b 178 781 185 800 178 794 l 178 694 l 61 694 b 42 674 47 694 42 689 l 42 610 b 61 590 42 596 47 590 l 178 590 l 178 238 b 419 0 178 85 263 0 z "},"ţ":{"ha":768,"x_min":0,"x_max":0,"o":"m 678 590 b 699 610 690 590 699 596 l 699 675 b 676 694 699 689 692 694 l 292 694 l 292 781 b 272 800 292 794 286 800 l 199 800 b 178 781 185 800 178 794 l 178 694 l 61 694 b 42 674 47 694 42 689 l 42 610 b 61 590 42 596 47 590 l 178 590 l 178 238 b 419 0 178 85 263 0 l 446 0 b 389 -82 406 -39 389 -58 b 444 -129 389 -114 414 -126 b 585 -172 551 -140 585 -143 b 526 -208 585 -201 568 -208 l 497 -208 b 439 -167 456 -208 442 -194 b 425 -156 439 -160 432 -156 l 361 -156 b 349 -171 351 -156 349 -161 b 469 -281 349 -239 378 -281 l 550 -281 b 676 -172 639 -281 676 -244 b 539 -65 676 -85 625 -75 b 551 0 503 -62 481 -57 l 678 0 b 699 21 690 0 699 7 l 699 83 b 676 104 699 97 692 104 l 426 104 b 292 239 339 104 292 146 l 292 590 z "},"ț":{"ha":761,"x_min":0,"x_max":0,"o":"m 419 0 l 678 0 b 699 21 690 0 699 7 l 699 83 b 676 104 699 97 692 104 l 426 104 b 292 239 339 104 292 146 l 292 590 l 678 590 b 699 610 690 590 699 596 l 699 675 b 676 694 699 689 692 694 l 292 694 l 292 781 b 272 800 292 794 286 800 l 199 800 b 178 781 185 800 178 794 l 178 694 l 61 694 b 42 674 47 694 42 689 l 42 610 b 61 590 42 596 47 590 l 178 590 l 178 238 b 419 0 178 85 263 0 z m 479 -83 l 417 -83 b 397 -103 403 -83 397 -89 l 397 -314 l 350 -314 b 331 -333 336 -314 331 -319 l 331 -390 b 350 -410 331 -404 336 -410 l 460 -410 b 499 -371 486 -410 499 -397 l 499 -103 b 479 -83 499 -89 493 -83 z "},"u":{"ha":1035,"x_min":0,"x_max":0,"o":"m 946 694 l 872 694 b 853 675 858 694 853 689 l 853 235 b 717 99 853 140 806 99 l 319 99 b 183 235 231 99 183 140 l 183 675 b 163 694 183 689 176 694 l 89 694 b 69 675 75 694 69 689 l 69 232 b 310 -6 69 79 153 -6 l 654 -6 b 842 71 771 -6 804 21 l 853 71 l 853 19 b 872 0 853 6 860 0 l 946 0 b 965 19 960 0 965 6 l 965 675 b 946 694 965 689 960 694 z "},"ú":{"ha":1035,"x_min":0,"x_max":0,"o":"m 561 947 l 474 788 b 483 763 464 772 469 763 l 549 763 b 582 788 563 763 571 772 l 707 947 b 700 972 719 963 715 972 l 593 972 b 561 947 579 972 571 964 z m 946 694 l 872 694 b 853 675 858 694 853 689 l 853 235 b 717 99 853 140 806 99 l 319 99 b 183 235 231 99 183 140 l 183 675 b 163 694 183 689 176 694 l 89 694 b 69 675 75 694 69 689 l 69 232 b 310 -6 69 79 153 -6 l 654 -6 b 842 71 771 -6 804 21 l 853 71 l 853 19 b 872 0 853 6 860 0 l 946 0 b 965 19 960 0 965 6 l 965 675 b 946 694 965 689 960 694 z "},"ŭ":{"ha":1035,"x_min":0,"x_max":0,"o":"m 485 774 l 550 774 b 722 954 667 774 722 833 b 703 972 722 967 717 972 l 647 972 b 628 954 633 972 628 967 b 538 857 625 900 600 857 l 496 857 b 406 954 433 857 408 900 b 388 972 406 967 401 972 l 331 972 b 311 954 317 972 311 967 b 485 774 311 833 368 774 z m 946 694 l 872 694 b 853 675 858 694 853 689 l 853 235 b 717 99 853 140 806 99 l 319 99 b 183 235 231 99 183 140 l 183 675 b 163 694 183 689 176 694 l 89 694 b 69 675 75 694 69 689 l 69 232 b 310 -6 69 79 153 -6 l 654 -6 b 842 71 771 -6 804 21 l 853 71 l 853 19 b 872 0 853 6 860 0 l 946 0 b 965 19 960 0 965 6 l 965 675 b 946 694 965 689 960 694 z "},"ǔ":{"ha":1035,"x_min":0,"x_max":0,"o":"m 476 764 l 556 764 b 594 783 571 764 582 768 l 739 949 b 729 972 750 960 743 972 l 658 972 b 619 949 642 972 633 967 l 525 842 l 511 842 l 417 949 b 378 972 401 967 393 972 l 306 972 b 296 949 292 972 286 960 l 440 783 b 476 764 453 769 461 764 z m 946 694 l 872 694 b 853 675 858 694 853 689 l 853 235 b 717 99 853 140 806 99 l 319 99 b 183 235 231 99 183 140 l 183 675 b 163 694 183 689 176 694 l 89 694 b 69 675 75 694 69 689 l 69 232 b 310 -6 69 79 153 -6 l 654 -6 b 842 71 771 -6 804 21 l 853 71 l 853 19 b 872 0 853 6 860 0 l 946 0 b 965 19 960 0 965 6 l 965 675 b 946 694 965 689 960 694 z "},"û":{"ha":1035,"x_min":0,"x_max":0,"o":"m 476 972 b 440 954 461 972 453 968 l 296 788 b 306 764 286 776 292 764 l 378 764 b 417 788 393 764 401 769 l 511 894 l 525 894 l 619 788 b 658 764 633 769 642 764 l 729 764 b 739 788 743 764 750 776 l 594 954 b 556 972 582 968 571 972 z m 946 694 l 872 694 b 853 675 858 694 853 689 l 853 235 b 717 99 853 140 806 99 l 319 99 b 183 235 231 99 183 140 l 183 675 b 163 694 183 689 176 694 l 89 694 b 69 675 75 694 69 689 l 69 232 b 310 -6 69 79 153 -6 l 654 -6 b 842 71 771 -6 804 21 l 853 71 l 853 19 b 872 0 853 6 860 0 l 946 0 b 965 19 960 0 965 6 l 965 675 b 946 694 965 689 960 694 z "},"ü":{"ha":1035,"x_min":0,"x_max":0,"o":"m 294 851 l 378 851 b 396 869 392 851 396 856 l 396 953 b 378 972 396 967 392 972 l 294 972 b 275 953 281 972 275 967 l 275 869 b 294 851 275 856 281 851 z m 628 851 l 711 851 b 731 869 725 851 731 856 l 731 953 b 711 972 731 967 725 972 l 628 972 b 610 953 614 972 610 967 l 610 869 b 628 851 610 856 614 851 z m 946 694 l 872 694 b 853 675 858 694 853 689 l 853 235 b 717 99 853 140 806 99 l 319 99 b 183 235 231 99 183 140 l 183 675 b 163 694 183 689 176 694 l 89 694 b 69 675 75 694 69 689 l 69 232 b 310 -6 69 79 153 -6 l 654 -6 b 842 71 771 -6 804 21 l 853 71 l 853 19 b 872 0 853 6 860 0 l 946 0 b 965 19 960 0 965 6 l 965 675 b 946 694 965 689 960 694 z "},"ù":{"ha":1035,"x_min":0,"x_max":0,"o":"m 475 947 b 446 972 465 964 460 972 l 342 972 b 328 947 326 972 315 963 l 453 786 b 485 763 464 771 471 763 l 549 763 b 561 788 564 763 571 772 z m 946 694 l 872 694 b 853 675 858 694 853 689 l 853 235 b 717 99 853 140 806 99 l 319 99 b 183 235 231 99 183 140 l 183 675 b 163 694 183 689 176 694 l 89 694 b 69 675 75 694 69 689 l 69 232 b 310 -6 69 79 153 -6 l 654 -6 b 842 71 771 -6 804 21 l 853 71 l 853 19 b 872 0 853 6 860 0 l 946 0 b 965 19 960 0 965 6 l 965 675 b 946 694 965 689 960 694 z "},"ű":{"ha":1035,"x_min":0,"x_max":0,"o":"m 456 947 l 368 788 b 378 763 358 772 364 763 l 443 763 b 476 788 457 763 465 772 l 601 947 b 594 972 614 963 610 972 l 488 972 b 456 947 474 972 465 964 z m 668 947 l 579 788 b 590 763 569 772 575 763 l 654 763 b 688 788 668 763 676 772 l 814 947 b 807 972 826 963 821 972 l 699 972 b 668 947 685 972 676 964 z m 946 694 l 872 694 b 853 675 858 694 853 689 l 853 235 b 717 99 853 140 806 99 l 319 99 b 183 235 231 99 183 140 l 183 675 b 163 694 183 689 176 694 l 89 694 b 69 675 75 694 69 689 l 69 232 b 310 -6 69 79 153 -6 l 654 -6 b 842 71 771 -6 804 21 l 853 71 l 853 19 b 872 0 853 6 860 0 l 946 0 b 965 19 960 0 965 6 l 965 675 b 946 694 965 689 960 694 z "},"ū":{"ha":1035,"x_min":0,"x_max":0,"o":"m 293 867 l 743 867 b 764 888 756 867 764 874 l 764 951 b 743 972 764 965 756 972 l 293 972 b 272 951 279 972 272 965 l 272 888 b 293 867 272 874 279 867 z m 946 694 l 872 694 b 853 675 858 694 853 689 l 853 235 b 717 99 853 140 806 99 l 319 99 b 183 235 231 99 183 140 l 183 675 b 163 694 183 689 176 694 l 89 694 b 69 675 75 694 69 689 l 69 232 b 310 -6 69 79 153 -6 l 654 -6 b 842 71 771 -6 804 21 l 853 71 l 853 19 b 872 0 853 6 860 0 l 946 0 b 965 19 960 0 965 6 l 965 675 b 946 694 965 689 960 694 z "},"ų":{"ha":1035,"x_min":0,"x_max":0,"o":"m 946 694 l 872 694 b 853 675 858 694 853 689 l 853 235 b 717 99 853 140 806 99 l 319 99 b 183 235 231 99 183 140 l 183 675 b 163 694 183 689 176 694 l 89 694 b 69 675 75 694 69 689 l 69 232 b 310 -6 69 79 153 -6 l 504 -6 b 421 -47 499 -35 475 -39 b 301 -153 344 -57 301 -62 b 429 -261 301 -237 340 -261 l 586 -261 b 600 -247 596 -261 600 -256 l 600 -196 b 586 -181 600 -186 594 -181 l 436 -181 b 389 -151 399 -181 389 -175 b 414 -121 389 -126 397 -124 l 528 -108 b 618 -6 586 -103 614 -74 l 654 -6 b 842 71 771 -6 804 21 l 853 71 l 853 19 b 872 0 853 6 860 0 l 946 0 b 965 19 960 0 965 6 l 965 675 b 946 694 965 689 960 694 z "},"ů":{"ha":1035,"x_min":0,"x_max":0,"o":"m 526 994 l 508 994 b 392 878 440 994 392 943 l 392 863 b 508 747 392 797 440 747 l 526 747 b 643 863 594 747 643 797 l 643 878 b 526 994 643 943 594 994 z m 572 876 l 572 865 b 524 817 572 836 554 817 l 511 817 b 463 865 481 817 463 836 l 463 876 b 511 925 463 906 481 925 l 524 925 b 572 876 554 925 572 906 z m 946 694 l 872 694 b 853 675 858 694 853 689 l 853 235 b 717 99 853 140 806 99 l 319 99 b 183 235 231 99 183 140 l 183 675 b 163 694 183 689 176 694 l 89 694 b 69 675 75 694 69 689 l 69 232 b 310 -6 69 79 153 -6 l 654 -6 b 842 71 771 -6 804 21 l 853 71 l 853 19 b 872 0 853 6 860 0 l 946 0 b 965 19 960 0 965 6 l 965 675 b 946 694 965 689 960 694 z "},"ũ":{"ha":1035,"x_min":0,"x_max":0,"o":"m 615 817 b 738 857 657 817 696 828 b 749 882 749 864 754 871 l 725 938 b 703 943 721 946 714 950 b 621 917 669 924 650 917 b 419 979 543 917 513 979 b 297 939 378 979 339 968 b 286 914 286 932 282 924 l 310 858 b 333 853 314 849 321 846 b 415 879 365 872 386 879 b 615 817 492 879 522 817 z m 946 694 l 872 694 b 853 675 858 694 853 689 l 853 235 b 717 99 853 140 806 99 l 319 99 b 183 235 231 99 183 140 l 183 675 b 163 694 183 689 176 694 l 89 694 b 69 675 75 694 69 689 l 69 232 b 310 -6 69 79 153 -6 l 654 -6 b 842 71 771 -6 804 21 l 853 71 l 853 19 b 872 0 853 6 860 0 l 946 0 b 965 19 960 0 965 6 l 965 675 b 946 694 965 689 960 694 z "},"v":{"ha":1083,"x_min":0,"x_max":0,"o":"m 53 671 l 472 26 b 504 0 483 10 489 0 l 579 0 b 611 26 594 0 600 10 l 1031 671 b 1017 694 1040 686 1031 694 l 929 694 b 899 671 914 694 908 686 l 549 133 l 535 133 l 185 671 b 154 694 175 686 169 694 l 67 694 b 53 671 53 694 43 686 z "},"w":{"ha":1800,"x_min":0,"x_max":0,"o":"m 1733 694 l 1647 694 b 1617 671 1632 694 1625 686 l 1303 135 l 1289 135 l 974 671 b 943 694 964 686 956 694 l 857 694 b 826 671 846 694 838 689 l 511 135 l 496 135 l 183 671 b 153 694 175 686 168 694 l 67 694 b 53 671 53 694 43 686 l 432 26 b 464 0 442 10 450 0 l 542 0 b 574 26 557 0 564 10 l 900 576 l 1226 26 b 1257 0 1236 10 1243 0 l 1336 0 b 1368 26 1350 0 1357 10 l 1747 671 b 1733 694 1757 686 1747 694 z "},"ẃ":{"ha":1800,"x_min":0,"x_max":0,"o":"m 944 947 l 857 788 b 867 763 847 772 853 763 l 932 763 b 965 788 946 763 954 772 l 1090 947 b 1083 972 1103 963 1099 972 l 976 972 b 944 947 963 972 954 964 z m 1733 694 l 1647 694 b 1617 671 1632 694 1625 686 l 1303 135 l 1289 135 l 974 671 b 943 694 964 686 956 694 l 857 694 b 826 671 846 694 838 689 l 511 135 l 496 135 l 183 671 b 153 694 175 686 168 694 l 67 694 b 53 671 53 694 43 686 l 432 26 b 464 0 442 10 450 0 l 542 0 b 574 26 557 0 564 10 l 900 576 l 1226 26 b 1257 0 1236 10 1243 0 l 1336 0 b 1368 26 1350 0 1357 10 l 1747 671 b 1733 694 1757 686 1747 694 z "},"ŵ":{"ha":1800,"x_min":0,"x_max":0,"o":"m 860 972 b 824 954 844 972 836 968 l 679 788 b 689 764 669 776 675 764 l 761 764 b 800 788 776 764 785 769 l 894 894 l 908 894 l 1003 788 b 1042 764 1017 769 1025 764 l 1113 764 b 1122 788 1126 764 1133 776 l 978 954 b 939 972 965 968 954 972 z m 1733 694 l 1647 694 b 1617 671 1632 694 1625 686 l 1303 135 l 1289 135 l 974 671 b 943 694 964 686 956 694 l 857 694 b 826 671 846 694 838 689 l 511 135 l 496 135 l 183 671 b 153 694 175 686 168 694 l 67 694 b 53 671 53 694 43 686 l 432 26 b 464 0 442 10 450 0 l 542 0 b 574 26 557 0 564 10 l 900 576 l 1226 26 b 1257 0 1236 10 1243 0 l 1336 0 b 1368 26 1350 0 1357 10 l 1747 671 b 1733 694 1757 686 1747 694 z "},"ẅ":{"ha":1800,"x_min":0,"x_max":0,"o":"m 678 851 l 761 851 b 779 869 775 851 779 856 l 779 953 b 761 972 779 967 775 972 l 678 972 b 658 953 664 972 658 967 l 658 869 b 678 851 658 856 664 851 z m 1011 851 l 1094 851 b 1114 869 1108 851 1114 856 l 1114 953 b 1094 972 1114 967 1108 972 l 1011 972 b 993 953 997 972 993 967 l 993 869 b 1011 851 993 856 997 851 z m 1733 694 l 1647 694 b 1617 671 1632 694 1625 686 l 1303 135 l 1289 135 l 974 671 b 943 694 964 686 956 694 l 857 694 b 826 671 846 694 838 689 l 511 135 l 496 135 l 183 671 b 153 694 175 686 168 694 l 67 694 b 53 671 53 694 43 686 l 432 26 b 464 0 442 10 450 0 l 542 0 b 574 26 557 0 564 10 l 900 576 l 1226 26 b 1257 0 1236 10 1243 0 l 1336 0 b 1368 26 1350 0 1357 10 l 1747 671 b 1733 694 1757 686 1747 694 z "},"ẁ":{"ha":1800,"x_min":0,"x_max":0,"o":"m 858 947 b 829 972 849 964 843 972 l 725 972 b 711 947 710 972 699 963 l 836 786 b 868 763 847 771 854 763 l 932 763 b 944 788 947 763 954 772 z m 1733 694 l 1647 694 b 1617 671 1632 694 1625 686 l 1303 135 l 1289 135 l 974 671 b 943 694 964 686 956 694 l 857 694 b 826 671 846 694 838 689 l 511 135 l 496 135 l 183 671 b 153 694 175 686 168 694 l 67 694 b 53 671 53 694 43 686 l 432 26 b 464 0 442 10 450 0 l 542 0 b 574 26 557 0 564 10 l 900 576 l 1226 26 b 1257 0 1236 10 1243 0 l 1336 0 b 1368 26 1350 0 1357 10 l 1747 671 b 1733 694 1757 686 1747 694 z "},"x":{"ha":985,"x_min":0,"x_max":0,"o":"m 569 347 l 929 668 b 919 694 943 682 936 694 l 821 694 b 778 669 810 694 799 688 l 493 415 l 208 669 b 164 694 188 688 175 694 l 65 694 b 57 668 49 694 42 682 l 417 347 l 57 26 b 67 0 42 13 50 0 l 165 0 b 210 25 176 0 189 7 l 493 278 l 776 25 b 819 0 797 7 808 0 l 918 0 b 929 26 935 0 943 13 z "},"y":{"ha":1083,"x_min":0,"x_max":0,"o":"m 1017 694 l 929 694 b 899 671 914 694 908 686 l 549 133 l 535 133 l 185 671 b 154 694 175 686 169 694 l 67 694 b 53 671 53 694 43 686 l 472 26 b 475 21 474 25 475 24 l 313 -228 b 328 -251 303 -243 314 -251 l 415 -251 b 446 -228 429 -251 436 -243 l 1031 671 b 1017 694 1040 686 1031 694 z "},"ý":{"ha":1083,"x_min":0,"x_max":0,"o":"m 507 763 l 572 763 b 606 788 586 763 594 772 l 731 947 b 724 972 743 963 739 972 l 617 972 b 585 947 603 972 594 964 l 497 788 b 507 763 488 772 493 763 z m 1017 694 l 929 694 b 899 671 914 694 908 686 l 549 133 l 535 133 l 185 671 b 154 694 175 686 169 694 l 67 694 b 53 671 53 694 43 686 l 472 26 b 475 21 474 25 475 24 l 313 -228 b 328 -251 303 -243 314 -251 l 415 -251 b 446 -228 429 -251 436 -243 l 1031 671 b 1017 694 1040 686 1031 694 z "},"ŷ":{"ha":1083,"x_min":0,"x_max":0,"o":"m 329 764 l 401 764 b 440 788 417 764 425 769 l 535 894 l 549 894 l 643 788 b 682 764 657 769 665 764 l 753 764 b 763 788 767 764 774 776 l 618 954 b 579 972 606 968 594 972 l 500 972 b 464 954 485 972 476 968 l 319 788 b 329 764 310 776 315 764 z m 1017 694 l 929 694 b 899 671 914 694 908 686 l 549 133 l 535 133 l 185 671 b 154 694 175 686 169 694 l 67 694 b 53 671 53 694 43 686 l 472 26 b 475 21 474 25 475 24 l 313 -228 b 328 -251 303 -243 314 -251 l 415 -251 b 446 -228 429 -251 436 -243 l 1031 671 b 1017 694 1040 686 1031 694 z "},"ÿ":{"ha":1083,"x_min":0,"x_max":0,"o":"m 318 851 l 401 851 b 419 869 415 851 419 856 l 419 953 b 401 972 419 967 415 972 l 318 972 b 299 953 304 972 299 967 l 299 869 b 318 851 299 856 304 851 z m 651 851 l 735 851 b 754 869 749 851 754 856 l 754 953 b 735 972 754 967 749 972 l 651 972 b 633 953 638 972 633 967 l 633 869 b 651 851 633 856 638 851 z m 1017 694 l 929 694 b 899 671 914 694 908 686 l 549 133 l 535 133 l 185 671 b 154 694 175 686 169 694 l 67 694 b 53 671 53 694 43 686 l 472 26 b 475 21 474 25 475 24 l 313 -228 b 328 -251 303 -243 314 -251 l 415 -251 b 446 -228 429 -251 436 -243 l 1031 671 b 1017 694 1040 686 1031 694 z "},"ỳ":{"ha":1083,"x_min":0,"x_max":0,"o":"m 476 786 b 508 763 488 771 494 763 l 572 763 b 585 788 588 763 594 772 l 499 947 b 469 972 489 964 483 972 l 365 972 b 351 947 350 972 339 963 z m 1017 694 l 929 694 b 899 671 914 694 908 686 l 549 133 l 535 133 l 185 671 b 154 694 175 686 169 694 l 67 694 b 53 671 53 694 43 686 l 472 26 b 475 21 474 25 475 24 l 313 -228 b 328 -251 303 -243 314 -251 l 415 -251 b 446 -228 429 -251 436 -243 l 1031 671 b 1017 694 1040 686 1031 694 z "},"z":{"ha":961,"x_min":0,"x_max":0,"o":"m 906 594 l 906 675 b 885 694 906 689 900 694 l 82 694 b 61 674 68 694 61 689 l 61 608 b 82 589 61 594 68 589 l 725 589 l 725 578 l 68 125 b 56 100 58 118 56 111 l 56 19 b 75 0 56 6 61 0 l 886 0 b 906 19 900 0 906 6 l 906 86 b 885 106 906 100 900 106 l 236 106 l 236 117 l 893 569 b 906 594 903 576 906 583 z "},"ź":{"ha":961,"x_min":0,"x_max":0,"o":"m 532 947 l 444 788 b 454 763 435 772 440 763 l 519 763 b 553 788 533 763 542 772 l 678 947 b 671 972 690 963 686 972 l 564 972 b 532 947 550 972 542 964 z m 906 594 l 906 675 b 885 694 906 689 900 694 l 82 694 b 61 674 68 694 61 689 l 61 608 b 82 589 61 594 68 589 l 725 589 l 725 578 l 68 125 b 56 100 58 118 56 111 l 56 19 b 75 0 56 6 61 0 l 886 0 b 906 19 900 0 906 6 l 906 86 b 885 106 906 100 900 106 l 236 106 l 236 117 l 893 569 b 906 594 903 576 906 583 z "},"ž":{"ha":961,"x_min":0,"x_max":0,"o":"m 447 764 l 526 764 b 565 783 542 764 553 768 l 710 949 b 700 972 721 960 714 972 l 629 972 b 590 949 613 972 604 967 l 496 842 l 482 842 l 388 949 b 349 972 372 967 364 972 l 276 972 b 267 949 263 972 257 960 l 411 783 b 447 764 424 769 432 764 z m 906 594 l 906 675 b 885 694 906 689 900 694 l 82 694 b 61 674 68 694 61 689 l 61 608 b 82 589 61 594 68 589 l 725 589 l 725 578 l 68 125 b 56 100 58 118 56 111 l 56 19 b 75 0 56 6 61 0 l 886 0 b 906 19 900 0 906 6 l 906 86 b 885 106 906 100 900 106 l 236 106 l 236 117 l 893 569 b 906 594 903 576 906 583 z "},"ż":{"ha":961,"x_min":0,"x_max":0,"o":"m 447 851 l 531 851 b 549 869 544 851 549 856 l 549 953 b 531 972 549 967 544 972 l 447 972 b 428 953 433 972 428 967 l 428 869 b 447 851 428 856 433 851 z m 906 594 l 906 675 b 885 694 906 689 900 694 l 82 694 b 61 674 68 694 61 689 l 61 608 b 82 589 61 594 68 589 l 725 589 l 725 578 l 68 125 b 56 100 58 118 56 111 l 56 19 b 75 0 56 6 61 0 l 886 0 b 906 19 900 0 906 6 l 906 86 b 885 106 906 100 900 106 l 236 106 l 236 117 l 893 569 b 906 594 903 576 906 583 z "},"ﬁ":{"ha":1081,"x_min":0,"x_max":0,"o":"m 992 694 l 260 694 l 260 732 b 394 868 260 826 307 868 l 768 868 b 789 889 782 868 789 875 l 789 951 b 768 972 789 965 782 972 l 386 972 b 146 735 229 972 146 888 l 146 694 l 76 694 b 56 674 63 694 56 688 l 56 611 b 76 590 56 597 63 590 l 146 590 l 146 21 b 167 0 146 7 153 0 l 239 0 b 260 21 253 0 260 7 l 260 590 l 897 590 l 897 19 b 918 0 897 6 904 0 l 992 0 b 1011 19 1006 0 1011 6 l 1011 675 b 992 694 1011 689 1006 694 z m 992 972 l 918 972 b 897 953 904 972 897 967 l 897 881 b 918 861 897 867 904 861 l 992 861 b 1011 881 1006 861 1011 867 l 1011 953 b 992 972 1011 967 1006 972 z "},"ﬂ":{"ha":1086,"x_min":0,"x_max":0,"o":"m 997 972 l 386 972 b 146 735 229 972 146 888 l 146 694 l 76 694 b 56 674 63 694 56 688 l 56 611 b 76 590 56 597 63 590 l 146 590 l 146 21 b 167 0 146 7 153 0 l 239 0 b 260 21 253 0 260 7 l 260 590 l 754 590 b 775 611 768 590 775 597 l 775 674 b 754 694 775 688 768 694 l 260 694 l 260 732 b 394 868 260 826 307 868 l 903 868 l 903 19 b 924 0 903 6 910 0 l 997 0 b 1017 19 1011 0 1017 6 l 1017 953 b 997 972 1017 967 1011 972 z "},"ª":{"ha":443,"x_min":0,"x_max":0,"o":"m 249 979 l 224 979 b 101 949 172 979 135 967 b 94 928 93 944 90 936 l 108 897 b 129 892 113 888 119 889 b 218 911 157 904 183 911 l 240 911 b 307 840 283 911 307 893 l 192 840 b 69 732 110 840 69 803 b 192 624 69 658 114 624 l 211 624 b 307 665 250 624 282 642 l 307 639 b 318 624 307 629 310 624 l 361 624 b 374 639 369 624 374 629 l 374 840 b 249 979 374 929 326 979 z m 219 692 l 199 692 b 139 732 160 692 139 701 b 199 774 139 763 160 774 l 307 774 l 307 717 b 219 692 288 701 263 692 z "},"º":{"ha":468,"x_min":0,"x_max":0,"o":"m 257 979 l 211 979 b 69 835 128 979 69 915 l 69 769 b 211 624 69 686 128 624 l 257 624 b 399 769 339 624 399 686 l 399 835 b 257 979 399 915 339 979 z m 329 833 l 329 772 b 256 693 329 726 297 693 l 213 693 b 140 772 168 693 140 726 l 140 833 b 213 910 140 878 168 910 l 256 910 b 329 833 297 910 329 878 z "},"А":{"ha":1483,"x_min":0,"x_max":0,"o":"m 1424 24 l 817 950 b 790 972 808 964 803 972 l 693 972 b 665 950 681 972 674 964 l 60 24 b 74 0 50 8 60 0 l 165 0 b 194 22 181 0 185 7 l 299 182 l 1185 182 l 1289 22 b 1317 0 1299 7 1303 0 l 1410 0 b 1424 24 1424 0 1433 8 z m 365 285 l 733 849 l 749 849 l 1117 285 z "},"Б":{"ha":1317,"x_min":0,"x_max":0,"o":"m 988 683 l 208 683 l 208 869 l 767 869 b 786 886 781 869 786 875 l 786 953 b 767 972 786 967 781 972 l 110 972 b 90 953 96 972 90 967 l 90 19 b 110 0 90 6 96 0 l 988 0 b 1240 249 1160 0 1240 85 l 1240 435 b 988 683 1240 599 1160 683 z m 1122 261 b 965 107 1122 151 1075 107 l 208 107 l 208 576 l 965 576 b 1122 422 1075 576 1122 532 z "},"В":{"ha":1343,"x_min":0,"x_max":0,"o":"m 1143 500 l 1143 515 b 1231 700 1206 549 1231 611 l 1231 728 b 986 972 1231 897 1154 972 l 111 972 b 90 951 97 972 90 965 l 90 21 b 111 0 90 7 97 0 l 986 0 b 1267 254 1168 0 1267 72 l 1267 296 b 1143 500 1267 406 1225 471 z m 1114 719 l 1114 692 b 974 547 1114 583 1068 547 l 208 547 l 208 865 l 974 865 b 1114 719 1068 865 1114 835 z m 1150 257 b 979 107 1150 135 1092 107 l 208 107 l 208 450 l 979 450 b 1150 296 1092 450 1150 421 z "},"Г":{"ha":1263,"x_min":0,"x_max":0,"o":"m 1181 972 l 110 972 b 90 953 96 972 90 967 l 90 19 b 110 0 90 6 96 0 l 188 0 b 207 19 201 0 207 6 l 207 865 l 1181 865 b 1200 886 1194 865 1200 872 l 1200 953 b 1181 972 1200 967 1194 972 z "},"Ѓ":{"ha":1263,"x_min":0,"x_max":0,"o":"m 606 1040 l 671 1040 b 704 1065 685 1040 693 1050 l 829 1225 b 822 1250 842 1240 838 1250 l 715 1250 b 683 1225 701 1250 693 1242 l 596 1065 b 606 1040 586 1050 592 1040 z m 1181 972 l 110 972 b 90 953 96 972 90 967 l 90 19 b 110 0 90 6 96 0 l 188 0 b 207 19 201 0 207 6 l 207 865 l 1181 865 b 1200 886 1194 865 1200 872 l 1200 953 b 1181 972 1200 967 1194 972 z "},"Ґ":{"ha":1263,"x_min":0,"x_max":0,"o":"m 1181 1047 l 1103 1047 b 1083 1028 1089 1047 1083 1042 l 1083 972 l 110 972 b 90 953 96 972 90 967 l 90 19 b 110 0 90 6 96 0 l 188 0 b 207 19 201 0 207 6 l 207 865 l 1181 865 b 1200 886 1194 865 1200 872 l 1200 1028 b 1181 1047 1200 1042 1194 1047 z "},"Д":{"ha":1461,"x_min":0,"x_max":0,"o":"m 1413 107 l 1358 107 l 1358 951 b 1338 972 1358 965 1351 972 l 210 972 b 189 951 196 972 189 965 l 189 408 b 74 107 189 181 128 107 l 49 107 b 28 86 35 107 28 100 l 28 -115 b 47 -135 28 -129 33 -135 l 125 -135 b 144 -115 139 -135 144 -129 l 144 0 l 1317 0 l 1317 -115 b 1336 -135 1317 -129 1322 -135 l 1414 -135 b 1433 -115 1428 -135 1433 -129 l 1433 86 b 1413 107 1433 100 1426 107 z m 238 107 b 306 408 282 158 306 250 l 306 865 l 1242 865 l 1242 107 z "},"Е":{"ha":1290,"x_min":0,"x_max":0,"o":"m 1193 107 l 208 107 l 208 433 l 1172 433 b 1193 454 1186 433 1193 440 l 1193 518 b 1172 539 1193 532 1186 539 l 208 539 l 208 865 l 1186 865 b 1207 886 1200 865 1207 872 l 1207 951 b 1186 972 1207 965 1200 972 l 110 972 b 90 953 96 972 90 967 l 90 19 b 110 0 90 6 96 0 l 1193 0 b 1214 21 1207 0 1214 7 l 1214 86 b 1193 107 1214 100 1207 107 z "},"Ё":{"ha":1290,"x_min":0,"x_max":0,"o":"m 436 1129 l 519 1129 b 538 1147 533 1129 538 1133 l 538 1231 b 519 1250 538 1244 533 1250 l 436 1250 b 417 1231 422 1250 417 1244 l 417 1147 b 436 1129 417 1133 422 1129 z m 769 1129 l 853 1129 b 872 1147 867 1129 872 1133 l 872 1231 b 853 1250 872 1244 867 1250 l 769 1250 b 751 1231 756 1250 751 1244 l 751 1147 b 769 1129 751 1133 756 1129 z m 1193 107 l 208 107 l 208 433 l 1172 433 b 1193 454 1186 433 1193 440 l 1193 518 b 1172 539 1193 532 1186 539 l 208 539 l 208 865 l 1186 865 b 1207 886 1200 865 1207 872 l 1207 951 b 1186 972 1207 965 1200 972 l 110 972 b 90 953 96 972 90 967 l 90 19 b 110 0 90 6 96 0 l 1193 0 b 1214 21 1207 0 1214 7 l 1214 86 b 1193 107 1214 100 1207 107 z "},"Ж":{"ha":2392,"x_min":0,"x_max":0,"o":"m 2335 29 l 1658 553 l 2303 943 b 2296 972 2319 953 2313 972 l 2182 972 b 2135 956 2163 972 2149 964 l 1254 426 l 1254 953 b 1235 972 1254 967 1249 972 l 1157 972 b 1136 953 1143 972 1136 967 l 1136 426 l 256 956 b 210 972 242 964 228 972 l 94 972 b 89 943 79 972 72 953 l 732 553 l 57 29 b 65 0 43 19 47 0 l 171 0 b 215 21 188 0 200 8 l 828 494 l 1136 307 l 1136 19 b 1157 0 1136 6 1143 0 l 1235 0 b 1254 19 1249 0 1254 6 l 1254 307 l 1563 494 l 2175 21 b 2221 0 2192 8 2204 0 l 2325 0 b 2335 29 2344 0 2349 19 z "},"З":{"ha":1296,"x_min":0,"x_max":0,"o":"m 1060 499 l 1060 510 b 1213 717 1163 539 1213 585 b 939 979 1213 883 1129 979 l 358 979 b 74 726 178 979 74 901 l 74 703 b 92 685 74 690 79 685 l 168 685 b 188 703 182 685 188 690 b 361 875 188 829 246 875 l 933 875 b 1099 717 1047 875 1099 824 b 914 556 1099 608 1046 556 l 314 556 b 296 536 301 556 296 550 l 296 472 b 314 454 296 458 301 454 l 914 454 b 1119 261 1046 454 1119 401 b 951 97 1119 153 1065 97 l 350 97 b 176 269 235 97 176 143 b 157 288 176 282 171 288 l 81 288 b 63 269 68 288 63 282 l 63 246 b 347 -7 63 71 167 -7 l 957 -7 b 1233 261 1146 -7 1233 94 b 1060 499 1233 429 1163 474 z "},"И":{"ha":1364,"x_min":0,"x_max":0,"o":"m 1254 0 b 1274 19 1268 0 1274 6 l 1274 953 b 1254 972 1274 967 1268 972 l 1139 972 b 1111 958 1126 972 1121 967 l 219 131 l 208 131 l 208 953 b 188 972 208 967 201 972 l 110 972 b 90 953 96 972 90 967 l 90 19 b 110 0 90 6 96 0 l 225 0 b 253 14 238 0 243 6 l 1144 842 l 1156 842 l 1156 19 b 1176 0 1156 6 1163 0 z "},"Й":{"ha":1364,"x_min":0,"x_max":0,"o":"m 632 1051 l 697 1051 b 869 1232 814 1051 869 1111 b 850 1250 869 1244 864 1250 l 794 1250 b 775 1232 781 1250 775 1244 b 685 1135 772 1178 747 1135 l 643 1135 b 553 1232 581 1135 556 1178 b 535 1250 553 1244 549 1250 l 478 1250 b 458 1232 464 1250 458 1244 b 632 1051 458 1111 515 1051 z m 1254 0 b 1274 19 1268 0 1274 6 l 1274 953 b 1254 972 1274 967 1268 972 l 1139 972 b 1111 958 1126 972 1121 967 l 219 131 l 208 131 l 208 953 b 188 972 208 967 201 972 l 110 972 b 90 953 96 972 90 967 l 90 19 b 110 0 90 6 96 0 l 225 0 b 253 14 238 0 243 6 l 1144 842 l 1156 842 l 1156 19 b 1176 0 1156 6 1163 0 z "},"Ѝ":{"ha":1364,"x_min":0,"x_max":0,"o":"m 622 1225 b 593 1250 613 1242 607 1250 l 489 1250 b 475 1225 474 1250 463 1240 l 600 1064 b 632 1040 611 1049 618 1040 l 696 1040 b 708 1065 711 1040 718 1050 z m 1254 0 b 1274 19 1268 0 1274 6 l 1274 953 b 1254 972 1274 967 1268 972 l 1139 972 b 1111 958 1126 972 1121 967 l 219 131 l 208 131 l 208 953 b 188 972 208 967 201 972 l 110 972 b 90 953 96 972 90 967 l 90 19 b 110 0 90 6 96 0 l 225 0 b 253 14 238 0 243 6 l 1144 842 l 1156 842 l 1156 19 b 1176 0 1156 6 1163 0 z "},"К":{"ha":1344,"x_min":0,"x_max":0,"o":"m 1288 29 l 613 553 l 1256 943 b 1250 972 1272 953 1265 972 l 1135 972 b 1089 956 1117 972 1103 964 l 208 426 l 208 953 b 188 972 208 967 201 972 l 110 972 b 90 953 96 972 90 967 l 90 19 b 110 0 90 6 96 0 l 188 0 b 208 19 201 0 208 6 l 208 307 l 517 494 l 1129 21 b 1174 0 1144 8 1157 0 l 1279 0 b 1288 29 1297 0 1301 19 z "},"Ќ":{"ha":1344,"x_min":0,"x_max":0,"o":"m 610 1040 l 675 1040 b 708 1065 689 1040 697 1050 l 833 1225 b 826 1250 846 1240 842 1250 l 719 1250 b 688 1225 706 1250 697 1242 l 600 1065 b 610 1040 590 1050 596 1040 z m 1288 29 l 613 553 l 1256 943 b 1250 972 1272 953 1265 972 l 1135 972 b 1089 956 1117 972 1103 964 l 208 426 l 208 953 b 188 972 208 967 201 972 l 110 972 b 90 953 96 972 90 967 l 90 19 b 110 0 90 6 96 0 l 188 0 b 208 19 201 0 208 6 l 208 307 l 517 494 l 1129 21 b 1174 0 1144 8 1157 0 l 1279 0 b 1288 29 1297 0 1301 19 z "},"Л":{"ha":1485,"x_min":0,"x_max":0,"o":"m 1374 972 l 215 972 b 194 951 201 972 194 965 l 194 219 b 97 114 194 133 144 114 b 76 94 86 114 76 108 l 76 15 b 96 -6 76 1 82 -6 l 132 -6 b 311 186 229 -6 311 47 l 311 865 l 1278 865 l 1278 19 b 1297 0 1278 6 1283 0 l 1375 0 b 1394 19 1389 0 1394 6 l 1394 951 b 1374 972 1394 965 1388 972 z "},"М":{"ha":1579,"x_min":0,"x_max":0,"o":"m 110 0 l 188 0 b 208 19 201 0 208 6 l 208 829 l 221 829 l 721 19 b 749 0 729 6 736 0 l 831 0 b 858 19 843 0 850 6 l 1358 829 l 1371 829 l 1371 19 b 1392 0 1371 6 1378 0 l 1469 0 b 1489 19 1483 0 1489 6 l 1489 953 b 1469 972 1489 967 1483 972 l 1335 972 b 1307 951 1321 972 1315 965 l 797 128 l 782 128 l 272 951 b 244 972 264 965 258 972 l 110 972 b 90 953 96 972 90 967 l 90 19 b 110 0 90 6 96 0 z "},"Н":{"ha":1350,"x_min":0,"x_max":0,"o":"m 1240 972 l 1163 972 b 1142 953 1149 972 1142 967 l 1142 539 l 208 539 l 208 953 b 188 972 208 967 201 972 l 110 972 b 90 953 96 972 90 967 l 90 19 b 110 0 90 6 96 0 l 188 0 b 208 19 201 0 208 6 l 208 433 l 1142 433 l 1142 19 b 1163 0 1142 6 1149 0 l 1240 0 b 1260 19 1254 0 1260 6 l 1260 953 b 1240 972 1260 967 1254 972 z "},"О":{"ha":1413,"x_min":0,"x_max":0,"o":"m 339 -6 l 1074 -6 b 1329 243 1246 -6 1329 79 l 1329 729 b 1074 978 1329 893 1246 978 l 339 978 b 83 729 167 978 83 893 l 83 243 b 339 -6 83 79 167 -6 z m 360 101 b 201 256 250 101 201 146 l 201 717 b 360 871 201 826 250 871 l 1053 871 b 1211 717 1163 871 1211 826 l 1211 256 b 1053 101 1211 146 1163 101 z "},"П":{"ha":1381,"x_min":0,"x_max":0,"o":"m 1269 972 l 111 972 b 90 951 97 972 90 965 l 90 19 b 110 0 90 6 96 0 l 188 0 b 207 19 201 0 207 6 l 207 865 l 1174 865 l 1174 19 b 1192 0 1174 6 1178 0 l 1271 0 b 1290 19 1285 0 1290 6 l 1290 951 b 1269 972 1290 965 1283 972 z "},"Р":{"ha":1324,"x_min":0,"x_max":0,"o":"m 988 972 l 110 972 b 90 953 96 972 90 967 l 90 19 b 110 0 90 6 96 0 l 188 0 b 208 19 201 0 208 6 l 208 228 l 988 228 b 1240 478 1160 228 1240 313 l 1240 724 b 988 972 1240 888 1160 972 z m 1122 489 b 965 335 1122 379 1075 335 l 208 335 l 208 865 l 965 865 b 1122 711 1075 865 1122 821 z "},"С":{"ha":1406,"x_min":0,"x_max":0,"o":"m 1229 672 l 1313 672 b 1329 690 1325 672 1329 678 l 1329 729 b 1078 978 1329 893 1250 978 l 339 978 b 83 729 167 978 83 893 l 83 243 b 339 -6 83 79 167 -6 l 1078 -6 b 1329 226 1250 -6 1329 76 l 1329 250 b 1313 268 1329 263 1325 268 l 1229 268 b 1211 250 1217 268 1211 263 l 1211 239 b 1056 101 1211 144 1165 101 l 360 101 b 201 256 250 101 201 146 l 201 717 b 360 871 201 826 250 871 l 1054 871 b 1211 717 1165 871 1211 826 l 1211 690 b 1229 672 1211 678 1217 672 z "},"Т":{"ha":1339,"x_min":0,"x_max":0,"o":"m 1257 972 l 82 972 b 63 953 68 972 63 967 l 63 886 b 82 865 63 872 68 865 l 611 865 l 611 19 b 631 0 611 6 617 0 l 708 0 b 728 19 722 0 728 6 l 728 865 l 1257 865 b 1276 886 1271 865 1276 872 l 1276 953 b 1257 972 1276 967 1271 972 z "},"У":{"ha":1208,"x_min":0,"x_max":0,"o":"m 1138 972 l 1050 972 b 1014 949 1033 972 1025 963 l 603 417 l 194 949 b 158 972 183 963 175 972 l 71 972 b 60 951 57 972 50 963 l 538 332 l 297 21 b 308 0 289 10 296 0 l 397 0 b 432 24 414 0 421 10 l 1149 951 b 1138 972 1158 963 1151 972 z "},"Ў":{"ha":1208,"x_min":0,"x_max":0,"o":"m 579 1051 l 644 1051 b 817 1232 761 1051 817 1111 b 797 1250 817 1244 811 1250 l 742 1250 b 722 1232 728 1250 722 1244 b 632 1135 719 1178 694 1135 l 590 1135 b 500 1232 528 1135 503 1178 b 482 1250 500 1244 496 1250 l 425 1250 b 406 1232 411 1250 406 1244 b 579 1051 406 1111 463 1051 z m 1138 972 l 1050 972 b 1014 949 1033 972 1025 963 l 603 417 l 194 949 b 158 972 183 963 175 972 l 71 972 b 60 951 57 972 50 963 l 538 332 l 297 21 b 308 0 289 10 296 0 l 397 0 b 432 24 414 0 421 10 l 1149 951 b 1138 972 1158 963 1151 972 z "},"Ф":{"ha":1413,"x_min":0,"x_max":0,"o":"m 1074 839 l 765 839 l 765 953 b 746 972 765 967 760 972 l 668 972 b 647 953 654 972 647 967 l 647 839 l 339 839 b 83 590 167 839 83 754 l 83 382 b 339 133 83 218 167 133 l 647 133 l 647 19 b 668 0 647 6 654 0 l 746 0 b 765 19 760 0 765 6 l 765 133 l 1074 133 b 1329 382 1246 133 1329 218 l 1329 590 b 1074 839 1329 754 1246 839 z m 360 240 b 201 394 250 240 201 285 l 201 578 b 360 732 201 688 250 732 l 647 732 l 647 240 z m 1211 394 b 1053 240 1211 285 1163 240 l 765 240 l 765 732 l 1053 732 b 1211 578 1163 732 1211 688 z "},"Х":{"ha":1364,"x_min":0,"x_max":0,"o":"m 1300 24 l 765 486 l 1300 949 b 1296 972 1315 964 1307 972 l 1176 972 b 1138 951 1163 972 1153 965 l 682 557 l 226 951 b 186 972 211 965 201 972 l 67 972 b 65 949 56 972 49 964 l 600 486 l 65 24 b 67 0 49 8 56 0 l 186 0 b 226 21 201 0 211 7 l 682 415 l 1138 21 b 1176 0 1153 7 1163 0 l 1297 0 b 1300 24 1308 0 1315 8 z "},"Ч":{"ha":1408,"x_min":0,"x_max":0,"o":"m 1299 972 l 1221 972 b 1200 953 1207 972 1200 967 l 1200 469 b 1042 315 1200 360 1151 315 l 367 315 b 208 469 257 315 208 360 l 208 953 b 188 972 208 967 201 972 l 110 972 b 90 953 96 972 90 967 l 90 457 b 346 208 90 293 174 208 l 1014 208 b 1200 276 1103 208 1163 231 l 1200 19 b 1221 0 1200 6 1207 0 l 1299 0 b 1318 19 1313 0 1318 6 l 1318 953 b 1299 972 1318 967 1313 972 z "},"Ц":{"ha":1407,"x_min":0,"x_max":0,"o":"m 1344 107 l 1290 107 l 1290 953 b 1271 972 1290 967 1285 972 l 1192 972 b 1174 953 1178 972 1174 967 l 1174 107 l 207 107 l 207 953 b 188 972 207 967 201 972 l 110 972 b 90 953 96 972 90 967 l 90 21 b 111 0 90 7 97 0 l 1249 0 l 1249 -115 b 1268 -135 1249 -129 1254 -135 l 1346 -135 b 1365 -115 1360 -135 1365 -129 l 1365 86 b 1344 107 1365 100 1358 107 z "},"Ш":{"ha":1742,"x_min":0,"x_max":0,"o":"m 111 0 l 1631 0 b 1651 21 1644 0 1651 7 l 1651 953 b 1632 972 1651 967 1646 972 l 1554 972 b 1535 953 1540 972 1535 967 l 1535 107 l 929 107 l 929 953 b 910 972 929 967 924 972 l 832 972 b 813 953 818 972 813 967 l 813 107 l 207 107 l 207 953 b 188 972 207 967 201 972 l 110 972 b 90 953 96 972 90 967 l 90 21 b 111 0 90 7 97 0 z "},"Щ":{"ha":1768,"x_min":0,"x_max":0,"o":"m 1706 107 l 1651 107 l 1651 953 b 1632 972 1651 967 1646 972 l 1554 972 b 1535 953 1540 972 1535 967 l 1535 107 l 929 107 l 929 953 b 910 972 929 967 924 972 l 832 972 b 813 953 818 972 813 967 l 813 107 l 207 107 l 207 953 b 188 972 207 967 201 972 l 110 972 b 90 953 96 972 90 967 l 90 21 b 111 0 90 7 97 0 l 1610 0 l 1610 -115 b 1629 -135 1610 -129 1615 -135 l 1708 -135 b 1726 -115 1722 -135 1726 -129 l 1726 86 b 1706 107 1726 100 1719 107 z "},"Ь":{"ha":1324,"x_min":0,"x_max":0,"o":"m 988 744 l 208 744 l 208 953 b 188 972 208 967 201 972 l 110 972 b 90 953 96 972 90 967 l 90 19 b 110 0 90 6 96 0 l 988 0 b 1240 249 1160 0 1240 85 l 1240 494 b 988 744 1240 660 1160 744 z m 1122 261 b 965 107 1122 151 1075 107 l 208 107 l 208 638 l 965 638 b 1122 483 1075 638 1122 593 z "},"Ъ":{"ha":1457,"x_min":0,"x_max":0,"o":"m 1121 744 l 342 744 l 342 953 b 321 972 342 967 335 972 l 61 972 b 42 953 47 972 42 967 l 42 881 b 61 861 42 867 47 861 l 224 861 l 224 19 b 243 0 224 6 229 0 l 1121 0 b 1374 249 1293 0 1374 85 l 1374 494 b 1121 744 1374 660 1293 744 z m 1256 261 b 1099 107 1256 151 1208 107 l 342 107 l 342 638 l 1099 638 b 1256 483 1208 638 1256 593 z "},"Ы":{"ha":1622,"x_min":0,"x_max":0,"o":"m 988 744 l 208 744 l 208 953 b 188 972 208 967 201 972 l 110 972 b 90 953 96 972 90 967 l 90 19 b 110 0 90 6 96 0 l 988 0 b 1240 249 1160 0 1240 85 l 1240 494 b 988 744 1240 660 1160 744 z m 1511 972 l 1433 972 b 1414 953 1419 972 1414 967 l 1414 19 b 1433 0 1414 6 1419 0 l 1511 0 b 1532 19 1525 0 1532 6 l 1532 953 b 1511 972 1532 967 1525 972 z m 1122 261 b 965 107 1122 151 1075 107 l 208 107 l 208 638 l 965 638 b 1122 483 1075 638 1122 593 z "},"Є":{"ha":1406,"x_min":0,"x_max":0,"o":"m 1229 672 l 1313 672 b 1329 690 1325 672 1329 678 l 1329 729 b 1078 978 1329 893 1250 978 l 339 978 b 83 729 167 978 83 893 l 83 243 b 339 -6 83 79 167 -6 l 1078 -6 b 1329 226 1250 -6 1329 76 l 1329 250 b 1313 268 1329 263 1325 268 l 1229 268 b 1211 250 1217 268 1211 263 l 1211 239 b 1056 101 1211 144 1165 101 l 360 101 b 201 256 250 101 201 146 l 201 433 l 564 433 b 583 453 578 433 583 439 l 583 518 b 564 538 583 532 578 538 l 201 538 l 201 717 b 360 871 201 826 250 871 l 1054 871 b 1211 717 1165 871 1211 826 l 1211 690 b 1229 672 1211 678 1217 672 z "},"Э":{"ha":1406,"x_min":0,"x_max":0,"o":"m 1067 978 l 328 978 b 76 729 156 978 76 893 l 76 690 b 93 672 76 678 81 672 l 176 672 b 194 690 189 672 194 678 l 194 717 b 351 871 194 826 240 871 l 1046 871 b 1204 717 1156 871 1204 826 l 1204 538 l 842 538 b 822 518 828 538 822 532 l 822 453 b 842 433 822 439 828 433 l 1204 433 l 1204 256 b 1046 101 1204 146 1156 101 l 350 101 b 194 239 240 101 194 144 l 194 250 b 176 268 194 263 189 268 l 93 268 b 76 250 81 268 76 263 l 76 226 b 328 -6 76 76 156 -6 l 1067 -6 b 1322 243 1239 -6 1322 79 l 1322 729 b 1067 978 1322 893 1239 978 z "},"І":{"ha":299,"x_min":0,"x_max":0,"o":"m 90 953 l 90 19 b 110 0 90 6 96 0 l 188 0 b 208 19 201 0 208 6 l 208 953 b 188 972 208 967 201 972 l 110 972 b 90 953 96 972 90 967 z "},"Ї":{"ha":299,"x_min":0,"x_max":0,"o":"m -74 1129 l 10 1129 b 28 1147 24 1129 28 1133 l 28 1231 b 10 1250 28 1244 24 1250 l -74 1250 b -93 1231 -87 1250 -93 1244 l -93 1147 b -74 1129 -93 1133 -87 1129 z m 260 1129 l 343 1129 b 363 1147 357 1129 363 1133 l 363 1231 b 343 1250 363 1244 357 1250 l 260 1250 b 242 1231 246 1250 242 1244 l 242 1147 b 260 1129 242 1133 246 1129 z m 90 953 l 90 19 b 110 0 90 6 96 0 l 188 0 b 208 19 201 0 208 6 l 208 953 b 188 972 208 967 201 972 l 110 972 b 90 953 96 972 90 967 z "},"Ј":{"ha":1346,"x_min":0,"x_max":0,"o":"m 96 0 l 1001 0 b 1256 249 1174 0 1256 85 l 1256 953 b 1236 972 1256 967 1250 972 l 1158 972 b 1138 953 1144 972 1138 967 l 1138 261 b 982 107 1138 151 1092 107 l 96 107 b 76 86 82 107 76 100 l 76 19 b 96 0 76 6 82 0 z "},"Ю":{"ha":1724,"x_min":0,"x_max":0,"o":"m 1385 978 l 650 978 b 394 729 478 978 394 893 l 394 550 l 208 550 l 208 953 b 188 972 208 967 201 972 l 110 972 b 90 953 96 972 90 967 l 90 19 b 110 0 90 6 96 0 l 188 0 b 208 19 201 0 208 6 l 208 446 l 394 446 l 394 243 b 650 -6 394 79 478 -6 l 1385 -6 b 1640 243 1557 -6 1640 79 l 1640 729 b 1385 978 1640 893 1557 978 z m 1522 256 b 1364 101 1522 146 1474 101 l 671 101 b 513 256 561 101 513 146 l 513 717 b 671 871 513 826 561 871 l 1364 871 b 1522 717 1474 871 1522 826 z "},"Я":{"ha":1333,"x_min":0,"x_max":0,"o":"m 1224 972 l 346 972 b 93 724 174 972 93 888 l 93 525 b 257 285 93 392 146 310 l 88 28 b 106 0 76 11 88 0 l 181 0 b 208 18 194 0 200 6 l 381 275 l 1125 275 l 1125 19 b 1146 0 1125 6 1132 0 l 1224 0 b 1243 19 1238 0 1243 6 l 1243 953 b 1224 972 1243 967 1238 972 z m 367 382 b 211 536 257 382 211 426 l 211 711 b 367 865 211 821 257 865 l 1125 865 l 1125 382 z "},"Ӏ":{"ha":299,"x_min":0,"x_max":0,"o":"m 90 953 l 90 19 b 110 0 90 6 96 0 l 188 0 b 208 19 201 0 208 6 l 208 953 b 188 972 208 967 201 972 l 110 972 b 90 953 96 972 90 967 z "},"Ӣ":{"ha":1364,"x_min":0,"x_max":0,"o":"m 439 1144 l 889 1144 b 910 1165 901 1144 910 1151 l 910 1229 b 889 1250 910 1243 901 1250 l 439 1250 b 418 1229 425 1250 418 1243 l 418 1165 b 439 1144 418 1151 425 1144 z m 1254 0 b 1274 19 1268 0 1274 6 l 1274 953 b 1254 972 1274 967 1268 972 l 1139 972 b 1111 958 1126 972 1121 967 l 219 131 l 208 131 l 208 953 b 188 972 208 967 201 972 l 110 972 b 90 953 96 972 90 967 l 90 19 b 110 0 90 6 96 0 l 225 0 b 253 14 238 0 243 6 l 1144 842 l 1156 842 l 1156 19 b 1176 0 1156 6 1163 0 z "},"Ө":{"ha":1413,"x_min":0,"x_max":0,"o":"m 1074 978 l 339 978 b 83 729 167 978 83 893 l 83 243 b 339 -6 83 79 167 -6 l 1074 -6 b 1329 243 1246 -6 1329 79 l 1329 729 b 1074 978 1329 893 1246 978 z m 360 871 l 1053 871 b 1211 717 1163 871 1211 826 l 1211 539 l 201 539 l 201 717 b 360 871 201 826 250 871 z m 1053 101 l 360 101 b 201 256 250 101 201 146 l 201 435 l 1211 435 l 1211 256 b 1053 101 1211 146 1163 101 z "},"Ӭ":{"ha":1317,"x_min":0,"x_max":0,"o":"m 429 1129 l 513 1129 b 531 1147 526 1129 531 1133 l 531 1231 b 513 1250 531 1244 526 1250 l 429 1250 b 410 1231 415 1250 410 1244 l 410 1147 b 429 1129 410 1133 415 1129 z m 763 1129 l 846 1129 b 865 1147 860 1129 865 1133 l 865 1231 b 846 1250 865 1244 860 1250 l 763 1250 b 744 1231 749 1250 744 1244 l 744 1147 b 763 1129 744 1133 749 1129 z m 1067 978 l 328 978 b 76 729 156 978 76 893 l 76 690 b 93 672 76 678 81 672 l 176 672 b 194 690 189 672 194 678 l 194 717 b 351 871 194 826 240 871 l 1046 871 b 1204 717 1156 871 1204 826 l 1204 538 l 842 538 b 822 518 828 538 822 532 l 822 453 b 842 433 822 439 828 433 l 1204 433 l 1204 256 b 1046 101 1204 146 1156 101 l 350 101 b 194 239 240 101 194 144 l 194 250 b 176 268 194 263 189 268 l 93 268 b 76 250 81 268 76 263 l 76 226 b 328 -6 76 76 156 -6 l 1067 -6 b 1322 243 1239 -6 1322 79 l 1322 729 b 1067 978 1322 893 1239 978 z "},"Ӯ":{"ha":1208,"x_min":0,"x_max":0,"o":"m 388 1144 l 838 1144 b 858 1165 850 1144 858 1151 l 858 1229 b 838 1250 858 1243 850 1250 l 388 1250 b 367 1229 374 1250 367 1243 l 367 1165 b 388 1144 367 1151 374 1144 z m 1138 972 l 1050 972 b 1014 949 1033 972 1025 963 l 603 417 l 194 949 b 158 972 183 963 175 972 l 71 972 b 60 951 57 972 50 963 l 538 332 l 297 21 b 308 0 289 10 296 0 l 397 0 b 432 24 414 0 421 10 l 1149 951 b 1138 972 1158 963 1151 972 z "},"а":{"ha":1011,"x_min":0,"x_max":0,"o":"m 257 -7 l 600 -7 b 819 96 711 -7 778 40 l 828 96 l 828 19 b 849 0 828 6 835 0 l 922 0 b 942 19 936 0 942 6 l 942 453 b 674 700 942 622 868 700 l 307 700 b 85 532 150 700 85 642 b 111 500 85 510 90 500 l 172 500 b 197 519 189 500 194 507 b 329 599 206 574 242 599 l 654 599 b 828 446 789 599 828 557 l 828 401 l 254 401 b 42 203 115 401 42 344 b 257 -7 42 63 124 -7 z m 260 97 b 154 206 193 97 154 125 b 260 311 154 288 193 311 l 828 311 l 828 229 b 664 97 828 156 771 97 z "},"б":{"ha":1028,"x_min":0,"x_max":0,"o":"m 381 -7 l 725 -7 b 965 231 882 -7 965 78 l 965 463 b 725 700 965 615 882 700 l 381 700 b 193 624 264 700 231 674 l 183 624 l 183 746 b 271 843 183 807 201 843 b 518 832 368 843 444 832 b 697 953 632 832 697 875 b 679 972 697 965 694 972 l 601 972 b 581 963 592 972 586 971 b 485 932 564 938 540 932 b 250 943 408 932 343 943 b 69 753 101 943 69 875 l 69 19 b 89 0 69 6 75 0 l 163 0 b 183 19 176 0 183 6 l 183 69 l 193 69 b 381 -7 231 19 264 -7 z m 313 97 b 183 232 229 97 183 139 l 183 460 b 313 596 183 554 229 596 l 718 596 b 853 460 804 596 853 554 l 853 232 b 718 97 853 139 804 97 z "},"в":{"ha":975,"x_min":0,"x_max":0,"o":"m 90 0 l 704 0 b 913 192 838 0 913 47 b 811 350 913 256 894 321 l 811 361 b 894 501 888 394 894 458 b 699 694 894 643 821 694 l 90 694 b 69 674 76 694 69 688 l 69 21 b 90 0 69 7 76 0 z m 183 400 l 183 593 l 692 593 b 782 496 747 593 782 567 b 703 400 782 443 760 400 z m 183 101 l 183 311 l 704 311 b 800 203 764 311 800 279 b 696 101 800 117 757 101 z "},"г":{"ha":936,"x_min":0,"x_max":0,"o":"m 861 694 l 89 694 b 69 675 75 694 69 689 l 69 19 b 89 0 69 6 75 0 l 163 0 b 183 19 176 0 183 6 l 183 593 l 861 593 b 881 613 875 593 881 599 l 881 675 b 861 694 881 689 875 694 z "},"ѓ":{"ha":936,"x_min":0,"x_max":0,"o":"m 426 763 l 492 763 b 525 788 506 763 514 772 l 650 947 b 643 972 663 963 658 972 l 536 972 b 504 947 522 972 514 964 l 417 788 b 426 763 407 772 413 763 z m 861 694 l 89 694 b 69 675 75 694 69 689 l 69 19 b 89 0 69 6 75 0 l 163 0 b 183 19 176 0 183 6 l 183 593 l 861 593 b 881 613 875 593 881 599 l 881 675 b 861 694 881 689 875 694 z "},"ґ":{"ha":936,"x_min":0,"x_max":0,"o":"m 863 769 l 786 769 b 767 751 772 769 767 764 l 767 694 l 89 694 b 69 675 75 694 69 689 l 69 19 b 89 0 69 6 75 0 l 163 0 b 183 19 176 0 183 6 l 183 593 l 861 593 b 881 613 875 593 881 599 l 881 751 b 863 769 881 764 875 769 z "},"д":{"ha":1219,"x_min":0,"x_max":0,"o":"m 1157 101 l 1094 101 l 1094 674 b 1074 694 1094 688 1088 694 l 231 694 b 210 674 217 694 210 688 l 210 347 b 81 101 210 153 143 101 l 63 101 b 42 81 49 101 42 94 l 42 -86 b 60 -104 42 -99 47 -104 l 136 -104 b 156 -86 150 -104 156 -99 l 156 0 l 1064 0 l 1064 -86 b 1083 -104 1064 -99 1069 -104 l 1160 -104 b 1178 -86 1172 -104 1178 -99 l 1178 81 b 1157 101 1178 94 1171 101 z m 254 101 b 324 333 297 153 324 229 l 324 593 l 981 593 l 981 101 z "},"е":{"ha":1014,"x_min":0,"x_max":0,"o":"m 885 303 b 951 369 932 303 951 324 l 951 463 b 711 700 951 615 868 700 l 303 700 b 63 464 146 700 63 617 l 63 229 b 303 -7 63 76 146 -7 l 682 -7 b 933 86 839 -7 892 26 b 931 114 942 99 943 107 l 893 132 b 857 132 878 140 868 139 b 679 97 801 101 778 97 l 313 97 b 176 232 224 97 176 138 l 176 303 z m 313 596 l 701 596 b 838 460 790 596 838 554 l 838 390 l 176 390 l 176 460 b 313 596 176 554 224 596 z "},"ё":{"ha":1014,"x_min":0,"x_max":0,"o":"m 282 851 l 365 851 b 383 869 379 851 383 856 l 383 953 b 365 972 383 967 379 972 l 282 972 b 263 953 268 972 263 967 l 263 869 b 282 851 263 856 268 851 z m 615 851 l 699 851 b 718 869 713 851 718 856 l 718 953 b 699 972 718 967 713 972 l 615 972 b 597 953 601 972 597 967 l 597 869 b 615 851 597 856 601 851 z m 885 303 b 951 369 932 303 951 324 l 951 463 b 711 700 951 615 868 700 l 303 700 b 63 464 146 700 63 617 l 63 229 b 303 -7 63 76 146 -7 l 682 -7 b 933 86 839 -7 892 26 b 931 114 942 99 943 107 l 893 132 b 857 132 878 140 868 139 b 679 97 801 101 778 97 l 313 97 b 176 232 224 97 176 138 l 176 303 z m 313 596 l 701 596 b 838 460 790 596 838 554 l 838 390 l 176 390 l 176 460 b 313 596 176 554 224 596 z "},"ж":{"ha":1392,"x_min":0,"x_max":0,"o":"m 57 0 l 169 0 b 217 18 186 0 199 7 l 639 279 l 639 21 b 660 0 639 6 646 0 l 733 0 b 753 21 747 0 753 6 l 753 279 l 1176 18 b 1222 0 1193 7 1207 0 l 1335 0 b 1343 25 1353 0 1356 18 l 817 349 l 1322 665 b 1319 694 1340 676 1335 694 l 1210 694 b 1175 682 1197 694 1188 690 l 753 417 l 753 674 b 733 694 753 689 747 694 l 660 694 b 639 674 646 694 639 689 l 639 417 l 217 682 b 183 694 204 690 196 694 l 72 694 b 71 665 57 694 53 676 l 575 349 l 49 25 b 57 0 38 18 40 0 z "},"з":{"ha":1019,"x_min":0,"x_max":0,"o":"m 267 -8 l 739 -8 b 957 185 868 -8 957 54 b 865 343 957 251 944 315 l 865 356 b 950 506 944 382 950 439 b 739 700 950 626 868 700 l 267 700 b 63 503 139 700 63 633 b 78 486 63 492 67 486 l 164 486 b 179 503 174 486 179 492 b 281 596 179 554 210 596 l 726 596 b 835 497 794 596 835 567 b 751 394 835 432 822 394 l 282 394 b 268 381 272 394 268 392 l 268 317 b 282 303 268 306 272 303 l 751 303 b 838 193 822 303 838 254 b 726 96 838 121 794 96 l 281 96 b 179 179 211 96 179 131 b 164 194 179 190 174 194 l 78 194 b 63 179 67 194 63 190 b 267 -8 63 50 139 -8 z "},"и":{"ha":1047,"x_min":0,"x_max":0,"o":"m 89 694 b 69 675 75 694 69 689 l 69 19 b 89 0 69 6 75 0 l 201 0 b 232 15 214 0 221 4 l 851 581 l 861 581 l 861 19 b 881 0 861 6 867 0 l 958 0 b 978 19 972 0 978 6 l 978 675 b 958 694 978 689 972 694 l 846 694 b 815 679 833 694 826 690 l 196 114 l 186 114 l 186 675 b 167 694 186 689 181 694 z "},"й":{"ha":1047,"x_min":0,"x_max":0,"o":"m 492 774 l 557 774 b 729 954 674 774 729 833 b 710 972 729 967 724 972 l 654 972 b 635 954 640 972 635 967 b 544 857 632 900 607 857 l 503 857 b 413 954 440 857 415 900 b 394 972 413 967 408 972 l 338 972 b 318 954 324 972 318 967 b 492 774 318 833 375 774 z m 89 694 b 69 675 75 694 69 689 l 69 19 b 89 0 69 6 75 0 l 201 0 b 232 15 214 0 221 4 l 851 581 l 861 581 l 861 19 b 881 0 861 6 867 0 l 958 0 b 978 19 972 0 978 6 l 978 675 b 958 694 978 689 972 694 l 846 694 b 815 679 833 694 826 690 l 196 114 l 186 114 l 186 675 b 167 694 186 689 181 694 z "},"ѝ":{"ha":1047,"x_min":0,"x_max":0,"o":"m 482 947 b 453 972 472 964 467 972 l 349 972 b 335 947 333 972 322 963 l 460 786 b 492 763 471 771 478 763 l 556 763 b 568 788 571 763 578 772 z m 89 694 b 69 675 75 694 69 689 l 69 19 b 89 0 69 6 75 0 l 201 0 b 232 15 214 0 221 4 l 851 581 l 861 581 l 861 19 b 881 0 861 6 867 0 l 958 0 b 978 19 972 0 978 6 l 978 675 b 958 694 978 689 972 694 l 846 694 b 815 679 833 694 826 690 l 196 114 l 186 114 l 186 675 b 167 694 186 689 181 694 z "},"к":{"ha":822,"x_min":0,"x_max":0,"o":"m 774 25 l 247 349 l 751 665 b 750 694 769 676 765 694 l 639 694 b 606 682 626 694 618 690 l 183 417 l 183 674 b 163 694 183 689 176 694 l 89 694 b 69 674 75 694 69 689 l 69 21 b 89 0 69 6 75 0 l 163 0 b 183 21 176 0 183 6 l 183 279 l 606 18 b 653 0 624 7 636 0 l 765 0 b 774 25 782 0 785 18 z "},"ќ":{"ha":822,"x_min":0,"x_max":0,"o":"m 458 947 l 371 788 b 381 763 361 772 367 763 l 446 763 b 479 788 460 763 468 772 l 604 947 b 597 972 617 963 613 972 l 490 972 b 458 947 476 972 468 964 z m 774 25 l 247 349 l 751 665 b 750 694 769 676 765 694 l 639 694 b 606 682 626 694 618 690 l 183 417 l 183 674 b 163 694 183 689 176 694 l 89 694 b 69 674 75 694 69 689 l 69 21 b 89 0 69 6 75 0 l 163 0 b 183 21 176 0 183 6 l 183 279 l 606 18 b 653 0 624 7 636 0 l 765 0 b 774 25 782 0 785 18 z "},"л":{"ha":1089,"x_min":0,"x_max":0,"o":"m 65 -14 b 229 179 196 -14 229 56 l 229 593 l 906 593 l 906 18 b 925 0 906 6 911 0 l 1001 0 b 1019 18 1014 0 1019 6 l 1019 676 b 1001 694 1019 689 1014 694 l 135 694 b 115 676 121 694 115 689 l 115 183 b 29 88 115 110 90 88 b 0 63 7 88 0 79 l 0 18 b 65 -14 0 -4 15 -14 z "},"м":{"ha":1204,"x_min":0,"x_max":0,"o":"m 89 0 l 163 0 b 183 19 176 0 183 6 l 183 550 l 194 550 l 550 72 b 575 56 558 61 563 56 l 629 56 b 654 72 642 56 646 61 l 1010 550 l 1021 550 l 1021 19 b 1042 0 1021 6 1028 0 l 1114 0 b 1135 19 1128 0 1135 6 l 1135 675 b 1114 694 1135 689 1128 694 l 1015 694 b 988 676 1004 694 996 688 l 601 167 l 217 676 b 189 694 208 688 200 694 l 89 694 b 69 675 75 694 69 689 l 69 19 b 89 0 69 6 75 0 z "},"н":{"ha":1024,"x_min":0,"x_max":0,"o":"m 935 694 l 861 694 b 840 675 847 694 840 689 l 840 401 l 183 401 l 183 675 b 163 694 183 689 176 694 l 89 694 b 69 675 75 694 69 689 l 69 19 b 89 0 69 6 75 0 l 163 0 b 183 19 176 0 183 6 l 183 296 l 840 296 l 840 19 b 861 0 840 6 847 0 l 935 0 b 954 19 949 0 954 6 l 954 675 b 935 694 954 689 949 694 z "},"о":{"ha":1021,"x_min":0,"x_max":0,"o":"m 303 -7 l 719 -7 b 958 229 876 -7 958 76 l 958 464 b 719 700 958 617 876 700 l 303 700 b 63 464 146 700 63 617 l 63 229 b 303 -7 63 76 146 -7 z m 313 97 b 176 232 224 97 176 139 l 176 460 b 313 596 176 554 224 596 l 708 596 b 846 460 797 596 846 554 l 846 232 b 708 97 846 139 797 97 z "},"п":{"ha":1075,"x_min":0,"x_max":0,"o":"m 986 694 l 89 694 b 69 675 75 694 69 689 l 69 19 b 89 0 69 6 75 0 l 163 0 b 183 19 176 0 183 6 l 183 590 l 892 590 l 892 19 b 913 0 892 6 899 0 l 986 0 b 1006 19 1000 0 1006 6 l 1006 675 b 986 694 1006 689 1000 694 z "},"р":{"ha":1028,"x_min":0,"x_max":0,"o":"m 164 -246 b 183 -226 175 -246 183 -240 l 183 69 l 193 69 b 381 -7 231 19 264 -7 l 725 -7 b 965 231 882 -7 965 78 l 965 463 b 725 700 965 615 882 700 l 381 700 b 193 624 264 700 231 674 l 183 624 l 183 675 b 163 694 183 689 176 694 l 89 694 b 69 675 75 694 69 689 l 69 -226 b 89 -246 69 -240 75 -246 z m 718 97 l 313 97 b 183 233 229 97 183 139 l 183 461 b 313 596 183 554 229 596 l 718 596 b 853 461 804 596 853 554 l 853 233 b 718 97 853 139 804 97 z "},"с":{"ha":1004,"x_min":0,"x_max":0,"o":"m 303 -7 l 682 -7 b 933 86 839 -7 892 26 b 931 114 942 99 943 107 l 893 132 b 857 132 878 140 868 139 b 679 97 801 101 778 97 l 313 97 b 176 232 224 97 176 138 l 176 460 b 313 596 176 554 224 596 l 707 596 b 836 493 797 596 836 561 l 836 461 b 858 443 836 450 846 443 l 926 443 b 949 464 942 443 949 451 l 949 497 b 721 700 949 628 876 700 l 303 700 b 63 464 146 700 63 617 l 63 229 b 303 -7 63 76 146 -7 z "},"т":{"ha":1006,"x_min":0,"x_max":0,"o":"m 931 694 l 75 694 b 56 675 61 694 56 689 l 56 608 b 75 588 56 594 61 588 l 447 588 l 447 19 b 467 0 447 6 453 0 l 540 0 b 561 19 554 0 561 6 l 561 588 l 931 588 b 950 608 944 588 950 594 l 950 675 b 931 694 950 689 944 694 z "},"у":{"ha":1083,"x_min":0,"x_max":0,"o":"m 1017 694 l 929 694 b 899 671 914 694 908 686 l 549 133 l 535 133 l 185 671 b 154 694 175 686 169 694 l 67 694 b 53 671 53 694 43 686 l 472 26 b 475 21 474 25 475 24 l 313 -228 b 328 -251 303 -243 314 -251 l 415 -251 b 446 -228 429 -251 436 -243 l 1031 671 b 1017 694 1040 686 1031 694 z "},"ў":{"ha":1083,"x_min":0,"x_max":0,"o":"m 508 774 l 574 774 b 746 954 690 774 746 833 b 726 972 746 967 740 972 l 671 972 b 651 954 657 972 651 967 b 561 857 649 900 624 857 l 519 857 b 429 954 457 857 432 900 b 411 972 429 967 425 972 l 354 972 b 335 954 340 972 335 967 b 508 774 335 833 392 774 z m 1017 694 l 929 694 b 899 671 914 694 908 686 l 549 133 l 535 133 l 185 671 b 154 694 175 686 169 694 l 67 694 b 53 671 53 694 43 686 l 472 26 b 475 21 474 25 475 24 l 313 -228 b 328 -251 303 -243 314 -251 l 415 -251 b 446 -228 429 -251 436 -243 l 1031 671 b 1017 694 1040 686 1031 694 z "},"ф":{"ha":1804,"x_min":0,"x_max":0,"o":"m 1501 700 l 1157 700 b 969 624 1040 700 1007 674 l 958 624 l 958 953 b 939 972 958 967 953 972 l 865 972 b 846 953 853 972 846 967 l 846 624 l 835 624 b 647 700 797 674 764 700 l 303 700 b 63 463 146 700 63 615 l 63 231 b 303 -7 63 78 146 -7 l 647 -7 b 835 69 764 -7 797 19 l 846 69 l 846 -226 b 865 -246 846 -240 851 -246 l 939 -246 b 958 -226 951 -246 958 -240 l 958 69 l 969 69 b 1157 -7 1007 19 1040 -7 l 1501 -7 b 1742 231 1658 -7 1742 78 l 1742 463 b 1501 700 1742 615 1658 700 z m 715 97 l 311 97 b 176 232 224 97 176 139 l 176 460 b 311 596 176 554 224 596 l 715 596 b 846 460 799 596 846 554 l 846 232 b 715 97 846 139 799 97 z m 1628 233 b 1493 97 1628 139 1581 97 l 1089 97 b 958 233 1006 97 958 139 l 958 461 b 1089 596 958 554 1006 596 l 1493 596 b 1628 461 1581 596 1628 554 z "},"х":{"ha":985,"x_min":0,"x_max":0,"o":"m 569 347 l 929 668 b 919 694 943 682 936 694 l 821 694 b 778 669 810 694 799 688 l 493 415 l 208 669 b 164 694 188 688 175 694 l 65 694 b 57 668 49 694 42 682 l 417 347 l 57 26 b 67 0 42 13 50 0 l 165 0 b 210 25 176 0 189 7 l 493 278 l 776 25 b 819 0 797 7 808 0 l 918 0 b 929 26 935 0 943 13 z "},"ч":{"ha":1047,"x_min":0,"x_max":0,"o":"m 958 694 l 885 694 b 864 675 871 694 864 689 l 864 372 b 725 238 864 279 813 238 l 318 238 b 183 372 231 238 183 279 l 183 675 b 163 694 183 689 176 694 l 89 694 b 69 675 75 694 69 689 l 69 371 b 310 133 69 218 153 133 l 707 133 b 864 206 776 133 831 160 l 864 19 b 885 0 864 6 871 0 l 958 0 b 978 19 972 0 978 6 l 978 675 b 958 694 978 689 972 694 z "},"ц":{"ha":1138,"x_min":0,"x_max":0,"o":"m 1061 106 l 969 106 l 969 674 b 949 694 969 688 963 694 l 876 694 b 856 674 863 694 856 688 l 856 106 l 204 106 l 204 674 b 183 694 204 688 197 694 l 111 694 b 90 674 97 694 90 688 l 90 21 b 111 0 90 7 97 0 l 968 0 l 968 -143 b 989 -164 968 -157 975 -164 l 1061 -164 b 1082 -143 1075 -164 1082 -157 l 1082 85 b 1061 106 1082 99 1075 106 z "},"ш":{"ha":1478,"x_min":0,"x_max":0,"o":"m 1367 694 l 1294 694 b 1274 674 1281 694 1274 688 l 1274 106 l 796 106 l 796 674 b 775 694 796 688 789 694 l 703 694 b 682 674 689 694 682 688 l 682 106 l 204 106 l 204 674 b 183 694 204 688 197 694 l 111 694 b 90 674 97 694 90 688 l 90 21 b 111 0 90 7 97 0 l 1367 0 b 1388 21 1381 0 1388 7 l 1388 674 b 1367 694 1388 688 1381 694 z "},"щ":{"ha":1563,"x_min":0,"x_max":0,"o":"m 1486 106 l 1388 106 l 1388 674 b 1367 694 1388 688 1381 694 l 1294 694 b 1274 674 1281 694 1274 688 l 1274 106 l 796 106 l 796 674 b 775 694 796 688 789 694 l 703 694 b 682 674 689 694 682 688 l 682 106 l 204 106 l 204 674 b 183 694 204 688 197 694 l 111 694 b 90 674 97 694 90 688 l 90 21 b 111 0 90 7 97 0 l 1394 0 l 1394 -143 b 1415 -164 1394 -157 1401 -164 l 1486 -164 b 1507 -143 1500 -164 1507 -157 l 1507 85 b 1486 106 1507 99 1500 106 z "},"ь":{"ha":1010,"x_min":0,"x_max":0,"o":"m 706 431 l 178 431 l 178 675 b 158 694 178 689 172 694 l 89 694 b 69 675 75 694 69 689 l 69 19 b 89 0 69 6 75 0 l 706 0 b 947 215 885 0 947 65 b 706 431 947 351 885 431 z m 701 104 l 178 104 l 178 326 l 701 326 b 839 215 803 326 839 296 b 701 104 839 126 803 104 z "},"ъ":{"ha":1054,"x_min":0,"x_max":0,"o":"m 750 431 l 222 431 l 222 675 b 203 694 222 689 217 694 l 40 694 b 21 675 26 694 21 689 l 21 610 b 40 590 21 596 26 590 l 114 590 l 114 19 b 135 0 114 6 121 0 l 750 0 b 992 215 931 0 992 65 b 750 431 992 351 931 431 z m 746 104 l 222 104 l 222 326 l 746 326 b 883 215 847 326 883 296 b 746 104 883 126 847 104 z "},"ы":{"ha":1238,"x_min":0,"x_max":0,"o":"m 706 431 l 178 431 l 178 675 b 158 694 178 689 172 694 l 89 694 b 69 675 75 694 69 689 l 69 19 b 89 0 69 6 75 0 l 706 0 b 947 215 885 0 947 65 b 706 431 947 351 885 431 z m 1149 694 l 1075 694 b 1054 675 1061 694 1054 689 l 1054 19 b 1075 0 1054 6 1061 0 l 1149 0 b 1168 19 1163 0 1168 6 l 1168 675 b 1149 694 1168 689 1163 694 z m 701 104 l 178 104 l 178 326 l 701 326 b 839 215 803 326 839 296 b 701 104 839 126 803 104 z "},"є":{"ha":1004,"x_min":0,"x_max":0,"o":"m 721 700 l 303 700 b 63 464 146 700 63 617 l 63 229 b 303 -7 63 76 146 -7 l 682 -7 b 933 86 839 -7 892 26 b 931 114 942 99 943 107 l 893 132 b 857 132 878 140 868 139 b 679 97 801 101 778 97 l 313 97 b 176 232 224 97 176 138 l 176 299 l 444 299 b 464 319 458 299 464 306 l 464 375 b 444 394 464 389 458 394 l 176 394 l 176 460 b 313 596 176 554 224 596 l 707 596 b 836 493 797 596 836 561 l 836 461 b 858 443 836 450 846 443 l 926 443 b 949 464 942 443 949 451 l 949 497 b 721 700 949 628 876 700 z "},"э":{"ha":1004,"x_min":0,"x_max":0,"o":"m 701 700 l 283 700 b 56 497 128 700 56 628 l 56 464 b 78 443 56 451 63 443 l 146 443 b 168 461 158 443 168 450 l 168 493 b 297 596 168 561 207 596 l 692 596 b 828 460 781 596 828 554 l 828 394 l 560 394 b 540 375 546 394 540 389 l 540 319 b 560 299 540 306 546 299 l 828 299 l 828 232 b 692 97 828 138 781 97 l 325 97 b 147 132 226 97 203 101 b 111 132 136 139 126 140 l 74 114 b 71 86 61 107 63 99 b 322 -7 113 26 165 -7 l 701 -7 b 942 229 858 -7 942 76 l 942 464 b 701 700 942 617 858 700 z "},"і":{"ha":253,"x_min":0,"x_max":0,"o":"m 69 953 l 69 881 b 89 861 69 867 75 861 l 163 861 b 183 881 176 861 183 867 l 183 953 b 163 972 183 967 176 972 l 89 972 b 69 953 75 972 69 967 z m 69 675 l 69 19 b 89 0 69 6 75 0 l 163 0 b 183 19 176 0 183 6 l 183 675 b 163 694 183 689 176 694 l 89 694 b 69 675 75 694 69 689 z "},"ї":{"ha":253,"x_min":0,"x_max":0,"o":"m -99 851 l -15 851 b 3 869 -1 851 3 856 l 3 953 b -15 972 3 967 -1 972 l -99 972 b -118 953 -112 972 -118 967 l -118 869 b -99 851 -118 856 -112 851 z m 235 851 l 318 851 b 338 869 332 851 338 856 l 338 953 b 318 972 338 967 332 972 l 235 972 b 217 953 221 972 217 967 l 217 869 b 235 851 217 856 221 851 z m 69 675 l 69 19 b 89 0 69 6 75 0 l 163 0 b 183 19 176 0 183 6 l 183 675 b 163 694 183 689 176 694 l 89 694 b 69 675 75 694 69 689 z "},"ј":{"ha":260,"x_min":0,"x_max":0,"o":"m 97 861 l 171 861 b 190 881 185 861 190 867 l 190 953 b 171 972 190 967 185 972 l 97 972 b 76 953 83 972 76 967 l 76 881 b 97 861 76 867 83 861 z m -46 -251 b 190 -14 107 -251 190 -167 l 190 675 b 171 694 190 689 185 694 l 97 694 b 76 675 83 694 76 689 l 76 -4 b -65 -149 76 -106 31 -149 l -132 -149 b -153 -167 -144 -149 -153 -154 l -153 -222 b -131 -246 -153 -237 -144 -244 b -46 -251 -104 -250 -81 -251 z "},"ю":{"ha":1297,"x_min":0,"x_max":0,"o":"m 994 700 l 578 700 b 339 464 421 700 339 617 l 339 392 l 183 392 l 183 674 b 163 693 183 688 176 693 l 89 693 b 69 674 75 693 69 688 l 69 18 b 89 -1 69 4 75 -1 l 163 -1 b 183 18 176 -1 183 4 l 183 294 l 339 294 l 339 229 b 578 -7 339 76 421 -7 l 994 -7 b 1235 229 1151 -7 1235 76 l 1235 464 b 994 700 1235 617 1151 700 z m 1121 232 b 985 97 1121 139 1074 97 l 589 97 b 451 232 500 97 451 139 l 451 460 b 589 596 451 554 500 596 l 985 596 b 1121 460 1074 596 1121 554 z "},"я":{"ha":990,"x_min":0,"x_max":0,"o":"m 156 0 b 176 19 169 0 176 6 l 176 182 b 271 293 176 258 201 293 l 807 293 l 807 19 b 828 0 807 6 814 0 l 901 0 b 921 19 915 0 921 6 l 921 675 b 901 694 921 689 915 694 l 265 694 b 72 506 144 694 72 631 b 157 349 72 460 81 390 b 63 189 78 318 63 249 l 63 19 b 82 0 63 6 68 0 z m 807 590 l 807 394 l 274 394 b 186 496 210 394 186 436 b 281 590 186 557 218 590 z "},"ӣ":{"ha":1047,"x_min":0,"x_max":0,"o":"m 300 867 l 750 867 b 771 888 763 867 771 874 l 771 951 b 750 972 771 965 763 972 l 300 972 b 279 951 286 972 279 965 l 279 888 b 300 867 279 874 286 867 z m 89 694 b 69 675 75 694 69 689 l 69 19 b 89 0 69 6 75 0 l 201 0 b 232 15 214 0 221 4 l 851 581 l 861 581 l 861 19 b 881 0 861 6 867 0 l 958 0 b 978 19 972 0 978 6 l 978 675 b 958 694 978 689 972 694 l 846 694 b 815 679 833 694 826 690 l 196 114 l 186 114 l 186 675 b 167 694 186 689 181 694 z "},"ө":{"ha":1021,"x_min":0,"x_max":0,"o":"m 719 701 l 303 701 b 63 465 146 701 63 618 l 63 231 b 303 -6 63 78 146 -6 l 719 -6 b 958 231 876 -6 958 78 l 958 465 b 719 701 958 617 876 701 z m 313 597 l 708 597 b 846 461 797 597 846 556 l 846 399 l 176 399 l 176 461 b 313 597 176 556 224 597 z m 708 99 l 313 99 b 176 233 224 99 176 139 l 176 294 l 846 294 l 846 233 b 708 99 846 139 797 99 z "},"ӭ":{"ha":1004,"x_min":0,"x_max":0,"o":"m 283 851 l 367 851 b 385 869 381 851 385 856 l 385 953 b 367 972 385 967 381 972 l 283 972 b 264 953 269 972 264 967 l 264 869 b 283 851 264 856 269 851 z m 617 851 l 700 851 b 719 869 714 851 719 856 l 719 953 b 700 972 719 967 714 972 l 617 972 b 599 953 603 972 599 967 l 599 869 b 617 851 599 856 603 851 z m 701 700 l 283 700 b 56 497 128 700 56 628 l 56 464 b 78 443 56 451 63 443 l 146 443 b 168 461 158 443 168 450 l 168 493 b 297 596 168 561 207 596 l 692 596 b 828 460 781 596 828 554 l 828 394 l 560 394 b 540 375 546 394 540 389 l 540 319 b 560 299 540 306 546 299 l 828 299 l 828 232 b 692 97 828 138 781 97 l 325 97 b 147 132 226 97 203 101 b 111 132 136 139 126 140 l 74 114 b 71 86 61 107 63 99 b 322 -7 113 26 165 -7 l 701 -7 b 942 229 858 -7 942 76 l 942 464 b 701 700 942 617 858 700 z "},"ӯ":{"ha":1083,"x_min":0,"x_max":0,"o":"m 328 867 l 778 867 b 799 888 790 867 799 874 l 799 951 b 778 972 799 965 790 972 l 328 972 b 307 951 314 972 307 965 l 307 888 b 328 867 307 874 314 867 z m 1017 694 l 929 694 b 899 671 914 694 908 686 l 549 133 l 535 133 l 185 671 b 154 694 175 686 169 694 l 67 694 b 53 671 53 694 43 686 l 472 26 b 475 21 474 25 475 24 l 313 -228 b 328 -251 303 -243 314 -251 l 415 -251 b 446 -228 429 -251 436 -243 l 1031 671 b 1017 694 1040 686 1031 694 z "},"Δ":{"ha":1165,"x_min":0,"x_max":0,"o":"m 1107 29 l 639 990 b 613 1013 632 1004 625 1013 l 554 1013 b 528 990 542 1013 535 1004 l 58 29 b 72 0 51 14 58 0 l 1092 0 b 1107 29 1106 0 1114 14 z m 217 117 l 583 872 l 947 117 z "},"Ω":{"ha":1339,"x_min":0,"x_max":0,"o":"m 1256 322 l 1256 743 b 983 1025 1256 928 1143 1025 l 356 1025 b 83 743 196 1025 83 928 l 83 322 b 196 117 83 218 125 160 l 104 117 b 83 96 90 117 83 110 l 83 21 b 104 0 83 7 90 0 l 353 0 b 374 21 367 0 374 7 l 374 104 b 353 125 374 118 367 125 l 349 125 b 200 339 264 125 200 232 l 200 733 b 365 908 200 858 264 908 l 974 908 b 1139 733 1075 908 1139 858 l 1139 339 b 990 125 1139 232 1075 125 l 986 125 b 965 104 972 125 965 118 l 965 21 b 986 0 965 7 972 0 l 1235 0 b 1256 21 1249 0 1256 7 l 1256 96 b 1235 117 1256 110 1249 117 l 1143 117 b 1256 322 1214 160 1256 218 z "},"μ":{"ha":1035,"x_min":0,"x_max":0,"o":"m 946 694 l 872 694 b 853 675 858 694 853 689 l 853 235 b 717 99 853 140 806 99 l 319 99 b 183 235 231 99 183 140 l 183 675 b 163 694 183 689 176 694 l 89 694 b 69 675 75 694 69 689 l 69 -258 b 89 -278 69 -272 75 -278 l 163 -278 b 182 -258 176 -278 182 -272 l 182 19 b 310 -6 217 3 260 -6 l 654 -6 b 842 71 771 -6 804 21 l 853 71 l 853 19 b 872 0 853 6 860 0 l 946 0 b 965 19 960 0 965 6 l 965 675 b 946 694 965 689 960 694 z "},"π":{"ha":1089,"x_min":0,"x_max":0,"o":"m 1013 694 l 75 694 b 56 674 61 694 56 688 l 56 599 b 76 578 56 585 61 578 l 142 578 l 142 21 b 163 0 142 7 149 0 l 238 0 b 258 21 251 0 258 7 l 258 578 l 829 578 l 829 21 b 850 0 829 7 836 0 l 925 0 b 946 21 939 0 946 7 l 946 578 l 1013 578 b 1033 597 1026 578 1033 585 l 1033 674 b 1013 694 1033 686 1026 694 z "},"¹":{"ha":419,"x_min":0,"x_max":0,"o":"m 167 951 l 167 564 b 188 543 167 550 174 543 l 232 543 b 253 564 246 543 253 550 l 253 951 b 232 972 253 965 246 972 l 188 972 b 167 951 174 972 167 965 z "},"²":{"ha":444,"x_min":0,"x_max":0,"o":"m 340 624 l 190 624 l 268 692 b 360 847 317 733 360 776 b 240 972 360 913 322 972 l 206 972 b 83 857 129 972 83 924 l 83 839 b 104 818 83 825 90 818 l 146 818 b 167 839 160 818 167 825 l 167 849 b 218 893 167 878 188 893 b 275 839 253 893 275 874 b 226 761 275 807 250 783 l 106 647 b 86 608 92 635 86 628 l 86 563 b 107 542 86 549 93 542 l 340 542 b 361 563 354 542 361 549 l 361 603 b 340 624 361 617 354 624 z "},"³":{"ha":451,"x_min":0,"x_max":0,"o":"m 301 757 b 360 853 343 778 360 810 b 243 972 360 913 322 972 l 208 972 b 86 857 132 972 86 924 l 86 839 b 107 818 86 825 93 818 l 149 818 b 169 839 163 818 169 825 l 169 849 b 224 893 169 878 190 893 b 278 840 258 893 278 874 b 226 793 278 810 264 793 l 204 793 b 185 772 192 793 185 786 l 185 742 b 204 721 185 728 192 721 l 226 721 b 281 674 267 721 281 704 b 224 621 281 640 261 621 b 167 665 188 621 167 636 l 167 675 b 146 696 167 689 160 696 l 104 696 b 83 675 90 696 83 689 l 83 657 b 208 542 83 590 129 542 l 243 542 b 368 661 331 542 368 601 b 301 757 368 704 346 736 z "},"⁄":{"ha":139,"x_min":0,"x_max":0,"o":"m 289 988 l -272 21 b -258 0 -281 7 -272 0 l -206 0 b -178 21 -192 0 -186 7 l 383 988 b 369 1008 392 1001 383 1008 l 317 1008 b 289 988 303 1008 297 1001 z "},"½":{"ha":1003,"x_min":0,"x_max":0,"o":"m 708 988 l 147 21 b 161 0 139 7 147 0 l 214 0 b 242 21 228 0 233 7 l 803 988 b 789 1008 811 1001 803 1008 l 736 1008 b 708 988 722 1008 717 1001 z m 167 951 l 167 564 b 188 543 167 550 174 543 l 232 543 b 253 564 246 543 253 550 l 253 951 b 232 972 253 965 246 972 l 188 972 b 167 951 174 972 167 965 z m 899 82 l 749 82 l 826 150 b 918 306 875 192 918 235 b 799 431 918 371 881 431 l 764 431 b 642 315 688 431 642 382 l 642 297 b 663 276 642 283 649 276 l 704 276 b 725 297 718 276 725 283 l 725 307 b 776 351 725 336 746 351 b 833 297 811 351 833 332 b 785 219 833 265 808 242 l 664 106 b 644 67 650 93 644 86 l 644 21 b 665 0 644 7 651 0 l 899 0 b 919 21 913 0 919 7 l 919 61 b 899 82 919 75 913 82 z "},"¼":{"ha":1025,"x_min":0,"x_max":0,"o":"m 708 988 l 147 21 b 161 0 139 7 147 0 l 214 0 b 242 21 228 0 233 7 l 803 988 b 789 1008 811 1001 803 1008 l 736 1008 b 708 988 722 1008 717 1001 z m 167 951 l 167 564 b 188 543 167 550 174 543 l 232 543 b 253 564 246 543 253 550 l 253 951 b 232 972 253 965 246 972 l 188 972 b 167 951 174 972 167 965 z m 921 150 l 901 150 l 901 410 b 881 431 901 424 894 431 l 811 431 b 788 415 803 431 793 426 l 649 151 b 642 126 646 146 642 138 l 642 92 b 665 71 642 78 650 71 l 818 71 l 818 21 b 839 0 818 7 825 0 l 881 0 b 901 21 894 0 901 7 l 901 71 l 921 71 b 942 92 935 71 942 78 l 942 129 b 921 150 942 143 935 150 z m 818 153 l 738 153 l 818 315 z "},"¾":{"ha":1057,"x_min":0,"x_max":0,"o":"m 740 988 l 179 21 b 193 0 171 7 179 0 l 246 0 b 274 21 260 0 265 7 l 835 988 b 821 1008 843 1001 835 1008 l 768 1008 b 740 988 754 1008 749 1001 z m 301 757 b 360 853 343 778 360 810 b 243 972 360 913 322 972 l 208 972 b 86 857 132 972 86 924 l 86 839 b 107 818 86 825 93 818 l 149 818 b 169 839 163 818 169 825 l 169 849 b 224 893 169 878 190 893 b 278 840 258 893 278 874 b 226 793 278 810 264 793 l 204 793 b 185 772 192 793 185 786 l 185 742 b 204 721 185 728 192 721 l 226 721 b 281 674 267 721 281 704 b 224 621 281 640 261 621 b 167 665 188 621 167 636 l 167 675 b 146 696 167 689 160 696 l 104 696 b 83 675 90 696 83 689 l 83 657 b 208 542 83 590 129 542 l 243 542 b 368 661 331 542 368 601 b 301 757 368 704 346 736 z m 953 150 l 933 150 l 933 410 b 913 431 933 424 926 431 l 843 431 b 819 415 835 431 825 426 l 681 151 b 674 126 678 146 674 138 l 674 92 b 697 71 674 78 682 71 l 850 71 l 850 21 b 871 0 850 7 857 0 l 913 0 b 933 21 926 0 933 7 l 933 71 l 953 71 b 974 92 967 71 974 78 l 974 129 b 953 150 974 143 967 150 z m 850 153 l 769 153 l 850 315 z "},"⅛":{"ha":1007,"x_min":0,"x_max":0,"o":"m 708 988 l 147 21 b 161 0 139 7 147 0 l 214 0 b 242 21 228 0 233 7 l 803 988 b 789 1008 811 1001 803 1008 l 736 1008 b 708 988 722 1008 717 1001 z m 167 951 l 167 564 b 188 543 167 550 174 543 l 232 543 b 253 564 246 543 253 550 l 253 951 b 232 972 253 965 246 972 l 188 972 b 167 951 174 972 167 965 z m 867 226 b 913 317 894 244 913 274 b 794 431 913 381 871 431 l 771 431 b 653 317 699 431 653 381 b 699 226 653 274 671 244 b 642 122 671 210 642 182 b 769 0 642 50 685 0 l 796 0 b 924 122 881 0 924 50 b 867 226 924 182 894 210 z m 786 258 l 779 258 b 733 307 751 258 733 276 b 779 356 733 338 751 356 l 786 356 b 832 307 814 356 832 338 b 786 258 832 276 814 258 z m 775 78 b 726 131 746 78 726 94 b 775 186 726 165 746 186 l 790 186 b 839 131 819 186 839 165 b 790 78 839 94 819 78 z "},"⅜":{"ha":1039,"x_min":0,"x_max":0,"o":"m 740 988 l 179 21 b 193 0 171 7 179 0 l 246 0 b 274 21 260 0 265 7 l 835 988 b 821 1008 843 1001 835 1008 l 768 1008 b 740 988 754 1008 749 1001 z m 301 757 b 360 853 343 778 360 810 b 243 972 360 913 322 972 l 208 972 b 86 857 132 972 86 924 l 86 839 b 107 818 86 825 93 818 l 149 818 b 169 839 163 818 169 825 l 169 849 b 224 893 169 878 190 893 b 278 840 258 893 278 874 b 226 793 278 810 264 793 l 204 793 b 185 772 192 793 185 786 l 185 742 b 204 721 185 728 192 721 l 226 721 b 281 674 267 721 281 704 b 224 621 281 640 261 621 b 167 665 188 621 167 636 l 167 675 b 146 696 167 689 160 696 l 104 696 b 83 675 90 696 83 689 l 83 657 b 208 542 83 590 129 542 l 243 542 b 368 661 331 542 368 601 b 301 757 368 704 346 736 z m 899 226 b 944 317 926 244 944 274 b 826 431 944 381 903 431 l 803 431 b 685 317 731 431 685 381 b 731 226 685 274 703 244 b 674 122 703 210 674 182 b 801 0 674 50 717 0 l 828 0 b 956 122 913 0 956 50 b 899 226 956 182 926 210 z m 818 258 l 811 258 b 765 307 783 258 765 276 b 811 356 765 338 783 356 l 818 356 b 864 307 846 356 864 338 b 818 258 864 276 846 258 z m 807 78 b 758 131 778 78 758 94 b 807 186 758 165 778 186 l 822 186 b 871 131 851 186 871 165 b 822 78 871 94 851 78 z "},"⅝":{"ha":1039,"x_min":0,"x_max":0,"o":"m 740 988 l 179 21 b 193 0 171 7 179 0 l 246 0 b 274 21 260 0 265 7 l 835 988 b 821 1008 843 1001 835 1008 l 768 1008 b 740 988 754 1008 749 1001 z m 238 824 b 169 799 215 824 188 818 l 169 892 l 332 892 b 353 913 346 892 353 899 l 353 951 b 332 972 353 965 346 972 l 110 972 b 89 951 96 972 89 965 l 89 757 b 110 736 89 743 96 736 l 168 736 b 221 754 181 749 201 754 b 281 682 268 754 281 726 b 224 621 281 640 261 621 b 167 665 188 621 167 636 l 167 675 b 146 696 167 689 160 696 l 104 696 b 83 675 90 696 83 689 l 83 657 b 208 542 83 590 129 542 l 243 542 b 368 682 331 542 368 601 b 238 824 368 769 325 824 z m 899 226 b 944 317 926 244 944 274 b 826 431 944 381 903 431 l 803 431 b 685 317 731 431 685 381 b 731 226 685 274 703 244 b 674 122 703 210 674 182 b 801 0 674 50 717 0 l 828 0 b 956 122 913 0 956 50 b 899 226 956 182 926 210 z m 818 258 l 811 258 b 765 307 783 258 765 276 b 811 356 765 338 783 356 l 818 356 b 864 307 846 356 864 338 b 818 258 864 276 846 258 z m 807 78 b 758 131 778 78 758 94 b 807 186 758 165 778 186 l 822 186 b 871 131 851 186 871 165 b 822 78 871 94 851 78 z "},"⅞":{"ha":1024,"x_min":0,"x_max":0,"o":"m 725 988 l 164 21 b 178 0 156 7 164 0 l 231 0 b 258 21 244 0 250 7 l 819 988 b 806 1008 828 1001 819 1008 l 753 1008 b 725 988 739 1008 733 1001 z m 353 908 l 353 951 b 332 972 353 965 346 972 l 104 972 b 83 951 90 972 83 965 l 83 910 b 104 889 83 896 90 889 l 260 889 l 104 561 b 117 542 100 551 104 542 l 175 542 b 197 561 186 542 193 551 l 347 885 b 353 908 353 896 353 903 z m 883 226 b 929 317 911 244 929 274 b 811 431 929 381 888 431 l 788 431 b 669 317 715 431 669 381 b 715 226 669 274 688 244 b 658 122 688 210 658 182 b 786 0 658 50 701 0 l 813 0 b 940 122 897 0 940 50 b 883 226 940 182 911 210 z m 803 258 l 796 258 b 750 307 768 258 750 276 b 796 356 750 338 768 356 l 803 356 b 849 307 831 356 849 338 b 803 258 849 276 831 258 z m 792 78 b 743 131 763 78 743 94 b 792 186 743 165 763 186 l 807 186 b 856 131 836 186 856 165 b 807 78 856 94 836 78 z "},".":{"ha":218,"x_min":0,"x_max":0,"o":"m 68 0 l 151 0 b 169 19 165 0 169 6 l 169 103 b 151 121 169 117 165 121 l 68 121 b 49 103 54 121 49 117 l 49 19 b 68 0 49 6 54 0 z "},",":{"ha":251,"x_min":0,"x_max":0,"o":"m 183 121 l 121 121 b 101 103 107 121 101 117 l 101 -110 l 54 -110 b 35 -128 40 -110 35 -114 l 35 -186 b 54 -206 35 -200 40 -206 l 164 -206 b 203 -165 190 -206 203 -193 l 203 103 b 183 121 203 117 197 121 z "},":":{"ha":218,"x_min":0,"x_max":0,"o":"m 68 574 l 151 574 b 169 592 165 574 169 578 l 169 675 b 151 694 169 689 165 694 l 68 694 b 49 675 54 694 49 689 l 49 592 b 68 574 49 578 54 574 z m 68 0 l 151 0 b 169 19 165 0 169 6 l 169 103 b 151 121 169 117 165 121 l 68 121 b 49 103 54 121 49 117 l 49 19 b 68 0 49 6 54 0 z "},";":{"ha":276,"x_min":0,"x_max":0,"o":"m 125 574 l 208 574 b 228 592 222 574 228 578 l 228 675 b 208 694 228 689 222 694 l 125 694 b 106 675 111 694 106 689 l 106 592 b 125 574 106 578 111 574 z m 197 121 l 135 121 b 115 103 121 121 115 117 l 115 -110 l 68 -110 b 49 -128 54 -110 49 -114 l 49 -186 b 68 -206 49 -200 54 -206 l 178 -206 b 217 -165 204 -206 217 -193 l 217 103 b 197 121 217 117 211 121 z "},"…":{"ha":714,"x_min":0,"x_max":0,"o":"m 68 0 l 151 0 b 169 19 165 0 169 6 l 169 103 b 151 121 169 117 165 121 l 68 121 b 49 103 54 121 49 117 l 49 19 b 68 0 49 6 54 0 z m 314 0 l 397 0 b 415 19 411 0 415 6 l 415 103 b 397 121 415 117 411 121 l 314 121 b 294 103 300 121 294 117 l 294 19 b 314 0 294 6 300 0 z m 564 0 l 647 0 b 665 19 661 0 665 6 l 665 103 b 647 121 665 117 661 121 l 564 121 b 544 103 550 121 544 117 l 544 19 b 564 0 544 6 550 0 z "},"!":{"ha":301,"x_min":0,"x_max":0,"o":"m 110 251 l 192 251 b 211 271 206 251 211 257 l 211 953 b 192 972 211 967 206 972 l 110 972 b 92 953 96 972 92 967 l 92 271 b 110 251 92 257 96 251 z m 110 0 l 193 0 b 211 19 207 0 211 6 l 211 103 b 193 121 211 117 207 121 l 110 121 b 90 103 96 121 90 117 l 90 19 b 110 0 90 6 96 0 z "},"¡":{"ha":301,"x_min":0,"x_max":0,"o":"m 193 694 l 110 694 b 90 675 96 694 90 689 l 90 592 b 110 574 90 578 96 574 l 193 574 b 211 592 207 574 211 578 l 211 675 b 193 694 211 689 207 694 z m 192 443 l 110 443 b 92 424 96 443 92 438 l 92 -258 b 110 -278 92 -272 96 -278 l 192 -278 b 211 -258 206 -278 211 -272 l 211 424 b 192 443 211 438 206 443 z "},"?":{"ha":1239,"x_min":0,"x_max":0,"o":"m 547 251 l 626 251 b 646 272 640 251 646 258 l 646 367 b 729 456 646 426 665 456 l 914 456 b 1176 711 1093 456 1176 519 b 915 978 1176 904 1094 978 l 347 978 b 63 726 165 978 63 900 l 63 703 b 81 685 63 690 68 685 l 161 685 b 179 703 174 685 179 690 b 350 871 179 828 235 871 l 900 871 b 1060 715 1017 871 1060 831 b 900 558 1060 599 1017 558 l 690 558 b 528 393 563 558 528 494 l 528 272 b 547 251 528 258 533 251 z m 546 0 l 629 0 b 647 19 643 0 647 6 l 647 103 b 629 121 647 117 643 121 l 546 121 b 526 103 532 121 526 117 l 526 19 b 546 0 526 6 532 0 z "},"¿":{"ha":1239,"x_min":0,"x_max":0,"o":"m 693 696 l 610 696 b 590 678 596 696 590 692 l 590 594 b 610 575 590 581 596 575 l 693 575 b 713 594 707 575 713 581 l 713 678 b 693 696 713 692 707 696 z m 690 444 l 613 444 b 593 425 599 444 593 439 l 593 331 b 510 242 593 269 574 242 l 324 242 b 63 -15 144 242 63 178 b 324 -282 63 -207 144 -282 l 892 -282 b 1176 -29 1074 -282 1176 -204 l 1176 -7 b 1158 13 1176 6 1171 13 l 1078 13 b 1060 -7 1065 13 1060 6 b 889 -175 1060 -132 1004 -175 l 339 -175 b 179 -18 222 -175 179 -133 b 339 139 179 97 222 139 l 547 139 b 711 303 676 139 711 203 l 711 425 b 690 444 711 439 704 444 z "},"·":{"ha":260,"x_min":0,"x_max":0,"o":"m 89 361 l 172 361 b 190 381 186 361 190 367 l 190 464 b 172 483 190 478 186 483 l 89 483 b 69 464 75 483 69 478 l 69 381 b 89 361 69 367 75 361 z "},"•":{"ha":356,"x_min":0,"x_max":0,"o":"m 69 481 l 69 363 b 114 317 69 332 83 317 l 239 317 b 286 363 269 317 286 332 l 286 481 b 239 526 286 511 269 526 l 114 526 b 69 481 83 526 69 511 z "}}}
